<svg width="642" height="642" viewBox="0 0 642 642" fill="none" xmlns="http://www.w3.org/2000/svg">
<g clip-path="url(#clip0_224_3055)">
<path d="M160.361 321.14C210.92 367.974 229.66 375.444 236.093 370.635C242.171 366.092 238.167 349.914 232.41 340.247C220.54 320.317 191.2 311.248 160.361 321.14Z" fill="#AD5707"/>
<path d="M460.067 300.191C454.969 303.58 399.097 341.269 407.124 362.347C408.652 366.361 412.672 370.229 417.252 370.635C432.757 372.011 448.978 333.221 460.067 300.191Z" fill="#AD5707"/>
<path d="M509.388 373.272C514.714 368.743 516.473 366.337 517.155 361.426C520.737 335.651 491.144 312.16 440.502 286.607C428.302 305.793 410.117 331.422 397.917 350.605C412.152 354.422 484.063 399.208 509.388 373.272Z" fill="#F4ADA2"/>
<path d="M461.678 299.04C451.19 310.744 440.114 325.438 430.373 343.47C427.531 348.732 423.801 356.184 421.565 361.19C414.889 359.041 409.462 356.034 402.75 352.449C422.393 334.646 442.036 316.843 461.678 299.04Z" fill="#9B3C82"/>
<path d="M431.064 331.498C407.583 358.537 411.823 366.389 412.88 368.102C413.586 369.25 414.514 369.976 415.181 370.404C414.252 369.888 405.926 365.258 398.548 361.504C397.91 361.179 397.28 360.862 396.663 360.553C396.529 360.486 396.398 360.419 396.267 360.355C395.73 360.09 395.206 359.832 394.695 359.584C391.244 357.913 388.132 356.527 388.132 356.527C385.98 355.569 383.869 354.671 381.804 353.829C381.804 353.829 361.182 337.749 350.142 297.087C350.142 297.084 350.142 297.084 350.142 297.082C349.021 292.961 348.001 288.587 347.11 283.951C346.991 283.327 346.862 282.613 346.758 281.833C346.397 279.119 346.358 275.599 348.197 272.334C350.298 268.607 354.107 265.966 358.09 264.716C402.082 254.882 453.628 293.17 462.553 298.394C462.553 298.394 439.528 321.753 431.064 331.498Z" fill="#D56C0C"/>
<path d="M215.836 465.461C217.489 459.384 242.754 366.893 242.82 366.187C242.823 366.17 242.91 365.816 242.912 365.8C243.635 358.143 244.128 353.055 244.857 347.033V347.031C244.913 346.573 244.97 346.11 245.028 345.638C246.644 332.603 249.222 316.175 253.584 296.942V296.939C256.1 285.85 259.207 273.833 263.065 260.99C263.07 260.978 263.072 260.964 263.077 260.953C267.989 260.98 274.195 261.459 281.174 263.096C287.93 264.68 293.609 266.929 298.096 269.107C298.57 269.337 299.03 269.567 299.477 269.795C299.647 269.88 299.815 269.968 299.981 270.053C300.349 270.244 300.708 270.433 301.058 270.622C305.503 268.566 317.195 263.927 330.628 267.638C334.654 268.752 337.999 270.382 340.651 272.003C340.89 271.867 341.132 271.731 341.378 271.596C341.417 271.573 341.456 271.552 341.495 271.531C341.919 271.294 342.354 271.059 342.798 270.824C344.849 269.742 347.128 268.656 349.628 267.629C352.761 266.345 355.707 265.375 358.375 264.637C358.382 264.646 358.389 264.657 358.393 264.667C367.893 279.382 394.213 348.654 395.253 353.457C395.253 353.461 395.256 353.468 395.258 353.473C395.719 355.602 396.147 357.709 396.547 359.794C401.697 386.683 411.919 452.344 410.926 468.967C410.926 468.967 303.475 501.115 215.836 465.461Z" fill="#D56C0C"/>
<path d="M340.066 339.138C339.596 339.138 339.093 339.061 338.56 338.907C338.133 338.784 337.886 338.337 338.009 337.91C338.133 337.482 338.58 337.236 339.007 337.359C339.81 337.591 340.467 337.581 340.959 337.331C343.447 336.065 341.223 326.966 337.857 313.194C336.035 305.742 333.768 296.467 331.459 285.405C331.368 284.969 331.647 284.543 332.083 284.452C332.518 284.36 332.945 284.64 333.036 285.076C335.34 296.111 337.603 305.371 339.422 312.812C343.469 329.367 345.315 336.923 341.69 338.767C341.205 339.014 340.662 339.138 340.066 339.138Z" fill="#F4F7FB"/>
<path d="M334.425 315.393C335.363 315.393 336.124 314.632 336.124 313.693C336.124 312.754 335.363 311.992 334.425 311.992C333.486 311.992 332.725 312.754 332.725 313.693C332.725 314.632 333.486 315.393 334.425 315.393Z" fill="#F4F7FB"/>
<path d="M337.417 328.516C338.356 328.516 339.117 327.755 339.117 326.816C339.117 325.877 338.356 325.115 337.417 325.115C336.479 325.115 335.718 325.877 335.718 326.816C335.718 327.755 336.479 328.516 337.417 328.516Z" fill="#F4F7FB"/>
<path d="M398.296 361.376C397.658 361.051 396.789 360.616 396.789 360.616C396.789 360.616 395.85 355.638 395.258 353.472C395.256 353.467 395.253 353.46 395.253 353.455C393.117 345.651 390.58 337.955 387.662 330.423C381.928 315.62 374.672 301.34 366.098 287.979C365.858 287.603 365.966 287.104 366.339 286.864C366.714 286.625 367.214 286.733 367.453 287.106C375.646 299.871 382.641 313.467 388.267 327.559C388.269 327.566 388.274 327.573 388.276 327.582C388.575 328.332 388.872 329.085 389.165 329.84C393.085 339.958 395.785 350.802 398.296 361.376Z" fill="#F4F7FB"/>
<path d="M349.306 302.648C348.726 303.767 348.012 304.446 347.188 304.667C345.068 305.233 342.534 303.122 339.209 298.023C337.573 295.516 335.731 292.242 333.705 288.246V288.243C333.314 287.472 332.918 286.673 332.513 285.847C332.469 287.083 332.407 288.303 332.329 289.5V289.503C332.112 292.834 331.767 295.971 331.316 298.697C329.836 307.613 327.189 312.565 323.448 313.421C323.188 313.481 322.826 313.534 322.373 313.534C321.535 313.534 320.389 313.35 319 312.669C308.559 307.544 301.179 281.88 298.095 269.106C298.569 269.336 299.029 269.566 299.476 269.794C299.465 269.762 299.455 269.731 299.446 269.699C299.48 269.227 299.517 268.753 299.549 268.279C299.687 268.868 299.832 269.46 299.98 270.052C300.191 270.915 300.41 271.778 300.633 272.644C305.159 290.055 312.021 307.447 319.711 311.221C321.468 312.084 322.66 311.948 323.091 311.849C328.652 310.578 330.807 296.05 330.977 282.766C330.98 282.667 330.982 282.569 330.982 282.469C330.984 282.094 331.247 281.77 331.615 281.691C331.983 281.611 332.354 281.792 332.515 282.133C332.538 282.184 332.563 282.234 332.586 282.283C341.925 302 345.615 303.421 346.771 303.108C347.231 302.985 347.624 302.384 347.875 301.904C351.271 295.356 344.846 279.354 341.727 272.365C341.605 272.093 341.377 271.594 341.377 271.594C341.377 271.594 342.353 271.057 342.797 270.823C343.974 273.394 345.594 277.151 347.037 281.27C348.812 286.323 350.32 291.915 350.421 296.519V296.524C350.475 298.901 350.155 301.009 349.306 302.648Z" fill="#F4F7FB"/>
<path d="M336.77 182.261L337.477 193.669C337.477 193.669 337.446 193.692 337.431 193.705C337.415 193.718 337.4 193.734 337.382 193.746C335.75 195.077 333.887 197.302 331.937 200.038C329.193 203.883 326.276 208.741 323.599 213.535C322.882 214.814 322.186 216.088 321.513 217.337C320.6 219.027 319.734 220.669 318.933 222.215C316.566 226.78 314.752 230.51 313.984 232.108C313.724 232.653 313.586 232.948 313.586 232.948C313.586 232.948 297.11 223.215 290.293 222.94C290.221 222.385 290.121 221.833 289.993 221.283C288.417 214.475 282.793 208.187 279.668 205.188C270.457 196.39 279.56 177.305 295.019 181.516C293.423 171.168 308.354 162.277 317.672 171.715C317.998 172.047 318.319 172.401 318.633 172.781C318.651 172.805 318.671 172.828 318.692 172.853C319.411 172.011 320.059 171.219 320.716 170.508C321.385 169.781 322.06 169.139 322.836 168.604C324.344 167.567 326.22 166.945 329.103 166.953C342.583 169.48 336.77 182.261 336.77 182.261Z" fill="#AD5707"/>
<path d="M358.23 238.231C352.761 249.573 337.856 251.042 336.323 251.166C336.309 251.169 336.302 251.169 336.302 251.169C337.05 255.015 341.585 273.432 341.656 273.683C336.804 283.145 325.373 286.556 312.517 282.694C312.517 282.694 305.432 280.359 302.009 275.847C300.001 273.25 299.175 270.294 299.166 270.262C299.2 269.79 299.237 269.316 299.269 268.842C299.787 261.717 300.192 254.203 300.446 247.009C300.459 246.567 300.476 246.122 300.489 245.683V245.68C300.492 245.604 300.494 245.531 300.496 245.455C274.337 248.59 272.859 220.049 290.031 221.462C293.563 221.75 297.883 223.311 302.943 226.672C312.065 231.835 306.817 216.872 315.817 205.156C316.853 203.805 318.08 202.498 319.542 201.268C322.997 198.361 327.761 195.895 334.414 194.346C335.367 194.123 337.437 193.676 337.476 193.669C337.557 193.902 337.95 195.221 338.446 196.548C338.999 198.025 339.656 199.514 339.68 199.574C341.094 203.135 342.657 206.635 344.365 210.063C349.507 220.369 359.217 221.675 360.08 229.732C360.49 233.543 359.043 236.548 358.23 238.231Z" fill="#F4ADA2"/>
<path d="M314.798 209.953C314.754 209.229 314.804 208.511 314.931 207.802C315.196 206.308 315.821 204.895 316.725 203.7C317.207 203.055 319.245 200.515 322.825 200.415C323.593 200.393 324.378 200.531 325.088 200.824C326.84 201.791 325.865 203.531 325.745 203.665L319.366 211.051C319.218 211.268 317.904 213.113 316.413 213.113C315.954 213.066 314.782 212.655 314.798 209.953Z" fill="#AD5707"/>
<path d="M319.755 215.977C321.241 215.082 324.862 213.032 327.83 209.987C328.242 209.57 328.921 209.559 329.355 209.965L329.361 209.981C330.453 211.067 331.926 213.112 329.63 214.93C326.827 217.162 321.322 217.916 319.723 216.912C319.463 216.742 319.399 216.395 319.574 216.15C319.623 216.078 319.678 216.022 319.755 215.977Z" fill="#AD5707"/>
<path d="M340.601 205.254C339.037 206.029 337.801 206.303 334.705 206.973C334.121 207.099 333.738 207.655 333.864 208.24C334.173 209.74 335.387 210.969 337.787 210.426C340.48 209.82 341.429 207.354 341.4 205.757C341.387 205.447 341.137 205.2 340.844 205.208C340.75 205.204 340.684 205.226 340.601 205.254Z" fill="#AD5707"/>
<path d="M300.485 245.477C301.864 245.102 303.444 244.471 305.041 243.419C305.327 243.228 305.726 243.313 305.916 243.6C306.106 243.886 306.02 244.285 305.734 244.475C304.102 245.559 302.308 246.343 300.425 246.808L300.485 245.477Z" fill="#9A3C81"/>
<path d="M331.937 200.037C332.542 200.332 338.992 199.586 339.682 199.574C338.914 197.64 337.462 193.682 337.477 193.669C336.799 193.684 336.121 193.783 335.466 193.954C334.851 194.132 331.738 195.282 331.008 198.154C330.813 198.932 331.226 199.722 331.937 200.037Z" fill="#AD5707"/>
<path d="M338.606 261.168C338.404 260.337 336.78 253.568 336.301 251.169C336.301 251.169 336.308 251.168 336.322 251.167C336.32 251.164 336.318 251.164 336.318 251.164C336.318 251.164 327.174 251.482 321.355 248.557C320.012 250.141 323.719 261.782 338.444 261.193L338.606 261.168Z" fill="#AD5707"/>
<path opacity="0.52" d="M326.677 233.049C328.795 229.682 327.786 225.237 324.421 223.119C321.057 221.001 316.612 222.013 314.493 225.379C312.375 228.746 313.384 233.192 316.749 235.309C320.113 237.427 324.558 236.415 326.677 233.049Z" fill="#E47280"/>
<path d="M343.227 224.835C342.625 225.613 341.833 226.216 340.896 226.555C339.987 226.921 339.004 227.072 338.036 226.996C337.074 226.882 336.159 226.53 335.359 225.972C334.554 225.398 333.918 224.618 333.535 223.715L333.529 223.698C333.411 223.406 333.073 223.282 332.781 223.4C332.539 223.501 332.402 223.751 332.437 224.016C332.668 225.285 333.339 226.441 334.341 227.262C334.835 227.684 335.374 228.017 335.978 228.272C337.775 229.043 339.83 228.95 341.553 228.048C342.121 227.761 342.643 227.398 343.104 226.964C343.582 226.524 343.948 225.974 344.203 225.37C344.323 225.07 344.177 224.751 343.877 224.632C343.639 224.528 343.358 224.624 343.205 224.825L343.227 224.835Z" fill="#9A3C81"/>
<path d="M300.757 235.948C301.11 235.901 301.357 235.595 301.31 235.242C301.293 235.137 301.253 235.022 301.186 234.934C294.615 225.971 286.091 229.566 286.009 229.594C285.689 229.74 285.537 230.106 285.683 230.425C285.829 230.745 286.189 230.88 286.514 230.751C286.823 230.627 294.212 227.548 300.169 235.687C300.309 235.879 300.525 235.972 300.757 235.948Z" fill="#9A3C81"/>
<path d="M339.919 218.505C340.063 218.493 340.184 218.415 340.277 218.309C341.503 216.653 341.953 215.484 341.725 214.491C341.445 213.239 340.124 212.563 338.615 211.768C335.22 209.992 335.111 208.053 335.106 208.036C335.104 207.76 334.865 207.546 334.588 207.548C334.312 207.55 334.093 207.773 334.095 208.049C334.095 208.16 334.152 210.596 338.147 212.666C339.65 213.445 340.572 213.98 340.748 214.713C340.897 215.364 340.49 216.335 339.477 217.696C339.313 217.918 339.365 218.233 339.587 218.397C339.659 218.502 339.798 218.528 339.919 218.505Z" fill="#AD5707"/>
<path d="M318.632 172.781C315.957 176.751 316.409 181.703 316.415 181.757C316.471 182.089 316.258 182.384 315.96 182.484C315.911 182.502 315.862 182.52 315.806 182.52C315.415 182.562 315.081 182.287 315.04 181.896C315.022 181.791 314.806 179.427 315.503 176.548C315.955 174.708 316.685 173.087 317.671 171.715C317.998 172.047 318.319 172.401 318.632 172.781Z" fill="#9A3C81"/>
<path d="M306.389 442.814C306.386 442.814 306.386 442.814 306.383 442.811C304.816 441.94 303.063 441.008 301.096 440.017C301.124 440.022 301.152 440.031 301.181 440.036H301.183C316.376 443.542 325.327 439.386 307.682 434.003C288.492 428.148 279.473 419.409 287.116 420.007C297.755 420.839 300.805 417.588 279.045 408.098C276.687 407.069 274.289 405.975 271.936 404.869C270.813 404.302 269.23 403.504 267.29 402.524C263.017 400.367 257.015 397.333 250.4 393.978C250.385 393.969 223.521 378.693 209.245 369.585C222.755 361.521 267.86 336.232 272.529 333.497L257.693 261.206C227.042 261.206 165.455 296.76 135.604 344.128C131.087 351.293 127.977 360.169 126.729 368.152C126.718 368.16 126.706 368.169 126.696 368.178C126.65 368.515 126.612 368.851 126.574 369.188C126.568 369.234 126.56 369.282 126.553 369.328C124.637 383.559 128.592 396.716 139.433 407.487L139.433 407.488C172.502 446.416 301.853 468.546 301.933 459.382C301.938 458.794 301.338 458.39 300.284 457.622C300.284 457.621 300.284 457.622 300.284 457.621C308.181 458.919 314.637 457.096 314.867 455.082C314.937 454.493 314.471 453.886 313.347 453.339C313.347 453.338 313.347 453.339 313.347 453.338C319.13 453.66 320.324 450.571 306.389 442.814Z" fill="#F4ADA2"/>
<path d="M306.383 442.811C304.917 442.48 303.465 442.109 302.066 441.719C297.531 440.446 293.076 438.91 288.722 437.118C288.379 436.967 288.219 436.568 288.365 436.22C288.511 435.871 288.913 435.705 289.264 435.852C289.331 435.883 294.554 438.101 301.181 440.036C301.153 440.031 301.124 440.022 301.096 440.017C303.063 441.008 304.815 441.94 306.383 442.811Z" fill="#9B3C82"/>
<path d="M314.867 455.082C312.768 454.644 310.409 454.046 307.951 453.363C303.203 452.04 298.085 450.389 293.753 448.897C289.449 447.413 285.924 446.089 284.314 445.403C283.981 445.261 283.784 444.891 283.897 444.548C284.027 444.156 284.457 443.969 284.825 444.126C286.878 445.005 292.191 446.971 298.239 448.959C303.245 450.602 308.757 452.265 313.347 453.338C314.471 453.885 314.937 454.492 314.867 455.082Z" fill="#9B3C82"/>
<path d="M301.853 459.027C300.15 458.707 298.479 458.343 296.81 457.871C290.756 456.187 284.909 454.031 281.38 452.524C281.031 452.375 280.87 451.971 281.018 451.622C281.167 451.273 281.57 451.11 281.919 451.259C286.023 453.008 293.364 456.079 300.318 457.646C301.349 458.402 301.609 458.611 301.853 459.027Z" fill="#9B3C82"/>
<path d="M209.245 369.585C208.332 369.155 204.835 367.617 202.921 366.773C199.028 365.068 194.993 363.568 190.932 362.314C190.507 362.182 190.269 361.731 190.399 361.306C190.531 360.881 190.982 360.641 191.406 360.773C195.527 362.045 199.619 363.567 203.569 365.297C204.829 365.849 209.45 368.125 210.695 368.725L209.245 369.585Z" fill="#9B3C82"/>
<path d="M159.21 324.593C158.983 325.216 181.101 332.142 206.859 349.916C213.11 354.23 218.506 358.801 222.338 361.981C228.323 358.758 234.202 354.997 240.187 351.774C176.954 329.603 159.411 324.041 159.21 324.593Z" fill="#9B3C82"/>
<path d="M270.341 342.643C262.895 350.023 255.633 355.783 251.517 359.354C248.317 362.13 245.661 364.195 243.313 365.878C243.083 366.044 237.675 369.644 235.404 371.095C236.924 369.995 237.756 369.055 237.936 366.491C238.21 362.57 235.475 359.384 230.503 356.17C225.66 353.039 218.694 349.883 210.313 346.002C196.828 339.759 148.542 321.316 152.061 322.455C156.23 317.515 166.258 307.419 175.967 299.716C229.087 257.58 255.341 260.733 262.957 260.952C273.135 260.939 282.169 266.436 285.023 268.955C293.296 276.259 294.712 286.888 295.172 290.765C297.587 311.067 283.665 329.447 270.341 342.643Z" fill="#D56C0C"/>
<path d="M293.827 328.545C290.737 333.188 286.934 337.618 282.44 341.927C280.078 344.191 277.536 346.403 274.801 348.571C266.001 355.553 255.336 362.055 242.276 368.288C242.468 367.582 242.611 366.865 242.821 366.187C242.999 366.264 252.105 362.067 262.593 355.163C273.392 348.055 285.669 338.094 292.083 328.169C292.539 327.463 293.259 327.028 293.743 327.224C294.126 327.379 294.336 327.78 293.827 328.545Z" fill="#F4F7FB"/>
<path d="M532.328 325.652C532.271 381.398 493.772 380.797 493.772 380.797C493.772 380.797 484.33 362.981 479.62 343.015C473.252 316.036 473.031 304.676 472.98 304.597C472.98 293.597 475.072 273.315 476.742 257.295C478.217 243.145 488.477 233.989 501.712 236.294L502.283 236.394C504.133 236.717 505.903 237.265 507.563 238.007C508.033 238.218 508.498 238.446 508.951 238.688C514.755 241.786 519.013 247.371 520.323 254.063C524.65 276.181 532.346 308.306 532.328 325.652Z" fill="#2780D2"/>
<path d="M516.202 335.504C515.888 338.283 514.75 341.281 512.82 344.42C512.7 344.616 512.489 344.726 512.273 344.726C512.157 344.726 512.042 344.695 511.936 344.631C511.633 344.443 511.541 344.048 511.726 343.747C513.555 340.77 514.632 337.949 514.925 335.36C517.448 313.048 509.002 248.678 507.563 238.007C508.033 238.217 508.498 238.446 508.951 238.688C510.675 251.579 518.681 313.58 516.202 335.504Z" fill="#A9CCED"/>
<path d="M503.547 362.212C497.175 362.212 491.99 357.029 491.99 350.658C491.99 344.287 497.175 339.104 503.547 339.104C509.919 339.104 515.103 344.287 515.103 350.658C515.103 357.029 509.919 362.212 503.547 362.212ZM503.547 340.388C497.883 340.388 493.275 344.995 493.275 350.658C493.275 356.32 497.883 360.927 503.547 360.927C509.21 360.927 513.818 356.32 513.818 350.658C513.818 344.995 509.21 340.388 503.547 340.388Z" fill="#A9CCED"/>
<path d="M508.842 232.441C509.39 235.959 506.772 237.675 506.772 237.675C506.772 237.675 502.174 237.557 495.016 238.328C488.783 239 484.232 240.763 484.232 240.763C484.232 240.763 481.715 239.94 481.189 236.678C480.483 232.291 486.161 227.777 493.797 226.607C501.433 225.437 508.159 228.051 508.842 232.441Z" fill="#A9CCED"/>
<path d="M506.312 231.441L482.045 234.079C481.095 234.182 480.098 234.233 479.08 234.2L477.063 234.03C471.007 233.175 464.701 229.015 462.496 216.487C461.297 209.764 462.81 208.667 468.047 214.845C469.884 217.211 471.978 218.187 473.933 218.316C474.483 218.352 475.023 218.321 475.542 218.236H475.544C477.418 217.928 479.029 216.905 479.972 215.737C481.2 214.08 481.662 211.331 480.542 209.006C480.349 208.598 480.103 208.202 479.805 207.829C479.024 206.845 477.872 206.013 476.277 205.474C473.234 204.577 468.995 206.553 465.714 207.96C460.474 209.741 463.249 204.487 466.371 201.964C471.426 197.882 480.375 194.974 486.881 196.179C487.238 196.243 487.59 196.32 487.932 196.413C487.721 196.218 487.464 195.999 487.169 195.766C483.813 193.073 475.475 188 472.358 186.129C469.506 184.339 467.792 180.73 470.832 180.049C477.436 178.577 489.26 184.544 494.024 188.583C494.027 188.583 494.027 188.583 494.027 188.585C494.34 188.85 494.618 189.104 494.867 189.348C494.806 188.93 494.651 188.151 494.438 187.137V187.134C493.467 182.536 491.275 173.128 490.977 170.829C490.53 167.389 491.283 164.725 494.03 166.415C497.889 168.784 501.807 180.162 503.316 184.955C503.729 186.273 503.963 187.093 503.963 187.093C503.963 187.093 504.102 186.235 504.313 184.95V184.948C504.875 181.498 505.962 174.96 506.332 173.516C506.928 171.194 508.897 169.472 510.937 174.526C511.608 176.183 512.188 183.101 512.687 191.583C512.723 192.182 512.756 192.786 512.792 193.4C513.337 203.131 513.779 214.509 514.126 222.336C514.331 226.955 510.911 230.94 506.312 231.441Z" fill="#2780D2"/>
<path d="M488.711 199.714C488.536 201.217 487.914 202.828 486.863 204.402C485.363 206.648 482.808 208.949 480.542 209.006C480.349 208.598 480.103 208.202 479.805 207.829C479.928 207.739 480.082 207.696 480.244 207.714C481.765 207.881 484.15 206.149 485.794 203.691C487.526 201.096 487.958 198.453 486.948 196.618C486.871 196.48 486.85 196.323 486.881 196.179C487.238 196.243 487.59 196.32 487.932 196.413C487.721 196.218 487.464 195.999 487.169 195.766C487.179 195.758 487.189 195.75 487.2 195.745C487.511 195.575 487.901 195.689 488.073 195.999C488.454 196.693 488.675 197.469 488.744 198.296C488.78 198.753 488.77 199.229 488.711 199.714Z" fill="#A9CCED"/>
<path d="M481.336 230.362C481.118 231.566 480.524 232.987 479.08 234.2L477.063 234.03C478.761 233.108 479.771 231.803 480.072 230.136C480.807 226.056 477.158 220.818 474.219 218.86C474.031 218.735 473.928 218.526 473.933 218.316C474.483 218.352 475.023 218.321 475.542 218.236H475.544C478.594 220.62 482.14 225.894 481.336 230.362Z" fill="#A9CCED"/>
<path d="M490.466 200.041C489.448 200.041 488.504 199.747 487.737 199.158C487.455 198.942 487.402 198.539 487.618 198.257C487.834 197.976 488.238 197.923 488.519 198.139C489.898 199.198 491.819 198.737 493.157 197.954C495.728 196.447 496.376 194.099 496.151 192.547C496.1 192.196 496.343 191.87 496.694 191.819C497.045 191.768 497.371 192.011 497.422 192.362C497.795 194.927 496.376 197.556 493.806 199.062C492.694 199.714 491.539 200.041 490.466 200.041Z" fill="#A9CCED"/>
<path d="M504.719 192.534V192.565C504.721 192.608 504.719 192.649 504.711 192.691C504.662 192.986 504.413 193.22 504.102 193.23H504.076C503.824 193.23 503.606 193.086 503.503 192.873C503.465 192.793 503.442 192.703 503.436 192.611L503.434 192.565L503.174 185.382C503.169 185.22 503.223 185.071 503.316 184.955C503.729 186.273 503.963 187.093 503.963 187.093C503.963 187.093 504.102 186.235 504.313 184.95C504.397 185.056 504.451 185.189 504.457 185.333L504.716 192.521C504.719 192.526 504.719 192.529 504.719 192.534Z" fill="#A9CCED"/>
<path d="M512.792 193.4C511.51 195.324 509.613 196.007 507.992 196.007C507.645 196.007 507.309 195.976 506.995 195.917C505.859 195.709 504.904 195.193 504.269 194.491C503.876 194.057 503.606 193.554 503.49 193.009C503.465 192.888 503.447 192.765 503.436 192.639C503.434 192.621 503.434 192.606 503.434 192.588V192.565C503.447 192.244 503.699 191.974 504.025 191.948C504.372 191.917 504.675 192.169 504.716 192.511C504.716 192.518 504.719 192.526 504.719 192.534C504.798 193.525 505.831 194.399 507.226 194.653C508.84 194.951 510.978 194.394 512.144 191.946C512.25 191.727 512.46 191.596 512.687 191.583C512.723 192.182 512.756 192.786 512.792 193.4Z" fill="#A9CCED"/>
<path d="M497.478 193.333C497.39 193.454 497.257 193.543 497.1 193.577C497.054 193.587 497.008 193.592 496.961 193.592C496.668 193.592 496.406 193.394 496.337 193.099V193.096C496.337 193.094 496.337 193.091 496.334 193.089C496.283 192.852 496.219 192.619 496.147 192.393C495.615 190.707 494.59 189.284 494.027 188.585C494.34 188.85 494.618 189.104 494.867 189.348C494.805 188.93 494.651 188.151 494.438 187.137C494.482 187.162 494.523 187.198 494.561 187.237C494.659 187.339 496.918 189.752 497.588 192.806C497.588 192.811 497.591 192.814 497.591 192.819C497.629 193.004 497.583 193.189 497.478 193.333Z" fill="#A9CCED"/>
<path d="M500.507 196.113C498.116 196.113 496.699 194.655 496.337 193.096C496.257 192.75 496.472 192.405 496.818 192.325C497.163 192.245 497.508 192.46 497.588 192.806C497.958 194.401 499.593 194.956 501.048 194.799C502.216 194.673 503.48 194.046 503.493 192.969C503.498 192.614 503.785 192.328 504.144 192.335C504.499 192.339 504.783 192.631 504.778 192.985C504.758 194.578 503.281 195.849 501.186 196.076C500.952 196.101 500.726 196.113 500.507 196.113Z" fill="#A9CCED"/>
<path d="M494.263 226.959C493.999 226.959 493.751 226.795 493.658 226.531C492.542 223.393 493.002 218.307 494.83 213.575C496.908 208.196 500.384 204.176 504.366 202.547C504.694 202.413 505.069 202.57 505.204 202.898C505.338 203.227 505.181 203.602 504.852 203.736C501.196 205.232 497.98 208.987 496.029 214.038C494.305 218.5 493.849 223.236 494.868 226.102C494.987 226.436 494.812 226.803 494.478 226.922C494.407 226.947 494.334 226.959 494.263 226.959Z" fill="#A9CCED"/>
</g>
<g clip-path="url(#clip1_224_3055)">
<path d="M194.207 431.161L343.641 455.894C344.568 456.048 345.411 455.451 345.486 454.589L355.667 336.755C355.736 335.957 355.119 335.223 354.262 335.081L218.907 312.678C218.05 312.537 217.251 313.037 217.086 313.818L192.827 429.322C192.649 430.167 193.28 431.008 194.207 431.161Z" fill="#D28E27"/>
<path d="M192.827 429.322C192.649 430.167 193.28 431.008 194.207 431.161L341.898 455.606C320.448 451.783 205.606 427.187 217.28 313.375C217.286 313.317 217.197 313.3 217.185 313.356L192.827 429.322Z" fill="#FFB067"/>
<path d="M302.526 337.53C303.161 337.632 303.772 337.357 303.923 336.902C305.256 332.534 306.176 327.976 306.659 323.256C307.742 312.419 306.042 303.75 301.461 297.855C298.349 293.846 293.966 291.266 288.472 290.237L288.427 290.23L288.384 290.223C282.84 289.484 277.826 290.559 273.532 293.382C267.218 297.534 262.693 305.206 260.077 315.797C258.948 320.413 258.286 325.013 258.079 329.561C258.068 330.061 258.6 330.527 259.267 330.602C259.935 330.678 260.488 330.334 260.502 329.834C260.509 329.596 261.408 304.207 275.301 295.157C278.991 292.756 283.267 291.832 287.977 292.436C288.023 292.442 288.07 292.45 288.116 292.459C292.776 293.353 296.511 295.56 299.193 298.983C309.295 311.875 301.612 336.178 301.539 336.406C301.385 336.884 301.792 337.381 302.449 337.517C302.475 337.522 302.5 337.527 302.526 337.53Z" fill="#9B3C82"/>
</g>
<g clip-path="url(#clip2_224_3055)">
<path d="M306.146 442.379C306.144 442.379 306.144 442.379 306.141 442.376C304.578 441.508 302.831 440.578 300.87 439.59C300.898 439.595 300.926 439.604 300.954 439.609H300.957C316.102 443.105 325.025 438.96 307.436 433.592C288.306 427.754 279.316 419.039 286.935 419.636C297.54 420.465 300.58 417.223 278.889 407.759C265.259 401.812 250.334 393.679 250.334 393.679C250.334 393.679 223.543 378.439 209.308 369.353C204.253 366.127 198.302 363.861 192.977 362.478C160.382 354.01 134.634 361.77 127.018 367.95C125.108 382.142 129.853 395.536 139.715 407.15C172.68 445.971 301.624 468.04 301.705 458.901C301.71 458.314 301.111 457.911 300.061 457.146C300.061 457.145 300.061 457.146 300.061 457.145C307.933 458.439 314.368 456.621 314.598 454.613C314.668 454.025 314.203 453.42 313.083 452.874C313.083 452.874 313.083 452.874 313.083 452.874C318.848 453.195 320.038 450.115 306.146 442.379Z" fill="#F4ADA2"/>
<path d="M306.141 442.376C304.679 442.046 303.231 441.676 301.836 441.287C297.317 440.018 292.875 438.486 288.534 436.699C288.193 436.548 288.033 436.15 288.179 435.803C288.324 435.456 288.725 435.29 289.075 435.436C289.142 435.467 294.348 437.68 300.954 439.609C300.926 439.604 300.898 439.595 300.87 439.59C302.831 440.578 304.578 441.508 306.141 442.376Z" fill="#9B3C82"/>
<path d="M314.598 454.613C312.506 454.176 310.154 453.58 307.704 452.899C302.971 451.58 297.869 449.933 293.55 448.446C289.26 446.965 285.746 445.645 284.141 444.961C283.81 444.819 283.613 444.45 283.726 444.108C283.855 443.717 284.284 443.53 284.651 443.687C286.698 444.564 291.993 446.524 298.023 448.507C303.013 450.146 308.507 451.804 313.083 452.874C314.203 453.42 314.668 454.025 314.598 454.613Z" fill="#9B3C82"/>
<path d="M301.625 458.548C299.953 458.423 298.302 457.998 296.639 457.528C290.604 455.848 284.734 453.565 281.216 452.062C280.868 451.913 280.707 451.511 280.856 451.163C281.004 450.815 281.405 450.652 281.754 450.801C285.844 452.545 293.162 455.607 300.094 457.17C301.122 457.924 301.381 458.133 301.625 458.548Z" fill="#9B3C82"/>
<path d="M209.308 369.353C208.398 368.925 204.912 367.39 203.004 366.549C199.123 364.849 195.1 363.353 191.052 362.102C190.629 361.971 190.392 361.521 190.521 361.097C190.653 360.674 191.102 360.434 191.526 360.566C195.633 361.834 199.712 363.352 203.65 365.077C204.907 365.628 209.513 367.897 210.754 368.495L209.308 369.353Z" fill="#9B3C82"/>
</g>
<g clip-path="url(#clip3_224_3055)">
<path d="M341.94 190.932L311.509 200.514L307.696 201.714L307.694 201.717L307.372 201.817C307.372 201.817 306.567 202.409 305.334 203.379C303.115 205.126 299.508 208.099 296.726 211.048C292.449 215.581 289.2 220.591 289.2 220.591L286.332 213.297C286.332 213.297 297.31 197.486 317.378 186.857C330.111 180.115 337.341 180.274 337.341 180.274L339.098 184.344L339.357 184.946L339.626 185.57L341.94 190.932Z" fill="#13743A"/>
<path d="M349.509 190.876C331.343 199.272 314.919 202.039 308.224 202.983C307.092 203.144 306.24 203.252 305.704 203.326C305.556 203.345 305.432 203.363 305.334 203.379C305.305 203.384 305.279 203.387 305.255 203.392C310.691 198.728 317.785 194.212 324.77 190.707C329.928 188.12 335.027 186.083 339.357 184.946C341.312 184.431 343.112 184.101 344.688 183.987C344.878 183.96 345.065 183.937 345.25 183.913C357.811 182.309 358.742 186.608 349.509 190.876Z" fill="#13743A"/>
<path d="M345.25 183.913C345.152 184.069 344.991 184.185 344.796 184.219C343.273 184.476 341.529 184.936 339.626 185.57C331.404 188.302 320.252 194.23 311.509 200.514C310.369 201.331 309.269 202.158 308.224 202.983C307.092 203.144 306.24 203.252 305.704 203.326C306.345 202.79 307.007 202.253 307.694 201.717L307.696 201.714C312.705 197.787 318.769 193.921 324.77 190.707C329.812 188.006 334.813 185.765 339.098 184.344L339.357 184.946C341.312 184.431 343.112 184.101 344.688 183.987C344.878 183.96 345.065 183.937 345.25 183.913Z" fill="#2EBB66"/>
</g>
<g clip-path="url(#clip4_224_3055)">
<path d="M328.557 338.362C327.05 338.11 325.661 339.159 325.519 340.661C324.994 346.213 323.58 359.376 320.869 373.274C317.742 389.301 318.523 402.244 319.021 407.184C319.147 408.436 320.144 409.441 321.406 409.583L359.203 413.855C360.919 414.049 362.337 412.598 362.082 410.905C361.456 406.743 360.564 399.287 360.85 392.001C361.26 381.521 363.526 355.014 364.238 346.823C364.358 345.444 363.736 343.22 362.353 342.989L328.557 338.362Z" fill="white"/>
<path d="M321.161 410.184C319.695 409.939 318.544 408.73 318.395 407.247C317.904 402.375 317.101 389.3 320.252 373.154C322.989 359.122 324.409 345.715 324.893 340.602C324.978 339.708 325.416 338.914 326.127 338.367C326.837 337.821 327.757 337.593 328.651 337.74L362.439 342.366L362.439 342.366C363.297 342.509 364.001 343.172 364.44 344.235C364.779 345.053 364.937 346.041 364.865 346.878C364.174 354.817 361.889 381.537 361.478 392.026C361.19 399.37 362.123 406.948 362.704 410.811C362.854 411.807 362.541 412.791 361.846 413.512C361.142 414.243 360.153 414.596 359.133 414.48L321.335 410.209C321.277 410.202 321.218 410.194 321.161 410.184ZM328.453 338.983C327.89 338.889 327.337 339.025 326.894 339.365C326.463 339.696 326.197 340.178 326.146 340.72C325.66 345.851 324.235 359.307 321.486 373.395C318.368 389.376 319.161 402.304 319.647 407.121C319.743 408.077 320.511 408.848 321.477 408.958L359.274 413.23C359.903 413.301 360.51 413.086 360.94 412.639C361.362 412.202 361.551 411.604 361.46 410.999C360.872 407.091 359.929 399.425 360.221 391.977C360.633 381.46 362.92 354.715 363.611 346.769C363.712 345.605 363.185 343.766 362.25 343.61L328.472 338.986C328.465 338.985 328.466 338.984 328.453 338.983Z" fill="#2780D2"/>
<path d="M329.37 355.097L329.84 351.861C329.93 351.236 330.516 350.812 331.148 350.913L357.257 355.082C357.89 355.182 358.328 355.771 358.238 356.396L357.768 359.631C357.677 360.256 357.091 360.681 356.459 360.58L330.35 356.411C329.718 356.31 329.279 355.722 329.37 355.097Z" fill="#2780D2"/>
<path d="M349.728 369.353C349.728 369.353 349.728 369.353 349.727 369.353L330.355 366.094C330.012 366.036 329.781 365.711 329.839 365.369C329.896 365.026 330.22 364.795 330.563 364.852L330.563 364.853L349.936 368.112C350.279 368.169 350.51 368.494 350.452 368.837C350.394 369.179 350.07 369.41 349.728 369.353Z" fill="#2780D2"/>
<path d="M329.54 372.507C329.199 372.45 328.967 372.127 329.023 371.784C329.08 371.441 329.403 371.209 329.746 371.265L353.936 375.232L353.938 375.232C354.28 375.29 354.511 375.613 354.455 375.955C354.399 376.298 354.076 376.53 353.733 376.474L329.542 372.507C329.542 372.507 329.541 372.507 329.54 372.507Z" fill="#2780D2"/>
<path d="M329.096 379.031C328.754 378.973 328.523 378.65 328.58 378.307C328.636 377.964 328.96 377.733 329.303 377.789L353.84 381.861L353.84 381.861C354.183 381.918 354.414 382.242 354.357 382.584C354.3 382.927 353.976 383.159 353.633 383.102L329.097 379.031C329.097 379.031 329.097 379.031 329.096 379.031Z" fill="#2780D2"/>
<path d="M328.483 386.43C328.145 386.373 327.914 386.056 327.965 385.716C328.017 385.372 328.337 385.135 328.681 385.187L348.511 388.165C348.861 388.213 349.092 388.537 349.04 388.881C348.989 389.225 348.668 389.461 348.325 389.41L328.494 386.431C328.49 386.431 328.487 386.43 328.483 386.43Z" fill="#2780D2"/>
<path d="M349.234 407.141C348.481 407.015 347.792 406.607 347.323 405.98L342.944 400.136C342.485 399.524 342.61 398.656 343.221 398.198C343.833 397.739 344.701 397.864 345.159 398.475L349.538 404.32C349.616 404.424 349.736 404.416 349.771 404.411C349.788 404.409 349.842 404.399 349.852 404.373L353.391 395.056C353.662 394.341 354.462 393.982 355.176 394.253C355.891 394.525 356.25 395.324 355.979 396.039L352.44 405.356C352.07 406.332 351.216 407.003 350.157 407.153C349.846 407.196 349.535 407.191 349.234 407.141Z" fill="#13743A"/>
<path d="M350.331 346.575C350.33 346.575 350.33 346.575 350.329 346.575L341.743 345.118C341.401 345.059 341.17 344.735 341.228 344.392C341.286 344.05 341.611 343.819 341.953 343.877L341.954 343.877L350.54 345.334C350.883 345.392 351.113 345.717 351.055 346.06C350.997 346.402 350.673 346.632 350.331 346.575Z" fill="#9B3C82"/>
</g>
<g clip-path="url(#clip5_224_3055)">
<path d="M179.514 420.499L316.518 485.088C317.368 485.489 318.342 485.145 318.65 484.336L360.614 373.759C360.898 373.011 360.506 372.136 359.72 371.765L235.623 313.261C234.837 312.89 233.932 313.153 233.561 313.86L178.688 418.352C178.287 419.117 178.664 420.098 179.514 420.499Z" fill="#D28E27"/>
<path d="M178.688 418.352C178.287 419.117 178.664 420.098 179.514 420.499L314.921 484.335C295.329 474.802 191.566 419.788 233.868 313.486C233.89 313.433 233.808 313.392 233.782 313.443L178.688 418.352Z" fill="#FFB067"/>
</g>
<defs>
<clipPath id="clip0_224_3055">
<rect width="406.258" height="316.378" fill="white" transform="translate(126.089 165.893)"/>
</clipPath>
<clipPath id="clip1_224_3055">
<rect width="165.379" height="154.594" fill="white" transform="translate(217.445 278.633) rotate(9.27901)"/>
</clipPath>
<clipPath id="clip2_224_3055">
<rect width="190.546" height="102.206" fill="white" transform="translate(126.602 358.75)"/>
</clipPath>
<clipPath id="clip3_224_3055">
<rect width="69.336" height="40.3176" fill="white" transform="translate(286.332 180.274)"/>
</clipPath>
<clipPath id="clip4_224_3055">
<rect width="49.0488" height="73.7015" fill="white" transform="translate(325.62 336.204) rotate(9.49931)"/>
</clipPath>
<clipPath id="clip5_224_3055">
<rect width="18.2327" height="5.13598" fill="white" transform="matrix(0.905402 0.424554 -0.424559 0.9054 206.994 362.824)"/>
</clipPath>
</defs>
</svg>
