<svg width="143" height="142" viewBox="0 0 143 142" fill="none" xmlns="http://www.w3.org/2000/svg">
<path fill-rule="evenodd" clip-rule="evenodd" d="M78.4 7.62939e-06C96.5296 1.71333 113.303 10.3425 125.238 24.0963C137.174 37.85 143.354 55.6718 142.496 73.862C141.639 92.0521 133.809 109.213 120.633 121.783C107.456 134.353 89.9454 141.366 71.735 141.366C53.5246 141.366 36.0137 134.353 22.8373 121.783C9.66091 109.213 1.83122 92.0521 0.973607 73.862C0.115992 55.6718 6.29634 37.85 18.2316 24.0963C30.167 10.3425 46.9404 1.71333 65.07 7.62939e-06V20.89C52.4765 22.5807 40.9961 28.9944 32.954 38.8321C24.912 48.6699 20.9092 61.1963 21.7565 73.8745C22.6037 86.5528 28.2376 98.4352 37.5172 107.115C46.7968 115.796 59.0285 120.625 71.735 120.625C84.4415 120.625 96.6732 115.796 105.953 107.115C115.232 98.4352 120.866 86.5528 121.714 73.8745C122.561 61.1963 118.558 48.6699 110.516 38.8321C102.474 28.9944 90.9935 22.5807 78.4 20.89V7.62939e-06Z" fill="#2E3192"/>
<path fill-rule="evenodd" clip-rule="evenodd" d="M71.86 55.09C74.9201 55.088 77.9121 55.9936 80.4574 57.6923C83.0028 59.391 84.9871 61.8064 86.1596 64.633C87.332 67.4596 87.6397 70.5704 87.044 73.5719C86.4482 76.5734 84.9756 79.3309 82.8125 81.4954C80.6494 83.6599 77.8929 85.1343 74.8917 85.732C71.8906 86.3297 68.7795 86.024 65.9522 84.8534C63.1248 83.6828 60.7082 81.6999 59.0079 79.1557C57.3075 76.6115 56.4 73.6201 56.4 70.56C56.4 66.4588 58.0285 62.5255 60.9275 59.6246C63.8266 56.7237 67.7588 55.0926 71.86 55.09ZM71.86 33.46C79.1981 33.458 86.372 35.6322 92.4744 39.7076C98.5768 43.783 103.334 49.5766 106.143 56.3555C108.953 63.1345 109.689 70.5944 108.258 77.7917C106.828 84.9891 103.295 91.6006 98.1072 96.7901C92.9191 101.98 86.3085 105.514 79.1115 106.946C71.9146 108.379 64.4545 107.645 57.6748 104.837C50.895 102.029 45.1002 97.274 41.0232 91.1727C36.9461 85.0714 34.77 77.8981 34.77 70.56C34.77 60.7222 38.6774 51.2872 45.6328 44.3299C52.5882 37.3726 62.0222 33.4626 71.86 33.46Z" fill="#2E3192"/>
</svg>
