<svg width="24" height="24" viewBox="0 0 24 24" fill="none" xmlns="http://www.w3.org/2000/svg">
<path d="M17.9997 14.0002C17.4088 14.0041 16.8262 14.1389 16.2937 14.3948C15.7611 14.6507 15.2919 15.0214 14.9197 15.4802L9.81966 13.1302C10.0595 12.396 10.0595 11.6045 9.81966 10.8702L14.9197 8.52024C15.5213 9.2462 16.36 9.73631 17.2878 9.90408C18.2156 10.0718 19.1729 9.90646 19.9906 9.43714C20.8084 8.96782 21.434 8.22471 21.7572 7.33898C22.0804 6.45325 22.0803 5.48182 21.757 4.59614C21.4336 3.71047 20.8078 2.96748 19.99 2.4983C19.1722 2.02913 18.2149 1.86393 17.2871 2.03186C16.3593 2.19979 15.5207 2.69006 14.9192 3.41613C14.3177 4.14221 13.992 5.05741 13.9997 6.00024C14.0027 6.23847 14.0261 6.476 14.0697 6.71024L8.78966 9.14024C8.22674 8.58982 7.51391 8.21775 6.74047 8.07066C5.96703 7.92358 5.16738 8.008 4.44171 8.31337C3.71604 8.61873 3.09662 9.13146 2.66106 9.7873C2.2255 10.4431 1.99316 11.2129 1.99316 12.0002C1.99316 12.7875 2.2255 13.5573 2.66106 14.2132C3.09662 14.869 3.71604 15.3817 4.44171 15.6871C5.16738 15.9925 5.96703 16.0769 6.74047 15.9298C7.51391 15.7827 8.22674 15.4107 8.78966 14.8602L14.0697 17.2902C14.0261 17.5245 14.0027 17.762 13.9997 18.0002C13.9997 18.7914 14.2343 19.5647 14.6738 20.2225C15.1133 20.8803 15.738 21.393 16.4689 21.6958C17.1998 21.9985 18.0041 22.0777 18.78 21.9234C19.5559 21.769 20.2687 21.3881 20.8281 20.8287C21.3875 20.2693 21.7685 19.5565 21.9228 18.7806C22.0771 18.0047 21.9979 17.2004 21.6952 16.4695C21.3924 15.7386 20.8797 15.1139 20.2219 14.6744C19.5641 14.2348 18.7908 14.0002 17.9997 14.0002ZM17.9997 4.00024C18.3952 4.00024 18.7819 4.11753 19.1108 4.3373C19.4397 4.55706 19.696 4.86942 19.8474 5.23487C19.9988 5.60032 20.0384 6.00246 19.9612 6.39042C19.8841 6.77838 19.6936 7.13475 19.4139 7.41445C19.1342 7.69416 18.7778 7.88464 18.3898 7.96181C18.0019 8.03898 17.5997 7.99937 17.2343 7.848C16.8688 7.69662 16.5565 7.44028 16.3367 7.11138C16.117 6.78248 15.9997 6.3958 15.9997 6.00024C15.9997 5.4698 16.2104 4.9611 16.5854 4.58602C16.9605 4.21095 17.4692 4.00024 17.9997 4.00024ZM5.99966 14.0002C5.6041 14.0002 5.21742 13.8829 4.88852 13.6632C4.55962 13.4434 4.30328 13.1311 4.1519 12.7656C4.00053 12.4002 3.96092 11.998 4.03809 11.6101C4.11526 11.2221 4.30574 10.8657 4.58545 10.586C4.86515 10.3063 5.22152 10.1158 5.60948 10.0387C5.99744 9.9615 6.39958 10.0011 6.76503 10.1525C7.13048 10.3039 7.44284 10.5602 7.6626 10.8891C7.88236 11.218 7.99966 11.6047 7.99966 12.0002C7.99966 12.5307 7.78895 13.0394 7.41388 13.4144C7.0388 13.7895 6.5301 14.0002 5.99966 14.0002ZM17.9997 20.0002C17.6041 20.0002 17.2174 19.8829 16.8885 19.6632C16.5596 19.4434 16.3033 19.1311 16.1519 18.7656C16.0005 18.4002 15.9609 17.998 16.0381 17.6101C16.1153 17.2221 16.3057 16.8657 16.5854 16.586C16.8652 16.3063 17.2215 16.1158 17.6095 16.0387C17.9974 15.9615 18.3996 16.0011 18.765 16.1525C19.1305 16.3039 19.4428 16.5602 19.6626 16.8891C19.8824 17.218 19.9997 17.6047 19.9997 18.0002C19.9997 18.5307 19.7889 19.0394 19.4139 19.4144C19.0388 19.7895 18.5301 20.0002 17.9997 20.0002Z" fill="#8798A1"/>
</svg>
