<svg width="24" height="24" viewBox="0 0 24 24" fill="none" xmlns="http://www.w3.org/2000/svg">
<path d="M10.3581 0.703003L8.14878 0.126975C7.67692 0.00125476 7.18491 -0.0302316 6.70087 0.0343162C6.21683 0.098864 5.75026 0.25818 5.32783 0.503157C4.9054 0.748133 4.53539 1.07397 4.23897 1.46203C3.94254 1.85009 3.72551 2.29277 3.60027 2.76476L3.04883 4.8476C4.86733 2.58425 7.48215 1.10155 10.3581 0.703003V0.703003Z" fill="#8798A1"/>
<path d="M0.667261 13.8147L0.126356 15.8554C-0.126489 16.8079 0.00936453 17.8218 0.504036 18.6741C0.998707 19.5265 1.81168 20.1474 2.76414 20.4004L4.87156 20.9624C2.62131 19.1931 1.12019 16.6411 0.667261 13.8147V13.8147Z" fill="#8798A1"/>
<path d="M21.2359 3.60064L18.8721 2.97192C20.0665 3.89072 21.0666 5.03759 21.8142 6.34598C22.5619 7.65438 23.0422 9.09823 23.2274 10.5938L23.8772 8.1351C24.1267 7.1836 23.9888 6.17197 23.4937 5.32197C22.9986 4.47197 22.1867 3.85296 21.2359 3.60064Z" fill="#8798A1"/>
<path d="M13.5894 23.2736L15.8548 23.8847C16.8073 24.1376 17.8213 24.0017 18.6736 23.507C19.5259 23.0124 20.1469 22.1994 20.3998 21.2469L21.0391 18.8445C19.2367 21.2451 16.5593 22.8369 13.5894 23.2736V23.2736Z" fill="#8798A1"/>
<path d="M12.0015 1.59522C9.94299 1.59452 7.93053 2.2043 6.21862 3.34743C4.50672 4.49056 3.17226 6.11569 2.38403 8.01728C1.5958 9.91888 1.3892 12.0115 1.79037 14.0305C2.19153 16.0496 3.18244 17.9043 4.63776 19.3601C6.09309 20.8159 7.94746 21.8074 9.96634 22.2093C11.9852 22.6111 14.0779 22.4052 15.9798 21.6176C17.8817 20.83 19.5072 19.4961 20.6509 17.7846C21.7946 16.0731 22.4051 14.0608 22.4051 12.0024C22.4051 9.24282 21.3091 6.59625 19.3582 4.64464C17.4072 2.69302 14.761 1.59615 12.0015 1.59522V1.59522ZM6.10773 6.78649C6.21901 6.2095 6.49886 5.67846 6.91191 5.26051C7.32496 4.84255 7.85266 4.55644 8.42829 4.43836C9.00393 4.32027 9.60165 4.37551 10.1459 4.59709C10.6901 4.81867 11.1565 5.19664 11.4859 5.68321C11.8154 6.16979 11.9932 6.74312 11.9968 7.33073C12.0005 7.91834 11.8298 8.49384 11.5064 8.98448C11.1831 9.47511 10.7215 9.85885 10.18 10.0872C9.63857 10.3155 9.04158 10.3782 8.46453 10.2672C8.08117 10.1936 7.71609 10.0451 7.39015 9.83022C7.06421 9.61539 6.78379 9.33844 6.56492 9.01519C6.34605 8.69195 6.19302 8.32874 6.11458 7.94633C6.03613 7.56392 6.0338 7.1698 6.10773 6.78649V6.78649ZM10.4315 15.7781C10.3194 16.3549 10.0388 16.8855 9.62527 17.3029C9.21171 17.7203 8.68369 18.0057 8.10796 18.123C7.53223 18.2403 6.93464 18.1844 6.39072 17.9621C5.8468 17.7399 5.38097 17.3614 5.05211 16.8745C4.72325 16.3876 4.54612 15.8141 4.54312 15.2266C4.54011 14.639 4.71137 14.0638 5.03523 13.5735C5.3591 13.0833 5.82104 12.7001 6.36266 12.4723C6.90428 12.2445 7.50127 12.1824 8.07816 12.2939C8.46156 12.3679 8.8266 12.5169 9.15241 12.7321C9.47822 12.9473 9.75841 13.2247 9.97697 13.5483C10.1955 13.8719 10.3482 14.2354 10.4261 14.618C10.5041 15.0006 10.5059 15.3948 10.4315 15.7781V15.7781ZM11.6924 13.3722C11.4363 13.3226 11.2006 13.1984 11.015 13.015C10.8295 12.8317 10.7024 12.5975 10.6497 12.342C10.5971 12.0865 10.6213 11.8212 10.7193 11.5794C10.8173 11.3377 10.9847 11.1303 11.2004 10.9836C11.4161 10.8369 11.6704 10.7573 11.9312 10.755C12.1921 10.7526 12.4478 10.8275 12.6661 10.9703C12.8844 11.1131 13.0555 11.3173 13.1579 11.5573C13.2603 11.7972 13.2893 12.0621 13.2413 12.3185C13.2093 12.4896 13.1438 12.6527 13.0485 12.7984C12.9532 12.9442 12.83 13.0696 12.686 13.1675C12.5421 13.2654 12.3802 13.3339 12.2097 13.3691C12.0391 13.4042 11.8633 13.4052 11.6924 13.3722V13.3722ZM17.8917 17.2112C17.7804 17.7882 17.5006 18.3192 17.0875 18.7372C16.6745 19.1551 16.1468 19.4412 15.5712 19.5593C14.9955 19.6774 14.3978 19.6222 13.8536 19.4006C13.3093 19.179 12.843 18.8011 12.5135 18.3145C12.1841 17.8279 12.0063 17.2546 12.0026 16.667C11.999 16.0793 12.1696 15.5038 12.493 15.0132C12.8164 14.5226 13.278 14.1388 13.8194 13.9105C14.3609 13.6822 14.9579 13.6195 15.5349 13.7304C15.9183 13.8041 16.2834 13.9526 16.6093 14.1675C16.9352 14.3823 17.2157 14.6592 17.4345 14.9825C17.6534 15.3057 17.8064 15.6689 17.8849 16.0514C17.9633 16.4338 17.9656 16.8279 17.8917 17.2112V17.2112ZM15.9248 11.7038C15.3478 11.5925 14.8168 11.3127 14.3988 10.8996C13.9808 10.4866 13.6947 9.95887 13.5767 9.38324C13.4586 8.80761 13.5138 8.20988 13.7354 7.66564C13.957 7.1214 14.3349 6.65507 14.8215 6.32561C15.3081 5.99615 15.8814 5.81836 16.469 5.81471C17.0566 5.81105 17.6321 5.98171 18.1228 6.30509C18.6134 6.62847 18.9971 7.09007 19.2255 7.63151C19.4538 8.17296 19.5165 8.76995 19.4055 9.34701C19.3323 9.73068 19.184 10.0961 18.9694 10.4225C18.7547 10.7488 18.4778 11.0296 18.1545 11.2488C17.8313 11.4681 17.4679 11.6214 17.0853 11.7001C16.7027 11.7787 16.3083 11.7812 15.9248 11.7073V11.7038Z" fill="#8798A1"/>
</svg>
