<svg width="642" height="642" viewBox="0 0 642 642" fill="none" xmlns="http://www.w3.org/2000/svg">
<g clip-path="url(#clip0_5169_180665)">
<path d="M160.363 321.14C210.922 367.974 229.662 375.444 236.096 370.635C242.173 366.092 238.17 349.914 232.412 340.247C220.542 320.317 191.203 311.248 160.363 321.14Z" fill="#207367"/>
<path d="M460.067 300.191C454.969 303.58 399.096 341.269 407.123 362.347C408.652 366.361 412.671 370.229 417.252 370.635C432.756 372.01 448.978 333.221 460.067 300.191Z" fill="#207367"/>
<path d="M509.389 373.272C514.715 368.743 516.474 366.337 517.156 361.426C520.738 335.651 491.145 312.16 440.503 286.607C428.303 305.792 410.118 331.422 397.918 350.605C412.153 354.422 484.065 399.208 509.389 373.272Z" fill="#F4ADA2"/>
<path d="M461.679 299.04C451.19 310.744 440.114 325.438 430.373 343.47C427.531 348.732 423.801 356.184 421.565 361.19C414.889 359.041 409.462 356.034 402.75 352.449C422.393 334.646 442.036 316.843 461.679 299.04Z" fill="#9B3C82"/>
<path d="M431.066 331.498C407.584 358.537 411.824 366.389 412.881 368.101C413.588 369.25 414.515 369.976 415.183 370.404C414.253 369.888 405.927 365.258 398.549 361.504C397.911 361.179 397.281 360.862 396.664 360.553C396.53 360.486 396.399 360.419 396.268 360.355C395.732 360.09 395.207 359.832 394.696 359.584C391.245 357.913 388.133 356.527 388.133 356.527C385.981 355.569 383.87 354.671 381.806 353.829C381.806 353.829 361.183 337.749 350.143 297.087C350.143 297.084 350.143 297.084 350.143 297.082C349.022 292.961 348.002 288.587 347.112 283.951C346.992 283.327 346.863 282.613 346.759 281.833C346.398 279.119 346.359 275.599 348.198 272.334C350.3 268.607 354.109 265.966 358.091 264.716C402.083 254.882 453.63 293.17 462.554 298.394C462.554 298.393 439.53 321.753 431.066 331.498Z" fill="#2B998A"/>
<path d="M215.836 465.461C217.489 459.384 242.753 366.893 242.82 366.186C242.822 366.17 242.91 365.816 242.912 365.8C243.635 358.143 244.127 353.055 244.857 347.033V347.031C244.912 346.572 244.97 346.11 245.027 345.638C246.643 332.603 249.221 316.175 253.583 296.941V296.939C256.099 285.85 259.207 273.833 263.065 260.989C263.07 260.978 263.072 260.964 263.076 260.953C267.989 260.98 274.195 261.459 281.174 263.096C287.93 264.68 293.609 266.929 298.095 269.107C298.57 269.337 299.03 269.567 299.477 269.795C299.647 269.88 299.815 269.967 299.981 270.053C300.349 270.244 300.708 270.433 301.058 270.621C305.503 268.566 317.194 263.927 330.628 267.638C334.654 268.752 337.999 270.382 340.65 272.003C340.89 271.867 341.131 271.731 341.377 271.596C341.417 271.573 341.456 271.552 341.495 271.531C341.918 271.294 342.353 271.059 342.798 270.824C344.849 269.742 347.128 268.656 349.627 267.629C352.76 266.345 355.706 265.375 358.374 264.637C358.381 264.646 358.388 264.657 358.393 264.666C367.892 279.382 394.212 348.654 395.253 353.457C395.253 353.461 395.255 353.468 395.258 353.473C395.718 355.602 396.146 357.709 396.547 359.794C401.696 386.683 411.918 452.344 410.926 468.967C410.926 468.966 303.475 501.115 215.836 465.461Z" fill="#2B998A"/>
<path d="M340.065 339.138C339.596 339.138 339.093 339.061 338.56 338.907C338.133 338.784 337.886 338.337 338.009 337.91C338.133 337.482 338.58 337.236 339.007 337.359C339.81 337.591 340.467 337.581 340.959 337.331C343.447 336.065 341.223 326.966 337.856 313.194C336.035 305.742 333.768 296.467 331.459 285.405C331.368 284.969 331.647 284.543 332.083 284.451C332.518 284.36 332.945 284.64 333.036 285.076C335.34 296.111 337.603 305.371 339.422 312.812C343.468 329.367 345.315 336.923 341.69 338.767C341.204 339.014 340.661 339.138 340.065 339.138Z" fill="#F4F7FB"/>
<path d="M334.426 315.393C335.365 315.393 336.126 314.632 336.126 313.693C336.126 312.754 335.365 311.992 334.426 311.992C333.488 311.992 332.727 312.754 332.727 313.693C332.727 314.632 333.488 315.393 334.426 315.393Z" fill="#F4F7FB"/>
<path d="M337.419 328.516C338.357 328.516 339.118 327.755 339.118 326.816C339.118 325.877 338.357 325.115 337.419 325.115C336.48 325.115 335.719 325.877 335.719 326.816C335.719 327.755 336.48 328.516 337.419 328.516Z" fill="#F4F7FB"/>
<path d="M398.299 361.376C397.661 361.051 396.791 360.616 396.791 360.616C396.791 360.616 395.852 355.638 395.261 353.472C395.258 353.467 395.256 353.46 395.256 353.455C393.119 345.651 390.583 337.955 387.664 330.423C381.93 315.62 374.675 301.34 366.1 287.979C365.86 287.603 365.969 287.104 366.342 286.864C366.717 286.625 367.216 286.733 367.456 287.106C375.648 299.871 382.644 313.467 388.27 327.559C388.272 327.566 388.276 327.573 388.279 327.582C388.578 328.332 388.875 329.085 389.167 329.84C393.088 339.958 395.787 350.802 398.299 361.376Z" fill="#F4F7FB"/>
<path d="M349.309 302.648C348.729 303.767 348.015 304.446 347.191 304.667C345.071 305.233 342.537 303.122 339.212 298.023C337.576 295.516 335.734 292.242 333.708 288.246V288.243C333.317 287.472 332.921 286.673 332.516 285.847C332.472 287.083 332.41 288.303 332.332 289.5V289.503C332.115 292.834 331.77 295.971 331.319 298.697C329.839 307.613 327.192 312.565 323.451 313.421C323.191 313.481 322.829 313.534 322.376 313.534C321.538 313.534 320.392 313.35 319.004 312.669C308.562 307.544 301.182 281.88 298.098 269.106C298.572 269.335 299.032 269.566 299.479 269.794C299.468 269.762 299.458 269.731 299.449 269.699C299.483 269.227 299.52 268.753 299.552 268.279C299.69 268.868 299.835 269.46 299.983 270.052C300.194 270.915 300.413 271.778 300.636 272.644C305.162 290.055 312.024 307.447 319.714 311.221C321.471 312.084 322.663 311.948 323.094 311.849C328.655 310.578 330.81 296.05 330.98 282.766C330.983 282.667 330.985 282.569 330.985 282.469C330.987 282.094 331.25 281.77 331.618 281.691C331.986 281.611 332.357 281.792 332.518 282.133C332.541 282.184 332.566 282.234 332.589 282.283C341.928 302 345.618 303.421 346.774 303.108C347.234 302.985 347.627 302.384 347.878 301.903C351.274 295.356 344.849 279.354 341.73 272.365C341.608 272.093 341.38 271.594 341.38 271.594C341.38 271.594 342.356 271.057 342.8 270.823C343.977 273.394 345.597 277.151 347.04 281.27C348.815 286.323 350.323 291.915 350.424 296.519V296.524C350.478 298.901 350.158 301.009 349.309 302.648Z" fill="#F4F7FB"/>
<path d="M336.772 182.261L337.478 193.669C337.478 193.669 337.447 193.692 337.432 193.705C337.417 193.718 337.401 193.734 337.383 193.746C335.751 195.077 333.889 197.302 331.939 200.038C329.194 203.883 326.278 208.741 323.6 213.535C322.883 214.814 322.187 216.088 321.514 217.337C320.602 219.027 319.736 220.669 318.934 222.215C316.568 226.78 314.754 230.51 313.986 232.108C313.726 232.653 313.587 232.948 313.587 232.948C313.587 232.948 297.112 223.215 290.295 222.94C290.223 222.385 290.123 221.833 289.994 221.283C288.419 214.475 282.794 208.186 279.67 205.188C270.458 196.39 279.562 177.305 295.02 181.516C293.424 171.168 308.356 162.277 317.673 171.715C317.999 172.047 318.321 172.401 318.634 172.781C318.652 172.805 318.673 172.828 318.693 172.853C319.413 172.011 320.06 171.219 320.718 170.508C321.386 169.781 322.062 169.139 322.838 168.604C324.346 167.567 326.222 166.945 329.105 166.952C342.584 169.48 336.772 182.261 336.772 182.261Z" fill="#207367"/>
<path d="M358.233 238.231C352.764 249.573 337.859 251.042 336.326 251.166C336.312 251.169 336.305 251.169 336.305 251.169C337.053 255.015 341.588 273.432 341.659 273.683C336.807 283.145 325.376 286.556 312.52 282.694C312.52 282.694 305.435 280.359 302.012 275.847C300.004 273.25 299.178 270.294 299.169 270.262C299.203 269.79 299.24 269.316 299.272 268.842C299.79 261.717 300.195 254.203 300.449 247.009C300.463 246.567 300.479 246.122 300.492 245.683V245.68C300.495 245.604 300.497 245.531 300.499 245.455C274.34 248.59 272.862 220.049 290.035 221.462C293.566 221.75 297.886 223.311 302.946 226.672C312.068 231.835 306.82 216.872 315.82 205.156C316.856 203.805 318.083 202.498 319.545 201.268C323 198.361 327.765 195.895 334.417 194.346C335.37 194.123 337.44 193.676 337.479 193.669C337.56 193.902 337.953 195.221 338.45 196.548C339.002 198.025 339.659 199.514 339.683 199.574C341.097 203.135 342.66 206.635 344.368 210.063C349.51 220.369 359.22 221.675 360.083 229.732C360.494 233.543 359.046 236.548 358.233 238.231Z" fill="#F4ADA2"/>
<path d="M314.797 209.953C314.753 209.229 314.803 208.511 314.93 207.802C315.196 206.308 315.821 204.895 316.724 203.7C317.206 203.055 319.244 200.515 322.824 200.415C323.592 200.393 324.378 200.531 325.087 200.824C326.839 201.791 325.864 203.531 325.744 203.665L319.365 211.051C319.217 211.268 317.904 213.113 316.412 213.113C315.953 213.066 314.781 212.655 314.797 209.953Z" fill="#207367"/>
<path d="M319.756 215.977C321.242 215.082 324.863 213.032 327.831 209.987C328.243 209.57 328.922 209.559 329.356 209.965L329.362 209.981C330.454 211.067 331.927 213.112 329.631 214.93C326.828 217.162 321.323 217.916 319.724 216.912C319.464 216.742 319.4 216.395 319.575 216.15C319.624 216.078 319.679 216.022 319.756 215.977Z" fill="#207367"/>
<path d="M340.601 205.254C339.037 206.029 337.801 206.303 334.706 206.973C334.121 207.099 333.738 207.655 333.864 208.24C334.173 209.74 335.387 210.969 337.787 210.426C340.48 209.82 341.429 207.354 341.401 205.757C341.387 205.447 341.137 205.2 340.844 205.208C340.75 205.204 340.684 205.226 340.601 205.254Z" fill="#207367"/>
<path d="M300.486 245.477C301.864 245.102 303.445 244.471 305.042 243.419C305.328 243.228 305.727 243.313 305.917 243.6C306.106 243.886 306.021 244.285 305.735 244.475C304.103 245.559 302.309 246.343 300.426 246.808L300.486 245.477Z" fill="#9A3C81"/>
<path d="M331.938 200.037C332.543 200.332 338.994 199.586 339.683 199.574C338.915 197.64 337.463 193.682 337.478 193.669C336.8 193.684 336.122 193.783 335.467 193.954C334.852 194.132 331.739 195.282 331.009 198.154C330.814 198.932 331.227 199.722 331.938 200.037Z" fill="#207367"/>
<path d="M338.608 261.168C338.405 260.337 336.782 253.568 336.303 251.169C336.303 251.169 336.31 251.168 336.324 251.167C336.322 251.164 336.32 251.164 336.32 251.164C336.32 251.164 327.176 251.482 321.357 248.557C320.014 250.141 323.721 261.782 338.446 261.193L338.608 261.168Z" fill="#207367"/>
<path opacity="0.52" d="M326.68 233.049C328.798 229.682 327.789 225.237 324.424 223.119C321.06 221.001 316.615 222.013 314.496 225.379C312.378 228.746 313.387 233.192 316.752 235.309C320.116 237.427 324.561 236.415 326.68 233.049Z" fill="#E47280"/>
<path d="M343.228 224.835C342.626 225.613 341.835 226.216 340.898 226.555C339.988 226.921 339.006 227.072 338.038 226.996C337.076 226.882 336.161 226.53 335.361 225.972C334.555 225.398 333.919 224.618 333.537 223.715L333.531 223.698C333.413 223.406 333.075 223.282 332.783 223.4C332.54 223.501 332.404 223.751 332.439 224.016C332.669 225.285 333.341 226.441 334.342 227.262C334.837 227.684 335.376 228.017 335.98 228.272C337.777 229.043 339.832 228.95 341.555 228.048C342.122 227.761 342.644 227.398 343.106 226.964C343.584 226.524 343.95 225.974 344.205 225.37C344.325 225.07 344.179 224.751 343.879 224.632C343.64 224.528 343.36 224.624 343.206 224.825L343.228 224.835Z" fill="#9A3C81"/>
<path d="M300.758 235.948C301.112 235.901 301.358 235.595 301.311 235.242C301.294 235.137 301.255 235.021 301.187 234.934C294.616 225.971 286.093 229.566 286.01 229.594C285.691 229.74 285.539 230.106 285.685 230.425C285.831 230.745 286.191 230.88 286.516 230.75C286.824 230.626 294.213 227.548 300.17 235.687C300.31 235.879 300.526 235.972 300.758 235.948Z" fill="#9A3C81"/>
<path d="M339.922 218.505C340.066 218.493 340.187 218.415 340.28 218.309C341.506 216.653 341.956 215.484 341.728 214.491C341.448 213.239 340.127 212.563 338.618 211.768C335.223 209.992 335.114 208.053 335.109 208.036C335.107 207.76 334.867 207.546 334.591 207.548C334.315 207.55 334.096 207.773 334.098 208.049C334.098 208.16 334.155 210.596 338.15 212.666C339.653 213.445 340.575 213.98 340.751 214.713C340.9 215.364 340.493 216.335 339.48 217.696C339.316 217.918 339.368 218.233 339.59 218.397C339.662 218.502 339.801 218.528 339.922 218.505Z" fill="#207367"/>
<path d="M318.634 172.781C315.959 176.75 316.411 181.703 316.416 181.757C316.473 182.089 316.26 182.384 315.961 182.484C315.913 182.502 315.864 182.52 315.807 182.52C315.417 182.562 315.083 182.287 315.042 181.896C315.024 181.791 314.808 179.427 315.504 176.548C315.956 174.708 316.686 173.087 317.673 171.715C317.999 172.047 318.32 172.401 318.634 172.781Z" fill="#9A3C81"/>
<path d="M306.39 442.814C306.387 442.814 306.387 442.814 306.384 442.811C304.817 441.94 303.064 441.008 301.097 440.017C301.126 440.022 301.154 440.03 301.182 440.036H301.185C316.377 443.541 325.328 439.386 307.684 434.003C288.494 428.148 279.475 419.409 287.118 420.007C297.756 420.839 300.806 417.588 279.047 408.098C276.688 407.069 274.29 405.975 271.938 404.869C270.814 404.302 269.231 403.504 267.291 402.524C263.018 400.367 257.017 397.333 250.401 393.978C250.386 393.969 223.522 378.693 209.246 369.585C222.756 361.521 267.861 336.232 272.53 333.497L257.695 261.206C227.043 261.206 165.456 296.76 135.605 344.127C131.088 351.293 127.978 360.169 126.73 368.152C126.719 368.16 126.708 368.169 126.697 368.178C126.651 368.515 126.613 368.851 126.575 369.188C126.569 369.234 126.561 369.282 126.554 369.328C124.639 383.559 128.593 396.716 139.434 407.487L139.434 407.488C172.503 446.416 301.854 468.546 301.934 459.382C301.94 458.794 301.339 458.389 300.285 457.622C300.285 457.621 300.285 457.622 300.285 457.621C308.182 458.919 314.638 457.096 314.868 455.082C314.938 454.493 314.472 453.886 313.348 453.338C313.348 453.338 313.348 453.338 313.348 453.338C319.132 453.66 320.325 450.571 306.39 442.814Z" fill="#F4ADA2"/>
<path d="M306.385 442.811C304.919 442.48 303.466 442.109 302.067 441.719C297.533 440.446 293.078 438.91 288.723 437.118C288.381 436.967 288.22 436.568 288.367 436.219C288.513 435.871 288.914 435.705 289.266 435.852C289.333 435.882 294.555 438.101 301.182 440.036C301.154 440.031 301.126 440.022 301.098 440.017C303.064 441.008 304.817 441.94 306.385 442.811Z" fill="#9B3C82"/>
<path d="M314.869 455.082C312.77 454.644 310.411 454.046 307.953 453.363C303.205 452.04 298.086 450.389 293.755 448.897C289.451 447.413 285.926 446.089 284.316 445.403C283.983 445.261 283.786 444.891 283.899 444.548C284.029 444.156 284.459 443.969 284.827 444.126C286.88 445.005 292.193 446.971 298.241 448.959C303.247 450.602 308.759 452.265 313.349 453.338C314.473 453.885 314.939 454.492 314.869 455.082Z" fill="#9B3C82"/>
<path d="M301.855 459.027C300.152 458.707 298.481 458.343 296.812 457.871C290.758 456.187 284.911 454.031 281.381 452.524C281.033 452.374 280.871 451.971 281.02 451.622C281.169 451.273 281.572 451.11 281.921 451.259C286.025 453.008 293.366 456.079 300.32 457.646C301.351 458.402 301.611 458.611 301.855 459.027Z" fill="#9B3C82"/>
<path d="M209.249 369.585C208.336 369.155 204.839 367.617 202.925 366.773C199.032 365.068 194.996 363.568 190.936 362.314C190.511 362.182 190.273 361.731 190.403 361.306C190.535 360.881 190.986 360.641 191.41 360.773C195.53 362.045 199.623 363.567 203.573 365.297C204.833 365.849 209.454 368.125 210.699 368.725L209.249 369.585Z" fill="#9B3C82"/>
<path d="M159.213 324.593C158.985 325.216 181.104 332.142 206.862 349.916C213.113 354.23 218.509 358.801 222.341 361.981C228.326 358.758 234.205 354.997 240.19 351.774C176.957 329.603 159.414 324.041 159.213 324.593Z" fill="#9B3C82"/>
<path d="M270.342 342.643C262.896 350.023 255.633 355.783 251.518 359.354C248.318 362.13 245.661 364.195 243.314 365.878C243.084 366.044 237.676 369.644 235.405 371.095C236.925 369.995 237.757 369.055 237.937 366.491C238.211 362.57 235.476 359.384 230.504 356.17C225.661 353.039 218.695 349.883 210.314 346.002C196.829 339.759 148.543 321.316 152.062 322.455C156.231 317.515 166.258 307.419 175.968 299.716C229.088 257.58 255.341 260.733 262.958 260.952C273.136 260.939 282.17 266.436 285.024 268.954C293.297 276.259 294.713 286.888 295.173 290.765C297.587 311.067 283.665 329.447 270.342 342.643Z" fill="#2B998A"/>
<path d="M293.828 328.545C290.737 333.188 286.935 337.618 282.441 341.927C280.079 344.191 277.537 346.403 274.802 348.571C266.002 355.553 255.337 362.055 242.277 368.288C242.469 367.582 242.612 366.865 242.822 366.187C243 366.264 252.106 362.067 262.594 355.163C273.393 348.055 285.669 338.094 292.084 328.169C292.54 327.463 293.259 327.028 293.744 327.224C294.127 327.379 294.336 327.78 293.828 328.545Z" fill="#F4F7FB"/>
<path d="M532.328 325.652C532.272 381.398 493.773 380.797 493.773 380.797C493.773 380.797 484.33 362.981 479.62 343.015C473.253 316.036 473.032 304.676 472.98 304.597C472.98 293.597 475.072 273.315 476.742 257.295C478.217 243.145 488.477 233.989 501.713 236.294L502.283 236.394C504.133 236.717 505.904 237.265 507.564 238.007C508.034 238.218 508.499 238.446 508.951 238.688C514.756 241.786 519.013 247.371 520.324 254.063C524.651 276.181 532.346 308.306 532.328 325.652Z" fill="#3370CB"/>
<path d="M516.201 335.504C515.888 338.283 514.749 341.281 512.82 344.42C512.699 344.616 512.488 344.726 512.272 344.726C512.157 344.726 512.041 344.695 511.936 344.631C511.633 344.443 511.54 344.048 511.725 343.747C513.555 340.77 514.631 337.949 514.924 335.36C517.447 313.048 509.001 248.678 507.562 238.007C508.033 238.217 508.498 238.446 508.95 238.688C510.674 251.579 518.681 313.58 516.201 335.504Z" fill="#6BA4FB"/>
<path d="M503.549 362.212C497.176 362.212 491.992 357.028 491.992 350.658C491.992 344.287 497.176 339.104 503.549 339.104C509.921 339.104 515.105 344.287 515.105 350.658C515.105 357.028 509.921 362.212 503.549 362.212ZM503.549 340.388C497.885 340.388 493.277 344.995 493.277 350.658C493.277 356.32 497.885 360.927 503.549 360.927C509.212 360.927 513.82 356.32 513.82 350.658C513.82 344.995 509.212 340.388 503.549 340.388Z" fill="#6BA4FB"/>
<path d="M508.845 232.441C509.393 235.959 506.775 237.675 506.775 237.675C506.775 237.675 502.177 237.557 495.019 238.328C488.786 239 484.235 240.763 484.235 240.763C484.235 240.763 481.717 239.94 481.192 236.678C480.486 232.291 486.164 227.777 493.8 226.607C501.436 225.437 508.162 228.051 508.845 232.441Z" fill="#6BA4FB"/>
<path d="M506.312 231.441L482.046 234.079C481.095 234.182 480.098 234.233 479.081 234.2L477.064 234.03C471.007 233.175 464.702 229.015 462.497 216.487C461.297 209.764 462.811 208.667 468.047 214.845C469.884 217.211 471.979 218.187 473.934 218.316C474.484 218.352 475.023 218.321 475.543 218.236H475.545C477.418 217.928 479.029 216.905 479.972 215.737C481.201 214.08 481.663 211.331 480.543 209.006C480.35 208.597 480.103 208.202 479.805 207.829C479.024 206.845 477.873 206.013 476.277 205.474C473.235 204.577 468.995 206.553 465.714 207.96C460.475 209.741 463.25 204.487 466.372 201.964C471.426 197.882 480.376 194.974 486.882 196.179C487.239 196.243 487.591 196.32 487.933 196.413C487.722 196.218 487.465 195.999 487.17 195.766C483.814 193.073 475.476 188 472.359 186.129C469.507 184.339 467.793 180.729 470.833 180.049C477.436 178.577 489.261 184.544 494.025 188.583C494.028 188.583 494.028 188.583 494.028 188.585C494.341 188.85 494.619 189.104 494.868 189.348C494.806 188.93 494.652 188.151 494.439 187.136V187.134C493.467 182.535 491.276 173.128 490.978 170.829C490.53 167.389 491.283 164.725 494.03 166.415C497.89 168.784 501.808 180.162 503.316 184.955C503.73 186.273 503.964 187.093 503.964 187.093C503.964 187.093 504.103 186.235 504.313 184.95V184.948C504.876 181.498 505.963 174.96 506.333 173.516C506.929 171.194 508.897 169.472 510.938 174.525C511.608 176.182 512.189 183.101 512.687 191.583C512.723 192.182 512.757 192.786 512.793 193.4C513.337 203.131 513.779 214.509 514.126 222.336C514.332 226.955 510.912 230.94 506.312 231.441Z" fill="#3370CB"/>
<path d="M488.711 199.714C488.536 201.217 487.914 202.828 486.863 204.402C485.363 206.648 482.808 208.949 480.542 209.006C480.349 208.597 480.103 208.202 479.805 207.829C479.928 207.739 480.082 207.696 480.244 207.714C481.765 207.881 484.15 206.149 485.794 203.691C487.526 201.096 487.958 198.453 486.948 196.618C486.871 196.48 486.85 196.323 486.881 196.179C487.238 196.243 487.59 196.32 487.932 196.413C487.721 196.218 487.464 195.999 487.169 195.766C487.179 195.758 487.189 195.75 487.2 195.745C487.511 195.575 487.901 195.688 488.073 195.999C488.454 196.693 488.675 197.469 488.744 198.296C488.78 198.753 488.77 199.229 488.711 199.714Z" fill="#6BA4FB"/>
<path d="M481.337 230.362C481.118 231.566 480.525 232.987 479.081 234.2L477.063 234.03C478.762 233.108 479.772 231.803 480.072 230.136C480.807 226.056 477.159 220.818 474.219 218.86C474.031 218.735 473.929 218.526 473.934 218.316C474.484 218.352 475.023 218.321 475.542 218.236H475.545C478.595 220.62 482.141 225.894 481.337 230.362Z" fill="#6BA4FB"/>
<path d="M490.465 200.041C489.447 200.041 488.503 199.747 487.736 199.158C487.454 198.942 487.401 198.539 487.617 198.257C487.833 197.976 488.237 197.923 488.518 198.139C489.897 199.198 491.818 198.737 493.156 197.954C495.727 196.447 496.375 194.099 496.15 192.547C496.099 192.196 496.342 191.87 496.693 191.819C497.044 191.768 497.37 192.011 497.421 192.362C497.794 194.927 496.375 197.556 493.806 199.062C492.693 199.714 491.538 200.041 490.465 200.041Z" fill="#6BA4FB"/>
<path d="M504.72 192.534V192.565C504.723 192.608 504.72 192.649 504.713 192.691C504.664 192.986 504.415 193.22 504.104 193.23H504.078C503.826 193.23 503.608 193.086 503.505 192.873C503.466 192.793 503.443 192.703 503.438 192.611L503.436 192.565L503.176 185.382C503.171 185.22 503.225 185.071 503.317 184.955C503.731 186.273 503.965 187.093 503.965 187.093C503.965 187.093 504.104 186.235 504.314 184.95C504.399 185.056 504.453 185.189 504.458 185.333L504.718 192.521C504.72 192.526 504.72 192.529 504.72 192.534Z" fill="#6BA4FB"/>
<path d="M512.792 193.4C511.51 195.324 509.613 196.007 507.992 196.007C507.645 196.007 507.308 195.976 506.995 195.917C505.859 195.709 504.903 195.193 504.269 194.491C503.876 194.057 503.606 193.554 503.49 193.009C503.464 192.888 503.446 192.765 503.436 192.639C503.434 192.621 503.434 192.606 503.434 192.588V192.565C503.446 192.244 503.698 191.974 504.025 191.948C504.371 191.917 504.675 192.169 504.716 192.511C504.716 192.518 504.718 192.526 504.718 192.534C504.798 193.525 505.831 194.399 507.226 194.653C508.84 194.951 510.978 194.394 512.144 191.946C512.25 191.727 512.46 191.596 512.686 191.583C512.722 192.182 512.756 192.786 512.792 193.4Z" fill="#6BA4FB"/>
<path d="M497.478 193.333C497.391 193.454 497.257 193.543 497.1 193.577C497.054 193.587 497.008 193.592 496.962 193.592C496.669 193.592 496.407 193.394 496.337 193.099V193.096C496.337 193.094 496.337 193.091 496.335 193.089C496.283 192.852 496.219 192.619 496.147 192.393C495.615 190.707 494.59 189.284 494.027 188.585C494.341 188.85 494.618 189.104 494.868 189.348C494.806 188.93 494.652 188.151 494.438 187.136C494.482 187.162 494.523 187.198 494.562 187.237C494.659 187.339 496.918 189.752 497.589 192.806C497.589 192.811 497.591 192.814 497.591 192.819C497.63 193.004 497.584 193.189 497.478 193.333Z" fill="#6BA4FB"/>
<path d="M500.508 196.113C498.117 196.113 496.699 194.655 496.337 193.096C496.257 192.75 496.472 192.405 496.818 192.325C497.163 192.245 497.509 192.46 497.589 192.806C497.959 194.401 499.593 194.956 501.048 194.799C502.216 194.673 503.48 194.046 503.494 192.969C503.498 192.614 503.785 192.328 504.144 192.335C504.499 192.339 504.783 192.631 504.778 192.985C504.758 194.578 503.281 195.849 501.187 196.076C500.952 196.101 500.726 196.113 500.508 196.113Z" fill="#6BA4FB"/>
<path d="M494.262 226.959C493.998 226.959 493.75 226.795 493.657 226.531C492.541 223.393 493.001 218.307 494.829 213.575C496.907 208.196 500.383 204.176 504.365 202.547C504.693 202.413 505.068 202.57 505.203 202.898C505.337 203.227 505.18 203.602 504.851 203.736C501.195 205.232 497.979 208.987 496.028 214.038C494.304 218.5 493.848 223.236 494.867 226.102C494.986 226.436 494.811 226.803 494.477 226.922C494.406 226.947 494.333 226.959 494.262 226.959Z" fill="#6BA4FB"/>
</g>
<g clip-path="url(#clip1_5169_180665)">
<path d="M194.208 431.161L343.642 455.894C344.569 456.048 345.412 455.451 345.487 454.589L355.668 336.755C355.737 335.957 355.12 335.223 354.263 335.081L218.908 312.678C218.051 312.537 217.252 313.037 217.088 313.818L192.828 429.322C192.65 430.167 193.281 431.008 194.208 431.161Z" fill="#E28B3A"/>
<path d="M192.825 429.322C192.648 430.167 193.279 431.008 194.206 431.161L341.897 455.606C320.447 451.783 205.605 427.187 217.279 313.375C217.285 313.317 217.196 313.3 217.184 313.356L192.825 429.322Z" fill="#84BEB6"/>
<path d="M302.525 337.53C303.161 337.632 303.772 337.357 303.922 336.902C305.256 332.534 306.176 327.976 306.659 323.256C307.742 312.419 306.042 303.75 301.461 297.855C298.349 293.846 293.965 291.266 288.472 290.237L288.427 290.23L288.384 290.223C282.84 289.484 277.825 290.559 273.532 293.382C267.217 297.534 262.693 305.206 260.077 315.797C258.947 320.413 258.286 325.013 258.079 329.561C258.068 330.062 258.6 330.527 259.267 330.602C259.935 330.678 260.488 330.334 260.502 329.835C260.509 329.596 261.408 304.207 275.3 295.157C278.99 292.756 283.267 291.832 287.977 292.436C288.023 292.442 288.07 292.45 288.116 292.459C292.775 293.353 296.511 295.56 299.193 298.983C309.295 311.875 301.612 336.178 301.539 336.406C301.385 336.884 301.792 337.381 302.449 337.517C302.475 337.522 302.5 337.527 302.525 337.53Z" fill="#9B3C82"/>
</g>
<g clip-path="url(#clip2_5169_180665)">
<path d="M306.146 442.379C306.143 442.379 306.143 442.379 306.14 442.376C304.577 441.508 302.83 440.578 300.87 439.59C300.897 439.595 300.926 439.604 300.954 439.609H300.956C316.101 443.105 325.024 438.96 307.435 433.592C288.306 427.754 279.315 419.04 286.934 419.636C297.539 420.465 300.579 417.223 278.888 407.759C265.258 401.812 250.333 393.679 250.333 393.679C250.333 393.679 223.542 378.439 209.307 369.353C204.253 366.127 198.301 363.861 192.977 362.478C160.381 354.01 134.633 361.77 127.017 367.95C125.108 382.142 129.852 395.536 139.714 407.15C172.679 445.971 301.624 468.04 301.704 458.901C301.709 458.314 301.11 457.911 300.06 457.146C300.06 457.145 300.06 457.146 300.06 457.145C307.932 458.439 314.368 456.621 314.597 454.613C314.667 454.025 314.202 453.42 313.082 452.874C313.082 452.874 313.082 452.874 313.082 452.874C318.848 453.195 320.037 450.115 306.146 442.379Z" fill="#F4ADA2"/>
<path d="M306.141 442.376C304.679 442.046 303.231 441.676 301.837 441.287C297.317 440.018 292.875 438.486 288.535 436.699C288.193 436.548 288.033 436.15 288.179 435.803C288.325 435.456 288.725 435.29 289.075 435.436C289.142 435.467 294.348 437.68 300.955 439.609C300.927 439.604 300.898 439.595 300.87 439.59C302.831 440.578 304.578 441.508 306.141 442.376Z" fill="#9B3C82"/>
<path d="M314.595 454.613C312.504 454.176 310.151 453.58 307.701 452.899C302.968 451.58 297.866 449.933 293.548 448.446C289.257 446.965 285.744 445.645 284.138 444.961C283.807 444.819 283.611 444.45 283.723 444.108C283.853 443.717 284.281 443.531 284.648 443.687C286.695 444.564 291.991 446.524 298.02 448.507C303.01 450.146 308.505 451.804 313.08 452.874C314.2 453.42 314.665 454.025 314.595 454.613Z" fill="#9B3C82"/>
<path d="M301.625 458.548C299.954 458.423 298.302 457.998 296.639 457.528C290.605 455.848 284.735 453.565 281.216 452.062C280.868 451.913 280.708 451.511 280.856 451.163C281.005 450.815 281.406 450.652 281.754 450.801C285.845 452.545 293.163 455.607 300.095 457.17C301.123 457.924 301.382 458.133 301.625 458.548Z" fill="#9B3C82"/>
<path d="M209.307 369.353C208.396 368.925 204.91 367.391 203.003 366.549C199.121 364.849 195.099 363.353 191.051 362.102C190.627 361.971 190.39 361.521 190.52 361.097C190.651 360.674 191.101 360.434 191.524 360.566C195.632 361.834 199.711 363.352 203.649 365.077C204.905 365.628 209.512 367.897 210.752 368.495L209.307 369.353Z" fill="#9B3C82"/>
</g>
<g clip-path="url(#clip3_5169_180665)">
<path d="M341.94 190.932L311.509 200.514L307.696 201.714L307.694 201.717L307.372 201.817C307.372 201.817 306.567 202.409 305.334 203.379C303.115 205.126 299.508 208.099 296.726 211.048C292.449 215.581 289.2 220.591 289.2 220.591L286.332 213.297C286.332 213.297 297.31 197.486 317.378 186.857C330.111 180.115 337.341 180.274 337.341 180.274L339.098 184.344L339.357 184.946L339.626 185.57L341.94 190.932Z" fill="#39841F"/>
<path d="M349.507 190.876C331.342 199.272 314.917 202.039 308.223 202.983C307.091 203.144 306.238 203.252 305.703 203.326C305.555 203.345 305.431 203.363 305.333 203.379C305.304 203.384 305.278 203.387 305.254 203.392C310.69 198.728 317.783 194.212 324.768 190.707C329.927 188.12 335.025 186.083 339.356 184.946C341.311 184.431 343.111 184.101 344.686 183.987C344.876 183.96 345.064 183.937 345.248 183.913C357.809 182.309 358.741 186.608 349.507 190.876Z" fill="#39841F"/>
<path d="M345.249 183.913C345.151 184.069 344.99 184.185 344.795 184.219C343.272 184.476 341.528 184.936 339.626 185.57C331.403 188.302 320.251 194.23 311.509 200.514C310.369 201.331 309.268 202.158 308.223 202.983C307.091 203.144 306.239 203.252 305.703 203.326C306.344 202.79 307.007 202.253 307.693 201.717L307.695 201.714C312.704 197.787 318.768 193.921 324.769 190.707C329.812 188.006 334.812 185.765 339.098 184.344L339.356 184.946C341.312 184.431 343.111 184.101 344.687 183.987C344.877 183.96 345.064 183.937 345.249 183.913Z" fill="#4DB02A"/>
</g>
<g clip-path="url(#clip4_5169_180665)">
<path d="M328.557 338.362C327.05 338.11 325.661 339.159 325.519 340.661C324.994 346.213 323.58 359.376 320.868 373.274C317.741 389.301 318.522 402.244 319.02 407.184C319.146 408.436 320.144 409.441 321.406 409.583L359.203 413.855C360.918 414.049 362.337 412.598 362.082 410.905C361.455 406.743 360.564 399.287 360.849 392.001C361.26 381.521 363.525 355.014 364.238 346.823C364.358 345.444 363.736 343.22 362.353 342.989L328.557 338.362Z" fill="white"/>
<path d="M321.162 410.184C319.696 409.939 318.545 408.73 318.396 407.247C317.905 402.375 317.102 389.3 320.253 373.154C322.99 359.122 324.41 345.715 324.894 340.602C324.979 339.708 325.417 338.914 326.128 338.367C326.838 337.821 327.758 337.593 328.652 337.74L362.44 342.366L362.44 342.366C363.298 342.509 364.002 343.172 364.441 344.235C364.78 345.053 364.938 346.041 364.866 346.878C364.175 354.817 361.89 381.537 361.479 392.026C361.191 399.37 362.124 406.948 362.705 410.811C362.855 411.807 362.542 412.791 361.847 413.512C361.143 414.243 360.154 414.596 359.134 414.48L321.336 410.209C321.278 410.202 321.219 410.194 321.162 410.184ZM328.454 338.983C327.891 338.889 327.338 339.025 326.895 339.365C326.464 339.696 326.198 340.178 326.147 340.72C325.661 345.851 324.236 359.307 321.487 373.395C318.369 389.376 319.162 402.304 319.647 407.121C319.744 408.077 320.512 408.848 321.478 408.958L359.275 413.23C359.904 413.301 360.511 413.086 360.941 412.639C361.363 412.202 361.552 411.604 361.461 410.999C360.873 407.091 359.93 399.425 360.222 391.977C360.634 381.46 362.921 354.715 363.612 346.769C363.713 345.605 363.186 343.766 362.251 343.61L328.473 338.986C328.466 338.985 328.467 338.984 328.454 338.983Z" fill="#3370CB"/>
<path d="M329.371 355.097L329.84 351.861C329.931 351.236 330.517 350.812 331.149 350.913L357.258 355.082C357.89 355.182 358.329 355.771 358.238 356.396L357.769 359.631C357.678 360.256 357.092 360.681 356.46 360.58L330.351 356.411C329.719 356.31 329.28 355.722 329.371 355.097Z" fill="#3370CB"/>
<path d="M349.731 369.353C349.73 369.353 349.73 369.353 349.73 369.353L330.358 366.093C330.015 366.036 329.784 365.711 329.842 365.369C329.899 365.026 330.223 364.795 330.566 364.852L330.566 364.852L349.939 368.112C350.282 368.169 350.513 368.494 350.455 368.836C350.397 369.179 350.073 369.41 349.731 369.353Z" fill="#3370CB"/>
<path d="M329.54 372.507C329.199 372.449 328.967 372.127 329.023 371.784C329.08 371.441 329.403 371.209 329.746 371.265L353.936 375.232L353.938 375.232C354.28 375.29 354.511 375.613 354.455 375.955C354.399 376.298 354.075 376.53 353.732 376.474L329.542 372.507C329.542 372.507 329.541 372.507 329.54 372.507Z" fill="#3370CB"/>
<path d="M329.099 379.031C328.756 378.973 328.525 378.65 328.582 378.307C328.639 377.964 328.963 377.732 329.306 377.789L353.842 381.861L353.843 381.861C354.185 381.918 354.416 382.242 354.359 382.584C354.303 382.927 353.979 383.159 353.636 383.102L329.099 379.031C329.099 379.031 329.099 379.031 329.099 379.031Z" fill="#3370CB"/>
<path d="M328.486 386.43C328.148 386.373 327.917 386.056 327.968 385.716C328.02 385.372 328.34 385.135 328.684 385.187L348.514 388.165C348.864 388.213 349.095 388.537 349.043 388.881C348.991 389.225 348.671 389.461 348.327 389.41L328.497 386.431C328.493 386.431 328.49 386.43 328.486 386.43Z" fill="#3370CB"/>
<path d="M349.234 407.141C348.481 407.015 347.792 406.607 347.323 405.98L342.944 400.136C342.486 399.524 342.61 398.656 343.222 398.198C343.833 397.739 344.701 397.864 345.159 398.475L349.538 404.32C349.616 404.424 349.736 404.416 349.771 404.411C349.788 404.409 349.843 404.399 349.853 404.373L353.391 395.056C353.662 394.341 354.462 393.982 355.176 394.253C355.891 394.525 356.25 395.324 355.979 396.039L352.44 405.356C352.07 406.332 351.216 407.003 350.158 407.153C349.846 407.196 349.535 407.191 349.234 407.141Z" fill="#39841F"/>
<path d="M350.331 346.575C350.33 346.575 350.33 346.575 350.329 346.575L341.743 345.118C341.401 345.059 341.17 344.735 341.228 344.392C341.286 344.05 341.611 343.819 341.953 343.877L341.954 343.877L350.54 345.334C350.883 345.392 351.113 345.717 351.055 346.06C350.997 346.402 350.673 346.632 350.331 346.575Z" fill="#9B3C82"/>
</g>
<g clip-path="url(#clip5_5169_180665)">
<path d="M179.511 420.499L316.516 485.088C317.366 485.489 318.34 485.145 318.647 484.336L360.612 373.759C360.896 373.011 360.503 372.136 359.717 371.765L235.62 313.261C234.835 312.89 233.929 313.153 233.558 313.86L178.686 418.352C178.284 419.117 178.661 420.098 179.511 420.499Z" fill="#E28B3A"/>
<path d="M178.687 418.352C178.286 419.117 178.663 420.098 179.513 420.499L314.919 484.335C295.328 474.802 191.564 419.788 233.867 313.486C233.889 313.433 233.807 313.392 233.78 313.443L178.687 418.352Z" fill="#84BEB6"/>
</g>
<defs>
<clipPath id="clip0_5169_180665">
<rect width="406.258" height="316.378" fill="white" transform="translate(126.09 165.893)"/>
</clipPath>
<clipPath id="clip1_5169_180665">
<rect width="165.379" height="154.594" fill="white" transform="translate(217.445 278.633) rotate(9.27901)"/>
</clipPath>
<clipPath id="clip2_5169_180665">
<rect width="190.546" height="102.206" fill="white" transform="translate(126.602 358.75)"/>
</clipPath>
<clipPath id="clip3_5169_180665">
<rect width="69.336" height="40.3176" fill="white" transform="translate(286.332 180.274)"/>
</clipPath>
<clipPath id="clip4_5169_180665">
<rect width="49.0488" height="73.7015" fill="white" transform="translate(325.621 336.204) rotate(9.49931)"/>
</clipPath>
<clipPath id="clip5_5169_180665">
<rect width="18.2327" height="5.13598" fill="white" transform="matrix(0.905402 0.424554 -0.424559 0.9054 206.992 362.824)"/>
</clipPath>
</defs>
</svg>
