<svg width="34" height="34" viewBox="0 0 34 34" fill="none" xmlns="http://www.w3.org/2000/svg">
<path d="M0 5.5C0 4.04131 0.579463 2.64236 1.61091 1.61091C2.64236 0.579463 4.04131 0 5.5 0H26.5C27.9587 0 29.3576 0.579463 30.3891 1.61091C31.4205 2.64236 32 4.04131 32 5.5V16.514C31.3831 16.0046 30.7124 15.564 30 15.2V12H13.414L16.708 15.292C16.8958 15.4798 17.0013 15.7344 17.0013 16C17.0013 16.2656 16.8958 16.5202 16.708 16.708C16.5202 16.8958 16.2656 17.0013 16 17.0013C15.7344 17.0013 15.4798 16.8958 15.292 16.708L12 13.414V22H14.414C14.2289 22.6538 14.1051 23.3233 14.044 24H5.5C4.04131 24 2.64236 23.4205 1.61091 22.3891C0.579463 21.3576 0 19.9587 0 18.5V5.5ZM5.5 2C4.57174 2 3.6815 2.36875 3.02513 3.02513C2.36875 3.6815 2 4.57174 2 5.5V10H4.536C4.09581 9.23744 3.91952 8.35095 4.03448 7.478C4.14944 6.60505 4.54921 5.79441 5.17181 5.17181C5.79441 4.54921 6.60505 4.14944 7.478 4.03448C8.35095 3.91952 9.23744 4.09581 10 4.536V2H5.5ZM12 2V4.536C12.7626 4.09581 13.649 3.91952 14.522 4.03448C15.395 4.14944 16.2056 4.54921 16.8282 5.17181C17.4508 5.79441 17.8506 6.60505 17.9655 7.478C18.0805 8.35095 17.9042 9.23744 17.464 10H30V5.5C30 4.57174 29.6313 3.6815 28.9749 3.02513C28.3185 2.36875 27.4283 2 26.5 2H12ZM12 10H14C14.3956 10 14.7822 9.8827 15.1111 9.66294C15.44 9.44318 15.6964 9.13082 15.8478 8.76537C15.9991 8.39991 16.0387 7.99778 15.9616 7.60982C15.8844 7.22186 15.6939 6.86549 15.4142 6.58579C15.1345 6.30608 14.7781 6.1156 14.3902 6.03843C14.0022 5.96126 13.6001 6.00087 13.2346 6.15224C12.8692 6.30362 12.5568 6.55996 12.3371 6.88886C12.1173 7.21776 12 7.60444 12 8V10ZM8 6C7.46957 6 6.96086 6.21071 6.58579 6.58579C6.21071 6.96086 6 7.46957 6 8C6 8.53043 6.21071 9.03914 6.58579 9.41421C6.96086 9.78929 7.46957 10 8 10H10V8C10 7.46957 9.78929 6.96086 9.41421 6.58579C9.03914 6.21071 8.53043 6 8 6ZM2 18.5C2 20.432 3.568 22 5.5 22H10V13.414L6.708 16.708C6.52023 16.8958 6.26555 17.0013 6 17.0013C5.73445 17.0013 5.47977 16.8958 5.292 16.708C5.10423 16.5202 4.99874 16.2656 4.99874 16C4.99874 15.7344 5.10423 15.4798 5.292 15.292L8.586 12H2V18.5ZM34 25C34 27.3869 33.0518 29.6761 31.364 31.364C29.6761 33.0518 27.3869 34 25 34C22.6131 34 20.3239 33.0518 18.636 31.364C16.9482 29.6761 16 27.3869 16 25C16 22.6131 16.9482 20.3239 18.636 18.636C20.3239 16.9482 22.6131 16 25 16C27.3869 16 29.6761 16.9482 31.364 18.636C33.0518 20.3239 34 22.6131 34 25ZM26 21C26 20.7348 25.8946 20.4804 25.7071 20.2929C25.5196 20.1054 25.2652 20 25 20C24.7348 20 24.4804 20.1054 24.2929 20.2929C24.1054 20.4804 24 20.7348 24 21V24H21C20.7348 24 20.4804 24.1054 20.2929 24.2929C20.1054 24.4804 20 24.7348 20 25C20 25.2652 20.1054 25.5196 20.2929 25.7071C20.4804 25.8946 20.7348 26 21 26H24V29C24 29.2652 24.1054 29.5196 24.2929 29.7071C24.4804 29.8946 24.7348 30 25 30C25.2652 30 25.5196 29.8946 25.7071 29.7071C25.8946 29.5196 26 29.2652 26 29V26H29C29.2652 26 29.5196 25.8946 29.7071 25.7071C29.8946 25.5196 30 25.2652 30 25C30 24.7348 29.8946 24.4804 29.7071 24.2929C29.5196 24.1054 29.2652 24 29 24H26V21Z" fill="#2780D2"/>
</svg>
