<svg width="22" height="20" viewBox="0 0 22 20" fill="none" xmlns="http://www.w3.org/2000/svg">
<path d="M20.6328 4.64714C20.3187 3.91972 19.8657 3.26055 19.2992 2.70651C18.7323 2.15082 18.064 1.70922 17.3305 1.40573C16.5699 1.08978 15.7541 0.928052 14.9305 0.929948C13.775 0.929948 12.6477 1.24635 11.668 1.84401C11.4336 1.98698 11.2109 2.14401 11 2.3151C10.7891 2.14401 10.5664 1.98698 10.332 1.84401C9.35234 1.24635 8.225 0.929948 7.06953 0.929948C6.2375 0.929948 5.43125 1.08932 4.66953 1.40573C3.93359 1.71042 3.27031 2.1487 2.70078 2.70651C2.13359 3.25992 1.6805 3.91925 1.36719 4.64714C1.04141 5.40417 0.875 6.20807 0.875 7.03542C0.875 7.81589 1.03438 8.62917 1.35078 9.45651C1.61563 10.1479 1.99531 10.8651 2.48047 11.5893C3.24922 12.7354 4.30625 13.9307 5.61875 15.1424C7.79375 17.151 9.94766 18.5385 10.0391 18.5948L10.5945 18.951C10.8406 19.1081 11.157 19.1081 11.4031 18.951L11.9586 18.5948C12.05 18.5362 14.2016 17.151 16.3789 15.1424C17.6914 13.9307 18.7484 12.7354 19.5172 11.5893C20.0023 10.8651 20.3844 10.1479 20.6469 9.45651C20.9633 8.62917 21.1227 7.81589 21.1227 7.03542C21.125 6.20807 20.9586 5.40417 20.6328 4.64714Z" fill="#2780D2"/>
</svg>
