<svg width="24" height="24" viewBox="0 0 24 24" fill="none" xmlns="http://www.w3.org/2000/svg">
<path d="M13.5604 2.97636C12.559 2.57575 11.4418 2.57575 10.4404 2.97636L3.53199 5.74236C3.19828 5.87582 2.91217 6.10613 2.71049 6.40362C2.50881 6.70111 2.40081 7.05216 2.40039 7.41156V16.5868C2.40033 16.9466 2.50811 17.2982 2.70982 17.5961C2.91152 17.8941 3.1979 18.1248 3.53199 18.2584L10.4404 21.022C10.965 21.232 11.5266 21.3341 12.0916 21.322C11.7995 20.9275 11.5524 20.5017 11.3548 20.0524C11.1951 20.0172 11.0386 19.9691 10.8868 19.9084L3.97719 17.1448C3.86578 17.1001 3.77031 17.0231 3.70314 16.9236C3.63597 16.8241 3.60018 16.7068 3.60039 16.5868V7.48596L11.4004 10.606V14.6464C11.7011 13.993 12.1065 13.3932 12.6004 12.8704V10.6048L20.4004 7.48476V11.518C20.83 11.7376 21.232 12.0028 21.6004 12.3076V7.41156C21.6005 7.05175 21.4927 6.70017 21.291 6.40221C21.0893 6.10425 20.8029 5.87358 20.4688 5.73996L13.5604 2.97636ZM10.8868 4.09236C11.602 3.80626 12.3999 3.80626 13.1152 4.09236L19.3852 6.60036L16.6504 7.69236L9.26559 4.74036L10.8856 4.09236H10.8868ZM7.65039 5.38476L15.0352 8.33796L12.0004 9.55356L4.61559 6.59916L7.65039 5.38596V5.38476ZM17.4004 22.7992C18.8326 22.7992 20.2061 22.2302 21.2188 21.2175C22.2315 20.2048 22.8004 18.8313 22.8004 17.3992C22.8004 15.967 22.2315 14.5935 21.2188 13.5808C20.2061 12.5681 18.8326 11.9992 17.4004 11.9992C15.9682 11.9992 14.5947 12.5681 13.582 13.5808C12.5693 14.5935 12.0004 15.967 12.0004 17.3992C12.0004 18.8313 12.5693 20.2048 13.582 21.2175C14.5947 22.2302 15.9682 22.7992 17.4004 22.7992ZM17.8216 14.5732L17.8252 14.5756L20.2252 16.9756C20.3377 17.0882 20.4008 17.241 20.4007 17.4002C20.4006 17.5594 20.3373 17.7121 20.2246 17.8246C20.1688 17.8803 20.1026 17.9244 20.0297 17.9546C19.9569 17.9847 19.8788 18.0002 19.8 18.0001C19.6407 18 19.4881 17.9366 19.3756 17.824L18.0004 16.4488V19.8004C18.0004 19.9595 17.9372 20.1121 17.8247 20.2246C17.7121 20.3372 17.5595 20.4004 17.4004 20.4004C17.2413 20.4004 17.0886 20.3372 16.9761 20.2246C16.8636 20.1121 16.8004 19.9595 16.8004 19.8004V16.4488L15.4252 17.824C15.3695 17.8797 15.3033 17.924 15.2305 17.9542C15.1577 17.9845 15.0797 18 15.0008 18.0001C14.922 18.0002 14.8439 17.9847 14.771 17.9546C14.6982 17.9244 14.632 17.8803 14.5762 17.8246C14.5204 17.7689 14.4761 17.7027 14.4459 17.6299C14.4157 17.5571 14.4001 17.479 14.4001 17.4002C14.4 17.3214 14.4155 17.2433 14.4456 17.1704C14.4757 17.0976 14.5199 17.0313 14.5756 16.9756L16.9756 14.5756C17.0874 14.464 17.2388 14.401 17.3968 14.4004H17.404C17.5604 14.4011 17.7104 14.4631 17.8216 14.5732Z" fill="#4DB02A"/>
</svg>
