<svg width="24" height="24" viewBox="0 0 24 24" fill="none" xmlns="http://www.w3.org/2000/svg">
<path d="M13.5604 2.97636C12.559 2.57575 11.4418 2.57575 10.4404 2.97636L3.53199 5.74236C3.19828 5.87582 2.91217 6.10613 2.71049 6.40362C2.50881 6.70111 2.40081 7.05216 2.40039 7.41156V16.5868C2.40033 16.9466 2.50811 17.2982 2.70982 17.5961C2.91152 17.8941 3.1979 18.1248 3.53199 18.2584L10.4404 21.022C10.965 21.232 11.5266 21.3341 12.0916 21.322C11.7995 20.9275 11.5524 20.5017 11.3548 20.0524C11.1951 20.0172 11.0386 19.9691 10.8868 19.9084L3.97719 17.1448C3.86578 17.1001 3.77031 17.0231 3.70314 16.9236C3.63597 16.8241 3.60018 16.7068 3.60039 16.5868V7.48596L11.4004 10.606V14.6464C11.7011 13.993 12.1065 13.3932 12.6004 12.8704V10.6048L20.4004 7.48476V11.518C20.83 11.7376 21.232 12.0028 21.6004 12.3076V7.41156C21.6005 7.05175 21.4927 6.70017 21.291 6.40221C21.0893 6.10425 20.8029 5.87358 20.4688 5.73996L13.5604 2.97636ZM10.8868 4.09236C11.602 3.80626 12.3999 3.80626 13.1152 4.09236L19.3852 6.60036L16.6504 7.69236L9.26559 4.74036L10.8856 4.09236H10.8868ZM7.65039 5.38476L15.0352 8.33796L12.0004 9.55356L4.61559 6.59916L7.65039 5.38596V5.38476Z" fill="#E28B3A"/>
<path d="M17.5 23.0004C15.9783 23.0004 14.6814 22.4643 13.6093 21.3922C12.5364 20.3193 12 19.022 12 17.5004C12 15.9787 12.5364 14.6814 13.6093 13.6086C14.6814 12.5364 15.9783 12.0004 17.5 12.0004C19.0217 12.0004 20.3189 12.5364 21.3918 13.6086C22.4639 14.6814 23 15.9787 23 17.5004C23 19.022 22.4639 20.3193 21.3918 21.3922C20.3189 22.4643 19.0217 23.0004 17.5 23.0004ZM18.93 19.7004C19.1426 19.913 19.4874 19.913 19.7 19.7004C19.9126 19.4877 19.9126 19.143 19.7 18.9304L18.05 17.2804V14.7504C18.05 14.4466 17.8038 14.2004 17.5 14.2004C17.1962 14.2004 16.95 14.4466 16.95 14.7504V17.7204L18.93 19.7004Z" fill="#E28B3A"/>
</svg>
