<svg width="34" height="34" viewBox="0 0 34 34" fill="none" xmlns="http://www.w3.org/2000/svg">
<path d="M20.3334 27.0001C20.7754 27.0001 21.1993 26.8245 21.5119 26.5119C21.8245 26.1994 22.0001 25.7754 22.0001 25.3334V22.0001C22.0001 21.5581 21.8245 21.1341 21.5119 20.8216C21.1993 20.509 20.7754 20.3334 20.3334 20.3334C19.8914 20.3334 19.4674 20.509 19.1549 20.8216C18.8423 21.1341 18.6667 21.5581 18.6667 22.0001V25.3334C18.6667 25.7754 18.8423 26.1994 19.1549 26.5119C19.4674 26.8245 19.8914 27.0001 20.3334 27.0001ZM13.6667 27.0001C14.1088 27.0001 14.5327 26.8245 14.8452 26.5119C15.1578 26.1994 15.3334 25.7754 15.3334 25.3334V22.0001C15.3334 21.5581 15.1578 21.1341 14.8452 20.8216C14.5327 20.509 14.1088 20.3334 13.6667 20.3334C13.2247 20.3334 12.8008 20.509 12.4882 20.8216C12.1757 21.1341 12.0001 21.5581 12.0001 22.0001V25.3334C12.0001 25.7754 12.1757 26.1994 12.4882 26.5119C12.8008 26.8245 13.2247 27.0001 13.6667 27.0001ZM28.6667 7.00009H26.3667L23.4834 1.25009C23.3953 1.03851 23.2645 0.847376 23.0992 0.688633C22.9339 0.529889 22.7376 0.406947 22.5226 0.327489C22.3076 0.248031 22.0786 0.213765 21.8498 0.226832C21.621 0.239899 21.3973 0.300019 21.1928 0.403433C20.9882 0.506848 20.8072 0.651335 20.6611 0.827866C20.5149 1.0044 20.4067 1.20918 20.3433 1.42941C20.2798 1.64964 20.2625 1.88059 20.2923 2.10783C20.3222 2.33507 20.3986 2.55371 20.5167 2.75009L22.6334 7.00009H11.3667L13.4834 2.75009C13.6452 2.3616 13.654 1.92629 13.5081 1.53156C13.3622 1.13684 13.0724 0.811914 12.6968 0.622029C12.3213 0.432143 11.8878 0.391355 11.4834 0.507851C11.079 0.624347 10.7337 0.889504 10.5167 1.25009L7.63339 7.00009H5.3334C4.15538 7.018 3.02152 7.45133 2.13181 8.22364C1.2421 8.99595 0.653684 10.0576 0.470346 11.2214C0.287007 12.3852 0.520522 13.5764 1.1297 14.5848C1.73889 15.5933 2.68461 16.3542 3.80006 16.7334L5.0334 29.1668C5.15776 30.4044 5.73897 31.5512 6.66351 32.3833C7.58806 33.2154 8.78956 33.673 10.0334 33.6668H24.0001C25.2439 33.673 26.4454 33.2154 27.3699 32.3833C28.2945 31.5512 28.8757 30.4044 29.0001 29.1668L30.2334 16.7334C31.3513 16.3531 32.2985 15.5894 32.9072 14.5776C33.516 13.5657 33.747 12.3711 33.5593 11.2053C33.3717 10.0395 32.7775 8.97773 31.882 8.20804C30.9865 7.43836 29.8475 7.01044 28.6667 7.00009ZM25.6501 28.8334C25.6086 29.246 25.4149 29.6282 25.1067 29.9056C24.7985 30.183 24.398 30.3355 23.9834 30.3334H10.0167C9.60212 30.3355 9.20162 30.183 8.89343 29.9056C8.58525 29.6282 8.39152 29.246 8.35006 28.8334L7.16673 17.0001H26.8334L25.6501 28.8334ZM28.6667 13.6668H5.3334C4.89137 13.6668 4.46744 13.4912 4.15488 13.1786C3.84232 12.866 3.66673 12.4421 3.66673 12.0001C3.66673 11.5581 3.84232 11.1341 4.15488 10.8216C4.46744 10.509 4.89137 10.3334 5.3334 10.3334H28.6667C29.1088 10.3334 29.5327 10.509 29.8452 10.8216C30.1578 11.1341 30.3334 11.5581 30.3334 12.0001C30.3334 12.4421 30.1578 12.866 29.8452 13.1786C29.5327 13.4912 29.1088 13.6668 28.6667 13.6668Z" fill="#2780D2"/>
</svg>
