<svg width="128" height="107" viewBox="0 0 128 107" fill="none" xmlns="http://www.w3.org/2000/svg">
<path d="M122.85 54.9005C122.86 61.6344 121.531 68.3032 118.938 74.5182C116.346 80.7331 112.543 86.3699 107.75 91.1004C103.071 95.7603 97.5173 99.4493 91.4077 101.955C85.2981 104.461 78.7534 105.733 72.15 105.701C62.0985 105.72 52.267 102.758 43.8999 97.1878C35.5327 91.6179 29.006 83.691 25.1457 74.4103C21.2855 65.1295 20.2651 54.9122 22.214 45.0514C24.1628 35.1906 28.9931 26.1295 36.0936 19.015C43.1941 11.9005 52.2456 7.05233 62.1026 5.08408C71.9595 3.11584 82.1789 4.11589 91.4672 7.95786C100.756 11.7998 108.695 18.3112 114.282 26.6673C119.868 35.0235 122.85 44.8489 122.85 54.9005Z" fill="#F1F3F9" stroke="#D6DCE8" stroke-width="2" stroke-miterlimit="10"/>
<path d="M118.45 21.6002C119.261 21.6002 120.053 21.3598 120.727 20.9093C121.402 20.4588 121.927 19.8184 122.238 19.0692C122.548 18.3201 122.629 17.4959 122.471 16.7006C122.313 15.9053 121.922 15.1746 121.349 14.6012C120.775 14.0278 120.045 13.6374 119.25 13.4792C118.454 13.321 117.63 13.4022 116.881 13.7125C116.131 14.0229 115.491 14.5483 115.041 15.2226C114.59 15.8968 114.35 16.6895 114.35 17.5004C114.35 18.5878 114.782 19.6307 115.55 20.3996C116.319 21.1685 117.362 21.6002 118.45 21.6002Z" fill="#F1F3F9"/>
<path d="M124.45 5.59992C125.004 5.59992 125.546 5.43591 126.006 5.12824C126.466 4.82057 126.825 4.38328 127.037 3.87165C127.249 3.36002 127.305 2.79688 127.197 2.25373C127.089 1.71058 126.822 1.21172 126.43 0.820137C126.039 0.42855 125.54 0.161818 124.997 0.0537798C124.453 -0.0542588 123.891 0.00127825 123.379 0.213204C122.867 0.425129 122.43 0.783996 122.122 1.24445C121.815 1.70491 121.65 2.24633 121.65 2.80012C121.65 3.54272 121.945 4.25475 122.471 4.77985C122.996 5.30496 123.708 5.59992 124.45 5.59992Z" fill="#F1F3F9"/>
<path d="M23.05 21.5004C23.6038 21.5004 24.1451 21.3361 24.6056 21.0285C25.066 20.7208 25.4249 20.2835 25.6368 19.7719C25.8488 19.2602 25.9042 18.6973 25.7962 18.1542C25.6882 17.611 25.4215 17.1119 25.0299 16.7203C24.6383 16.3288 24.1394 16.0623 23.5963 15.9542C23.0531 15.8462 22.4901 15.9015 21.9785 16.1134C21.4668 16.3253 21.0295 16.6842 20.7219 17.1447C20.4142 17.6051 20.25 18.1465 20.25 18.7003C20.25 19.4429 20.545 20.1552 21.0701 20.6803C21.5952 21.2054 22.3074 21.5004 23.05 21.5004Z" fill="#F1F3F9"/>
<path d="M5.95001 75.5006C6.97848 75.5006 7.98379 75.1955 8.83893 74.6241C9.69406 74.0527 10.3606 73.2405 10.7542 72.2904C11.1477 71.3402 11.2507 70.2947 11.05 69.286C10.8494 68.2773 10.3542 67.3508 9.62695 66.6236C8.89972 65.8964 7.97318 65.4012 6.96448 65.2005C5.95578 64.9999 4.9102 65.1028 3.96002 65.4964C3.00985 65.89 2.19773 66.5563 1.62634 67.4114C1.05496 68.2666 0.75 69.2721 0.75 70.3006C0.75 71.6797 1.29782 73.0022 2.27301 73.9774C3.2482 74.9526 4.57089 75.5006 5.95001 75.5006Z" fill="#F1F3F9"/>
<path d="M112.999 31.2899C111.631 29.3799 109.579 29.5497 108.852 31.8897C107.227 37.0797 102.14 38.9898 99.0188 39.4598C98.1047 32.937 94.868 26.9629 89.9032 22.6348C84.9383 18.3068 78.5786 15.9153 71.9921 15.8995C65.4057 15.8837 59.0346 18.2447 54.049 22.5489C49.0635 26.8531 45.7981 32.8116 44.8527 39.3299C41.6897 38.7399 37.0728 36.7797 35.5338 31.8497C34.8068 29.5097 32.7547 29.3798 31.3867 31.2498C28.6077 35.0798 29.7618 39.9698 31.4718 43.9698C33.9948 50.0498 38.8718 54.3899 44.5968 57.3199C44.619 64.2796 43.7277 71.212 41.9458 77.9398C41.4405 80.0138 40.827 82.06 40.1077 84.0699C39.8595 84.5169 39.7257 85.0182 39.7182 85.5294C39.7107 86.0406 39.8298 86.5458 40.0648 86.9998C41.0908 88.6598 43.1007 89.1698 44.9387 89.4698C46.3803 89.7234 47.8373 89.8804 49.2998 89.9398C50.7053 90.0407 52.118 89.926 53.4888 89.5997C53.7058 89.9019 53.965 90.1714 54.2587 90.3997C55.8397 91.8097 60.2438 94.5297 70.1588 94.1497C82.5138 93.6797 87.2588 92.4897 89.4398 90.6197C89.6071 90.4741 89.7641 90.317 89.9097 90.1497C91.2777 90.1497 92.5177 90.1898 93.6287 90.1898C97.5197 90.2298 100.299 90.3198 102.522 89.5098C102.985 89.3425 103.405 89.0752 103.753 88.7271C104.101 88.379 104.368 87.9586 104.535 87.4957C104.703 87.0328 104.766 86.5388 104.721 86.0487C104.675 85.5585 104.523 85.0843 104.274 84.6597C100.949 78.1131 99.2201 70.8726 99.2298 63.5299V57.5699C105.172 54.6399 110.302 50.2598 112.91 43.9698C114.621 39.9698 115.778 35.0799 112.999 31.2899Z" fill="white" stroke="#D6DCE8" stroke-width="2" stroke-miterlimit="10" stroke-linejoin="round"/>
<path d="M93.6749 90.1099C92.5199 90.1099 91.2809 90.0601 89.9549 90.0601C89.8196 90.2368 89.6616 90.3948 89.4849 90.53C88.0497 84.6305 87.1906 78.6056 86.9199 72.54C88.6729 78.45 90.8959 85.4299 93.6749 90.1099Z" fill="#D6DCE8"/>
<path d="M54.2578 90.3604C53.965 90.1275 53.7062 89.8551 53.4888 89.5505C52.1231 89.9099 50.7046 90.0248 49.2988 89.8904C51.7358 85.4304 53.9158 77.0504 53.6598 71.8604C54.0438 81.0104 54.1728 86.7504 54.2578 90.3604Z" fill="#D6DCE8"/>
<path d="M61.7815 46.8599C62.5047 46.8568 63.2107 46.6395 63.8105 46.2354C64.4103 45.8313 64.8769 45.2587 65.1515 44.5897C65.4261 43.9206 65.4962 43.1851 65.3532 42.4762C65.2102 41.7672 64.8603 41.1168 64.3478 40.6065C63.8353 40.0963 63.1832 39.7491 62.4736 39.6092C61.7641 39.4693 61.0291 39.5427 60.3612 39.8201C59.6934 40.0976 59.1227 40.5668 58.7213 41.1683C58.3198 41.7698 58.1055 42.4768 58.1055 43.2C58.1079 44.1728 58.4965 45.1048 59.1858 45.7911C59.8751 46.4774 60.8088 46.8618 61.7815 46.8599Z" fill="#AAB2C5"/>
<path d="M80.1664 48.7699C81.2667 48.764 82.3407 48.4321 83.2527 47.8165C84.1647 47.2009 84.874 46.3289 85.291 45.3107C85.7079 44.2924 85.814 43.1733 85.5957 42.0948C85.3774 41.0163 84.8446 40.0268 84.0644 39.2508C83.2842 38.4749 82.2917 37.9472 81.212 37.7347C80.1324 37.5222 79.014 37.6343 77.998 38.0568C76.9819 38.4792 76.1138 39.1932 75.5031 40.1085C74.8923 41.0238 74.5664 42.0995 74.5664 43.1998C74.5681 43.9333 74.7143 44.6593 74.9967 45.3363C75.2791 46.0133 75.6922 46.6279 76.2122 47.1451C76.7323 47.6624 77.3492 48.0722 78.0276 48.3509C78.7061 48.6297 79.4329 48.7721 80.1664 48.7699Z" fill="#AAB2C5"/>
<path d="M81.6223 53.9199C81.6223 55.3199 76.7482 56.47 70.7632 56.47C64.7352 56.47 59.8633 55.3199 59.8633 53.9199H81.6223Z" fill="#AAB2C5"/>
<path d="M73.2812 66.1602C71.9597 66.1623 70.6912 65.6404 69.754 64.7087C68.8167 63.7771 68.2871 62.5117 68.2812 61.1902V55.2402H78.3282V61.1902C78.3127 62.5168 77.7735 63.7837 76.8282 64.7146C75.8829 65.6455 74.608 66.165 73.2812 66.1602Z" fill="#AAB2C5"/>
<path opacity="0.3" d="M71.9138 105.41C87.9928 105.41 101.028 102.901 101.028 99.8005C101.028 96.7005 87.9928 94.1904 71.9138 94.1904C55.8348 94.1904 42.8008 96.7005 42.8008 99.8005C42.8008 102.901 55.8348 105.41 71.9138 105.41Z" fill="#AAB2C5"/>
</svg>
