<svg width="413" height="300" viewBox="0 0 413 300" fill="none" xmlns="http://www.w3.org/2000/svg">
<path fill-rule="evenodd" clip-rule="evenodd" d="M200.722 86.9186C294.78 -17.6935 387.43 13.9394 406.112 70.6212C458.283 228.921 187.242 339.887 25.176 221.931C-16.956 191.26 -10.3856 139.59 76.9537 164.775C140.301 183.05 152.141 140.945 200.722 86.9186Z" fill="#FFE5CD"/>
<path fill-rule="evenodd" clip-rule="evenodd" d="M273.565 6.90843C268.946 3.8061 248.083 2.69523 246.227 47.5232V81.3372C240.252 78.4516 219.457 66.8281 201.765 72.3012C189.748 76.0131 181.173 88.5308 180.631 96.7811C180.631 96.7811 195.302 83.8705 218.672 85.6588C218.672 85.6588 193.325 87.1761 178.897 104.937C173.979 110.992 169.996 118.267 167.978 127.262C156.571 178.2 210.652 190.813 231.758 155.617C231.758 155.617 309.912 175.938 339.446 145.253C371.092 112.36 325.831 67.5325 327.388 54.5813C330.68 27.121 320.94 28.706 313.367 18.234C297.598 -3.57716 277.236 -3.69909 273.565 6.90843Z" fill="#354752"/>
<path fill-rule="evenodd" clip-rule="evenodd" d="M140.219 170.045C142.143 173.621 134.922 181.248 124.112 187.074C113.301 192.885 102.951 194.714 101.027 191.124C99.1034 187.534 106.324 179.907 117.135 174.095C127.946 168.284 138.296 166.468 140.219 170.045Z" fill="#AD5707"/>
<path fill-rule="evenodd" clip-rule="evenodd" d="M137.442 177.171C137.442 177.171 135.762 173.703 134.11 168.663C132.457 163.624 124.857 159.749 123.163 155.617C120.901 150.103 115.116 139.211 109.372 142.544C106.216 144.373 112.57 149.318 112.339 156.322C112.339 156.322 110.036 155.278 107.923 155.035C107.923 155.035 90.6771 138.168 80.1373 145.24C80.1373 145.24 72.1173 142.856 70.6813 148.884C69.9904 151.77 78.6336 150.957 89.3495 159.302C89.3495 159.302 92.2215 162.431 94.7142 167.728C96.7192 171.982 104.577 185.855 109.372 192.94C109.372 192.967 128.162 196.503 137.442 177.171Z" fill="#E4ACB6"/>
<path fill-rule="evenodd" clip-rule="evenodd" d="M140.233 170.072C141.547 172.497 159.023 204.658 168.655 218.26C168.655 218.26 196.265 158.15 212.318 139.685C229.198 120.259 272.807 115.951 296.095 120.882C319.383 125.799 346.138 138.385 351.964 159.342C361.027 191.951 326.17 233.243 318.949 242.861L310.577 284.736C306.607 294.49 241.052 315.245 193.433 281.187L200.221 250.57L195.344 248.253C195.344 248.253 185.901 266.935 166.434 266.515C151.139 266.176 135.343 252.412 101.041 191.138C102.978 194.714 113.315 192.899 124.126 187.074C134.896 181.275 142.103 173.662 140.233 170.072Z" fill="#D56C0C"/>
<path fill-rule="evenodd" clip-rule="evenodd" d="M140.193 170.019L140.138 169.937L140.193 170.019Z" fill="#D56C0C"/>
<path fill-rule="evenodd" clip-rule="evenodd" d="M278.971 274.305C288.535 277.19 307.054 276.825 327.416 258.725L318.949 242.116L281.233 267.057C281.22 267.071 269.393 271.419 278.971 274.305ZM173.41 265.824C183.706 262.37 189.003 254.661 190.006 245.612C190.006 245.612 202.944 252.033 200.248 241.927L199.34 250.136L189.139 272.815C189.139 272.815 165.675 268.412 173.41 265.824Z" fill="#AD5707"/>
<path d="M213.05 163.027C201.467 181.695 196.468 194.403 206.14 205.214" stroke="#354752" stroke-miterlimit="12.5" stroke-linecap="round" stroke-linejoin="round"/>
<path fill-rule="evenodd" clip-rule="evenodd" d="M262.077 97.9192C260.655 97.7024 259.259 97.3231 257.891 96.7812C243.016 90.9017 238.126 67.939 246.986 45.5183C255.845 23.0975 275.11 9.65862 289.985 15.5381C301.567 20.1036 307.095 35.0327 304.792 52.0074H310.563C319.45 53.0099 314.627 75.7152 301.486 76.2571L296.067 121.017C283.563 138.466 252.526 136.895 256.618 120.408L262.077 97.9192Z" fill="#E4ACB6"/>
<path fill-rule="evenodd" clip-rule="evenodd" d="M262.077 97.9191C262.077 97.9191 270.286 99.6125 278.482 94.6406C278.482 94.6406 276.125 107.863 259.326 109.285C259.326 109.272 254.991 102.62 262.077 97.9191Z" fill="#354752"/>
<path fill-rule="evenodd" clip-rule="evenodd" d="M272.129 14.1561C266.019 39.5302 289.673 72.9378 310.563 52.0072L302.854 8.88623L278.483 10.4577L272.129 14.1561Z" fill="#354752"/>
<path fill-rule="evenodd" clip-rule="evenodd" d="M128.976 97.4313C128.976 90.0345 122.961 84.0195 115.564 84.0195H53.8559C46.4455 84.0195 40.4441 90.0345 40.4441 97.4313V124.255C40.4441 131.665 46.4591 137.667 53.8559 137.667H115.564C122.961 137.667 128.976 131.652 128.976 124.255V97.4313Z" fill="#FFEBE2"/>
<path fill-rule="evenodd" clip-rule="evenodd" d="M121.781 125.759C121.808 125.881 103.357 112.103 89.0373 102.241C86.1653 100.276 82.3991 100.276 79.5271 102.241C65.2347 112.063 46.8646 125.786 46.824 125.759" fill="#FFEBE2"/>
<path d="M121.781 125.759C121.808 125.881 103.357 112.103 89.0373 102.241C86.1653 100.276 82.3991 100.276 79.5271 102.241C65.2347 112.063 46.8646 125.786 46.824 125.759" stroke="#2780D2" stroke-miterlimit="12.5" stroke-linecap="round" stroke-linejoin="round"/>
<path fill-rule="evenodd" clip-rule="evenodd" d="M39.9698 81.5269C35.0521 85.8349 63.7046 105.153 80.002 116.005C82.8605 117.915 86.586 117.901 89.4309 115.964C105.362 105.018 132.145 85.1711 129.436 81.5269" fill="#FFEBE2"/>
<path d="M39.9698 81.5269C35.0521 85.8349 63.7046 105.153 80.002 116.005C82.8605 117.915 86.586 117.901 89.4309 115.964C105.362 105.018 132.145 85.1711 129.436 81.5269" stroke="#2780D2" stroke-miterlimit="12.5" stroke-linecap="round" stroke-linejoin="round"/>
<path fill-rule="evenodd" clip-rule="evenodd" d="M209.473 200.987C214.58 203.331 214.174 215.13 208.592 227.336C202.997 239.543 194.327 247.549 189.22 245.205C184.112 242.862 184.519 231.062 190.1 218.856C195.682 206.663 204.366 198.643 209.473 200.987Z" fill="#AD5707"/>
<path fill-rule="evenodd" clip-rule="evenodd" d="M172.719 202.599L161.191 169.937L174.521 172.958L185.616 207.11L172.719 202.599Z" fill="#354752"/>
<path fill-rule="evenodd" clip-rule="evenodd" d="M174.521 172.944L178.192 170.749L189.125 205.213L185.616 207.096L174.521 172.944Z" fill="#354752"/>
<path fill-rule="evenodd" clip-rule="evenodd" d="M161.191 169.923L165.011 167.565L178.206 170.749L174.535 172.944L161.191 169.923Z" fill="#354752"/>
<path fill-rule="evenodd" clip-rule="evenodd" d="M212.535 205.214C212.535 205.214 198.202 199.917 194.165 187.074C192.404 181.506 185.996 182.156 186.633 190.352C186.849 193.211 188.272 200.066 192.648 204.048C192.648 204.048 180.265 202.938 176.282 198.914C168.398 190.962 161.272 185.597 158.617 188.767C155.948 191.964 165.011 200.58 165.011 200.58C165.011 200.58 164.212 210.267 168.655 218.26C168.655 218.26 162.749 232.024 197.118 243.065C197.118 243.065 225.554 235.546 212.535 205.214Z" fill="#E4ACB6"/>
<path fill-rule="evenodd" clip-rule="evenodd" d="M318.935 242.848C318.935 242.848 300.24 268.412 280.353 274.684C258.108 281.701 189.139 245.164 189.139 245.164L189.206 245.205C194.314 247.549 202.984 239.529 208.579 227.336C214.174 215.13 214.567 203.33 209.46 200.987L268.241 226.564L314.383 164.829" fill="#D56C0C"/>
<path d="M209.446 201.502L268.241 227.391L313.123 168.663" stroke="#354752" stroke-miterlimit="12.5" stroke-linecap="round" stroke-linejoin="round"/>
<path d="M283.509 274.047C256.008 283.544 200.221 250.57 200.221 250.57M88.2659 157.622C88.2659 157.622 86.437 156.132 83.0908 153.693C78.6202 150.442 86.1389 138.71 103.236 161.578C103.236 161.578 115.943 164.247 120.617 175.572M174.521 211.432C170.688 206.92 167.639 203.479 164.998 200.58M168.655 218.259C168.655 218.259 169.888 219.939 171.378 221.47M264.204 44.3666C264.204 44.3666 256.943 57.67 256.564 61.0027C256.32 63.116 257.431 64.0643 259.002 64.823M258.758 77.0156C258.758 77.0156 268.12 79.6302 273.552 71.1496M251.009 39.1102C251.009 39.1102 255.006 30.291 263.053 34.8158M272.13 35.6286C272.13 35.6286 278.117 32.1605 285.799 39.1102M306.431 57.0604C306.431 57.0604 302.95 61.4362 302.245 68.9955M303.044 64.5114C303.044 64.5114 305.51 60.7046 309.737 59.9866" stroke="#354752" stroke-miterlimit="12.5" stroke-linecap="round" stroke-linejoin="round"/>
<path d="M128.975 97.2146C136.27 97.2146 142.184 91.3009 142.184 84.006C142.184 76.7111 136.27 70.7974 128.975 70.7974C121.68 70.7974 115.766 76.7111 115.766 84.006C115.766 91.3009 121.68 97.2146 128.975 97.2146Z" fill="#2780D2"/>
<path fill-rule="evenodd" clip-rule="evenodd" d="M255.059 43.662C256.157 43.6756 256.793 45.0438 256.482 46.7102C256.17 48.3765 255.019 49.7177 253.921 49.6906C252.824 49.677 252.187 48.3087 252.499 46.6289C252.811 44.9761 253.949 43.6349 255.059 43.662ZM275.204 44.0007C276.302 44.0143 276.938 45.3825 276.627 47.0624C276.315 48.7287 275.164 50.0699 274.066 50.0428C272.969 50.0292 272.332 48.661 272.644 46.9811C272.955 45.3148 274.107 43.9736 275.204 44.0007Z" fill="#354752"/>
</svg>
