<svg width="14" height="14" viewBox="0 0 14 14" fill="none" xmlns="http://www.w3.org/2000/svg">
<path d="M1.15781 6.65985C0.895312 7.00673 0.75 7.43173 0.75 7.87391C0.75 8.57548 1.14219 9.23954 1.77344 9.60985C1.93595 9.70517 2.12097 9.75534 2.30937 9.75516L6.05625 9.75516L5.9625 11.6755C5.94062 12.1395 6.10469 12.5802 6.42344 12.9161C6.57987 13.0817 6.76859 13.2134 6.97794 13.3032C7.1873 13.3929 7.41284 13.4388 7.64062 13.438C8.45312 13.438 9.17187 12.8911 9.3875 12.1083L10.7297 7.24891H12.75C13.0266 7.24891 13.25 7.02548 13.25 6.74891L13.25 1.06141C13.25 0.784851 13.0266 0.561413 12.75 0.561413L3.35469 0.561413C3.21094 0.561413 3.07031 0.589539 2.94063 0.645789C2.19688 0.962976 1.71719 1.68954 1.71719 2.49579C1.71719 2.69266 1.74531 2.88641 1.80156 3.07391C1.53906 3.42079 1.39375 3.84579 1.39375 4.28798C1.39375 4.48485 1.42187 4.6786 1.47812 4.8661C1.21562 5.21298 1.07031 5.63798 1.07031 6.08016C1.07344 6.27704 1.10156 6.47235 1.15781 6.65985V6.65985ZM12.125 1.68641L12.125 6.12391H10.8594L10.8594 1.68641H12.125ZM2.18125 7.20204L2.52344 6.90516L2.30625 6.50829C2.2347 6.37755 2.19759 6.23076 2.19844 6.08173C2.19844 5.82391 2.31094 5.5786 2.50469 5.40985L2.84688 5.11298L2.62969 4.7161C2.55813 4.58537 2.52103 4.43857 2.52188 4.28954C2.52188 4.03173 2.63438 3.78641 2.82813 3.61766L3.17031 3.32079L2.95313 2.92391C2.88157 2.79318 2.84447 2.64638 2.84531 2.49735C2.84531 2.14735 3.05156 1.83173 3.37031 1.68798L9.85938 1.68798L9.85938 6.17391L8.30469 11.8067C8.2646 11.9511 8.17854 12.0785 8.05956 12.1695C7.94057 12.2606 7.79515 12.3104 7.64531 12.3114C7.52656 12.3114 7.40938 12.277 7.31563 12.2067C7.16094 12.0911 7.07813 11.9161 7.0875 11.7302L7.2375 8.63016L2.325 8.63016C2.04687 8.45985 1.875 8.17235 1.875 7.87391C1.875 7.6161 1.9875 7.37235 2.18125 7.20204Z" fill="#8798A1"/>
</svg>
