<svg width="14" height="14" viewBox="0 0 14 14" fill="none" xmlns="http://www.w3.org/2000/svg">
<path d="M1.15781 6.65985C0.895311 7.00673 0.75 7.43173 0.75 7.87391C0.75 8.57548 1.14219 9.23954 1.77344 9.60985C1.93595 9.70517 2.12097 9.75534 2.30937 9.75516L6.05625 9.75516L5.9625 11.6755C5.94062 12.1395 6.10469 12.5802 6.42344 12.9161C6.57987 13.0817 6.76859 13.2134 6.97794 13.3032C7.1873 13.3929 7.41284 13.4388 7.64062 13.438C8.45312 13.438 9.17187 12.8911 9.3875 12.1083L10.7297 7.24891H10.7344L10.7344 0.561414L3.35469 0.561414C3.21094 0.561414 3.07031 0.589539 2.94063 0.645788C2.19688 0.962976 1.71719 1.68954 1.71719 2.49579C1.71719 2.69266 1.74531 2.88641 1.80156 3.07391C1.53906 3.42079 1.39375 3.84579 1.39375 4.28798C1.39375 4.48485 1.42187 4.6786 1.47812 4.8661C1.21562 5.21298 1.07031 5.63798 1.07031 6.08016C1.07344 6.27704 1.10156 6.47235 1.15781 6.65985ZM13.25 6.74891L13.25 1.06141C13.25 0.784851 13.0266 0.561414 12.75 0.561414H11.7344L11.7344 7.24891H12.75C13.0266 7.24891 13.25 7.02548 13.25 6.74891Z" fill="#BB2E47"/>
</svg>
