<svg width="140" height="133" viewBox="0 0 140 133" fill="none" xmlns="http://www.w3.org/2000/svg">
<path d="M74.785 131.999C86.997 131.916 98.911 128.22 109.025 121.375C119.138 114.53 126.999 104.844 131.615 93.5375C136.231 82.2313 137.396 69.8113 134.963 57.8439C132.53 45.8765 126.608 34.8975 117.943 26.2913C109.279 17.6852 98.2598 11.8373 86.2762 9.48505C74.2926 7.13284 61.8809 8.38166 50.6061 13.074C39.3313 17.7664 29.6984 25.6921 22.922 35.8519C16.1457 46.0116 12.5293 57.9502 12.5291 70.1624C12.5558 78.3107 14.1875 86.374 17.3308 93.8916C20.4741 101.409 25.0675 108.234 30.8486 113.976C36.6298 119.718 43.4854 124.266 51.0241 127.358C58.5628 130.451 66.6368 132.027 74.785 131.999Z" fill="#F1F3F9" stroke="#D6DCE8" stroke-width="2" stroke-miterlimit="10"/>
<path d="M122.474 62.0925V99.9283C122.469 101.808 122.094 103.667 121.369 105.401C120.645 107.135 119.585 108.709 118.251 110.033C116.918 111.357 115.336 112.405 113.597 113.117C111.857 113.829 109.995 114.191 108.116 114.182H41.6672C37.8933 114.188 34.2693 112.706 31.5812 110.057C28.8931 107.408 27.3579 103.806 27.3085 100.033V61.8829C27.2919 61.6679 27.3279 61.452 27.4133 61.254C27.5181 60.9395 27.6229 60.7301 27.7277 60.4157L45.5451 26.3529C45.8568 25.7062 46.3496 25.1639 46.9635 24.7918C47.5775 24.4197 48.2862 24.2339 49.0038 24.2568H100.674C101.389 24.2472 102.092 24.4386 102.704 24.8092C103.315 25.1798 103.811 25.7147 104.133 26.3529L121.95 60.4157C122.072 60.6884 122.177 60.9682 122.265 61.254C122.443 61.4946 122.518 61.7962 122.474 62.0925Z" fill="#F1F3F9" stroke="#D6DCE8" stroke-width="2" stroke-miterlimit="10"/>
<path d="M100.796 10.4951C102.165 25.4198 102.848 28.8471 99.748 42.3673C98.7408 45.3753 97.7336 48.6663 95.5756 50.9511C93.9741 52.7177 91.9278 54.0218 89.6503 54.7279C87.3728 55.434 84.9476 55.5159 82.6276 54.9651C80.3001 54.341 78.1982 53.0675 76.5676 51.2933C74.937 49.519 73.845 47.3175 73.4192 44.9457C73.0362 43.4099 73.104 41.7962 73.6145 40.298C74.1249 38.7998 75.0563 37.4806 76.2972 36.4981C77.6837 35.679 79.2943 35.3208 80.8973 35.4752C82.5002 35.6296 84.0128 36.2887 85.2174 37.3574C86.4188 38.4227 87.3561 39.7527 87.9553 41.2424C88.5544 42.7322 88.7991 44.3408 88.6698 45.9413C88.4398 49.1348 87.4537 52.2277 85.7928 54.9651C82.2147 61.6519 80.7421 61.631 73.4192 72.6149" stroke="#B3BCCE" stroke-width="2" stroke-miterlimit="10" stroke-dasharray="4 4"/>
<path d="M108.818 4.93051C108.271 6.92187 106.084 7.65553 103.892 6.37687C101.522 5.29735 99.8821 4.38551 100.246 2.57233C100.793 0.759152 102.98 0.580896 105.532 0.392242C108.636 0.0358944 109.183 2.93916 108.818 4.93051Z" fill="#DAE2EB"/>
<path d="M91.136 6.74409C91.3774 7.19983 91.7165 7.5966 92.1291 7.90604C92.5417 8.21548 93.0175 8.42995 93.5226 8.5341C94.0277 8.63824 94.5496 8.62939 95.0509 8.50838C95.5522 8.38737 96.0206 8.1571 96.4225 7.83401C98.4275 6.02083 100.069 4.75273 99.157 2.93955C98.2452 1.30455 96.7873 1.84947 93.6881 2.20582C91.136 2.75082 90.0418 4.93091 91.136 6.74409Z" fill="#DAE2EB"/>
<path d="M99.1564 0.0357182C99.7546 -0.0628788 100.369 0.0440594 100.898 0.339063C101.428 0.634066 101.842 1.09979 102.073 1.66029C102.278 2.05832 102.401 2.49287 102.437 2.93892C102.802 5.47528 101.891 7.65521 100.432 7.83338C98.7917 8.20021 97.1514 6.37666 96.9733 4.01848V2.3939C97.0067 1.80778 97.2434 1.25169 97.6426 0.821267C98.0419 0.390846 98.5787 0.113027 99.1606 0.0357182H99.1564Z" fill="#989FB0"/>
<path d="M122.474 62.0922V103.806C122.477 105.178 122.207 106.537 121.68 107.804C121.153 109.071 120.379 110.221 119.404 111.186C118.429 112.152 117.272 112.913 115.999 113.428C114.727 113.942 113.366 114.198 111.993 114.182H37.7893C36.4196 114.19 35.0618 113.927 33.7935 113.41C32.5253 112.892 31.3715 112.13 30.3981 111.167C29.4247 110.203 28.6508 109.057 28.1207 107.794C27.5905 106.531 27.3145 105.176 27.3085 103.806V61.8827C27.2919 61.6676 27.3279 61.4517 27.4133 61.2537H51.3096C52.1642 61.2491 53.0112 61.4142 53.8017 61.7391C54.5921 62.064 55.3103 62.5424 55.9146 63.1467C56.5189 63.751 56.9974 64.4693 57.3223 65.2597C57.6473 66.0502 57.8122 66.8974 57.8077 67.752C57.8079 69.477 58.4853 71.1329 59.6942 72.3635C60.2892 72.9816 61.0068 73.4687 61.8009 73.7936C62.5949 74.1184 63.4481 74.2739 64.3058 74.2501H85.5818C86.4364 74.2546 87.2835 74.0896 88.0739 73.7647C88.8644 73.4397 89.5826 72.9614 90.1869 72.3571C90.7912 71.7527 91.2697 71.0345 91.5946 70.244C91.9195 69.4536 92.0845 68.6066 92.0799 67.752C92.0803 66.027 92.7577 64.3709 93.9664 63.1403C94.5469 62.532 95.247 62.0505 96.0225 61.7258C96.7981 61.4011 97.6325 61.2403 98.4732 61.2537H122.265C122.443 61.4944 122.518 61.796 122.474 62.0922Z" fill="white" stroke="#D6DCE8" stroke-width="2" stroke-miterlimit="10"/>
<path d="M62.9332 88.252C63.4087 88.252 63.8735 88.111 64.269 87.8469C64.6644 87.5829 64.9727 87.2076 65.1549 86.7684C65.3371 86.3292 65.3851 85.846 65.2927 85.3795C65.2003 84.9131 64.9717 84.4843 64.6359 84.1477C64.3 83.8111 63.8719 83.5817 63.4056 83.4883C62.9394 83.3949 62.4559 83.4416 62.0163 83.6229C61.5767 83.8041 61.2007 84.1118 60.9358 84.5067C60.6708 84.9016 60.5289 85.3659 60.5278 85.8414C60.5278 86.4798 60.7811 87.0923 61.232 87.5442C61.683 87.9962 62.2948 88.2506 62.9332 88.252Z" fill="#989FB0"/>
<path d="M86.8479 88.2521C87.3231 88.2511 87.7875 88.1094 88.1822 87.8447C88.577 87.58 88.8844 87.2042 89.0659 86.7649C89.2473 86.3256 89.2944 85.8424 89.2015 85.3763C89.1085 84.9102 88.8795 84.4821 88.5434 84.146C88.2074 83.8099 87.7792 83.5809 87.3131 83.4879C86.847 83.3949 86.3639 83.4421 85.9246 83.6235C85.4852 83.8049 85.1095 84.1126 84.8448 84.5073C84.5801 84.9021 84.4383 85.3662 84.4373 85.8415C84.4373 86.4808 84.6912 87.0941 85.1433 87.5461C85.5954 87.9982 86.2085 88.2521 86.8479 88.2521Z" fill="#989FB0"/>
<path d="M78.7903 104.047H71.2515C70.6816 104.047 70.1351 103.821 69.7322 103.418C69.3293 103.015 69.1029 102.468 69.1029 101.899C69.1029 101.329 69.3293 100.782 69.7322 100.379C70.1351 99.9765 70.6816 99.75 71.2515 99.75H78.7253C79.2932 99.7552 79.8362 99.9834 80.2374 100.385C80.6385 100.787 80.8656 101.331 80.8697 101.899C80.8805 102.178 80.8346 102.456 80.7348 102.717C80.635 102.978 80.4833 103.216 80.289 103.417C80.0947 103.618 79.8617 103.777 79.6042 103.886C79.3466 103.994 79.0697 104.049 78.7903 104.047Z" fill="#989FB0"/>
<path d="M135.452 40.606C136.302 40.606 137.132 40.354 137.839 39.8818C138.546 39.4096 139.097 38.7385 139.422 37.9533C139.747 37.1681 139.832 36.3042 139.666 35.4706C139.501 34.637 139.091 33.8713 138.49 33.2703C137.889 32.6693 137.124 32.2601 136.29 32.0943C135.457 31.9285 134.593 32.0136 133.807 32.3389C133.022 32.6641 132.351 33.2148 131.879 33.9215C131.407 34.6282 131.155 35.459 131.155 36.3089C131.155 37.4485 131.607 38.5415 132.413 39.3474C133.219 40.1533 134.312 40.606 135.452 40.606Z" fill="#F1F3F9"/>
<path d="M131.154 26.6672C131.734 26.6672 132.302 26.495 132.784 26.1726C133.267 25.8501 133.643 25.3918 133.865 24.8556C134.087 24.3193 134.145 23.7292 134.032 23.16C133.919 22.5907 133.639 22.0679 133.229 21.6575C132.819 21.247 132.296 20.9675 131.726 20.8543C131.157 20.741 130.567 20.7991 130.031 21.0212C129.495 21.2433 129.036 21.6196 128.714 22.1022C128.391 22.5848 128.219 23.1521 128.219 23.7325C128.219 24.5108 128.528 25.2572 129.079 25.8076C129.629 26.3579 130.376 26.6672 131.154 26.6672Z" fill="#F1F3F9"/>
<path d="M12.303 36.3087C12.8834 36.3087 13.4508 36.1365 13.9334 35.814C14.416 35.4916 14.7922 35.0333 15.0143 34.497C15.2364 33.9608 15.2945 33.3708 15.1813 32.8016C15.068 32.2323 14.7885 31.7093 14.3781 31.2989C13.9677 30.8885 13.4448 30.6091 12.8756 30.4959C12.3063 30.3826 11.7162 30.4407 11.18 30.6628C10.6438 30.8849 10.1854 31.261 9.86297 31.7436C9.54051 32.2262 9.36841 32.7936 9.36841 33.374C9.36841 33.7594 9.44431 34.141 9.59179 34.497C9.73927 34.8531 9.95543 35.1767 10.2279 35.4492C10.5004 35.7217 10.824 35.9378 11.18 36.0853C11.536 36.2328 11.9176 36.3087 12.303 36.3087Z" fill="#F1F3F9"/>
<path d="M5.70101 100.872C6.77892 100.872 7.83263 100.552 8.72888 99.9533C9.62513 99.3545 10.3237 98.5033 10.7362 97.5074C11.1487 96.5115 11.2566 95.4157 11.0463 94.3585C10.836 93.3013 10.3169 92.3301 9.55474 91.5679C8.79254 90.8057 7.82145 90.2867 6.76425 90.0764C5.70705 89.8661 4.61123 89.974 3.61537 90.3865C2.61951 90.799 1.76833 91.4977 1.16947 92.3939C0.570615 93.2902 0.250977 94.3438 0.250977 95.4217C0.250977 96.8672 0.825185 98.2534 1.84726 99.2755C2.86934 100.298 4.25558 100.872 5.70101 100.872Z" fill="#F1F3F9"/>
</svg>
