<svg width="162" height="137" viewBox="0 0 162 137" fill="none" xmlns="http://www.w3.org/2000/svg">
<path d="M56.1035 41.1866V29.7273C56.1035 27.0042 56.6399 24.3077 57.682 21.7919C58.724 19.2761 60.2515 16.9903 62.177 15.0647C64.1025 13.1392 66.3884 11.6119 68.9042 10.5698C71.42 9.52769 74.1164 8.99141 76.8395 8.99141C79.5626 8.99141 82.259 9.52769 84.7748 10.5698C87.2906 11.6119 89.5766 13.1392 91.5021 15.0647C93.4276 16.9903 94.955 19.2761 95.9971 21.7919C97.0392 24.3077 97.5755 27.0042 97.5755 29.7273V41.1866" stroke="#D6DCE8" stroke-width="1.894" stroke-miterlimit="10" stroke-linecap="round" stroke-linejoin="round"/>
<path d="M127.043 126.311C127.589 126.038 127.725 125.765 128.271 125.629" stroke="#FF78B7" stroke-width="0.612" stroke-linecap="round" stroke-linejoin="round"/>
<path d="M14.4941 136H160.874" stroke="#D6DCE8" stroke-width="2" stroke-miterlimit="10" stroke-linecap="round" stroke-linejoin="round"/>
<path d="M1.12598 136H7.12849" stroke="#D6DCE8" stroke-width="2" stroke-miterlimit="10" stroke-linecap="round" stroke-linejoin="round"/>
<path d="M137.41 19.4919H21.1797V135.995H137.41V19.4919Z" fill="#F1F3F9" stroke="#D6DCE8" stroke-width="2" stroke-miterlimit="10"/>
<path d="M137.683 19.4919H53.5112V135.995H137.547V19.4919H137.683Z" fill="white" stroke="#D6DCE8" stroke-width="2" stroke-miterlimit="10"/>
<path d="M37.2774 19.4919H21.1797V135.995H37.2774V19.4919Z" fill="#F1F3F9" stroke="#D6DCE8" stroke-width="2" stroke-miterlimit="10"/>
<path d="M53.5115 135.998H21.1797V135.725L37.5502 119.491L53.5115 135.998Z" fill="#F1F3F9" stroke="#D6DCE8" stroke-width="2" stroke-miterlimit="10"/>
<path d="M73.8375 45.4148C74.6739 45.4148 75.4916 45.1668 76.187 44.7021C76.8825 44.2374 77.4245 43.5767 77.7446 42.804C78.0647 42.0312 78.1484 41.181 77.9853 40.3606C77.8221 39.5403 77.4193 38.7869 76.8279 38.1954C76.2364 37.604 75.4829 37.2012 74.6625 37.0381C73.8422 36.8749 72.9918 36.9584 72.2191 37.2785C71.4463 37.5986 70.7858 38.1408 70.3211 38.8362C69.8565 39.5317 69.6084 40.3492 69.6084 41.1856C69.6141 42.3055 70.0616 43.378 70.8534 44.1698C71.6453 44.9617 72.7176 45.4091 73.8375 45.4148Z" fill="#D6DCE8"/>
<path d="M115.311 45.4148C116.147 45.4148 116.965 45.1668 117.66 44.7021C118.356 44.2374 118.898 43.5767 119.218 42.804C119.538 42.0312 119.622 41.181 119.458 40.3606C119.295 39.5403 118.892 38.7869 118.301 38.1954C117.71 37.604 116.956 37.2012 116.136 37.0381C115.315 36.8749 114.465 36.9584 113.692 37.2785C112.919 37.5986 112.259 38.1408 111.794 38.8362C111.33 39.5317 111.082 40.3492 111.082 41.1856C111.11 42.2982 111.565 43.3576 112.352 44.1445C113.139 44.9315 114.198 45.3862 115.311 45.4148Z" fill="#D6DCE8"/>
<path d="M73.8384 41.1866V29.7273C73.8384 27.0042 74.3747 24.3077 75.4168 21.7919C76.4589 19.2761 77.9863 16.9903 79.9118 15.0647C81.8374 13.1392 84.1232 11.6119 86.639 10.5698C89.1549 9.52769 91.8513 8.99141 94.5744 8.99141C97.2975 8.99141 99.9939 9.52769 102.51 10.5698C105.025 11.6119 107.311 13.1392 109.237 15.0647C111.162 16.9903 112.69 19.2761 113.732 21.7919C114.774 24.3077 115.31 27.0042 115.31 29.7273V41.1866" stroke="#D6DCE8" stroke-width="1.894" stroke-miterlimit="10" stroke-linecap="round" stroke-linejoin="round"/>
<path d="M128.534 4.16062C131.554 2.22338 135.069 1.19988 138.656 1.21371C142.269 1.22854 145.796 2.31347 148.792 4.33114C151.788 6.34881 154.12 9.20879 155.492 12.5504C156.864 15.892 157.215 19.5653 156.501 23.1063C155.787 26.6474 154.041 29.8976 151.481 32.4467C148.921 34.9957 145.664 36.7293 142.12 37.4285C138.576 38.1278 134.904 37.7615 131.568 36.3757C128.233 34.99 125.382 32.6472 123.377 29.6426C121.371 26.6381 120.301 23.1066 120.301 19.4943C120.244 16.4472 120.972 13.4366 122.414 10.7515C123.855 8.06643 125.963 5.79695 128.534 4.16062Z" fill="#D6DCE8" stroke="#AAB2C5" stroke-width="2" stroke-miterlimit="10"/>
<path d="M139.873 19.3146V19.3556V19.3966C139.938 20.302 139.74 21.2069 139.302 22.0021C139.043 22.3841 138.802 22.4387 138.656 22.4387C138.51 22.4387 138.268 22.3841 138.011 22.0021C137.632 21.1925 137.437 20.3096 137.439 19.4159C137.441 18.5222 137.64 17.64 138.021 16.832C138.315 16.3818 138.567 16.3407 138.656 16.3407C138.787 16.3407 140.035 16.7226 139.873 19.3146ZM130.468 19.3966C130.468 24.908 134.026 29.0416 138.653 29.0416C143.28 29.0416 146.838 24.908 146.838 19.3966C146.838 13.8306 143.242 9.94268 138.653 9.94268C134.064 9.94268 130.468 13.8306 130.468 19.3966Z" fill="white" stroke="#AAB2C5" stroke-width="2"/>
<path d="M81.4459 78.554C79.2068 78.551 77.0252 77.8448 75.2089 76.5353C73.3927 75.2258 72.0336 73.3788 71.3234 71.2553C71.1733 70.8079 71.207 70.3193 71.4172 69.8968C71.6273 69.4743 71.9968 69.1523 72.4441 69.0022C72.8915 68.852 73.3802 68.8859 73.8027 69.0961C74.2252 69.3063 74.547 69.6755 74.6971 70.1229C75.1885 71.5289 76.0987 72.7506 77.3052 73.6237C78.5118 74.4968 79.9568 74.9796 81.4459 75.0069C82.9442 75.0174 84.4068 74.5494 85.6206 73.671C86.8345 72.7926 87.7363 71.5495 88.1946 70.1229C88.3448 69.6755 88.6665 69.3063 89.089 69.0961C89.5115 68.8859 90.0002 68.852 90.4476 69.0022C90.895 69.1523 91.2644 69.4743 91.4746 69.8968C91.6847 70.3193 91.7185 70.8079 91.5683 71.2553C90.8887 73.3977 89.5373 75.2644 87.7142 76.5789C85.8911 77.8934 83.6932 78.5859 81.4459 78.554Z" fill="#9FA8BA"/>
<path d="M109.749 78.5547C107.51 78.5515 105.328 77.8452 103.512 76.5357C101.696 75.2262 100.337 73.3794 99.6266 71.256C99.4765 70.8085 99.5102 70.3195 99.7205 69.8968C99.9308 69.4742 100.3 69.1524 100.748 69.0022C101.196 68.8521 101.684 68.8858 102.107 69.0961C102.53 69.3064 102.852 69.6761 103.002 70.1236C103.493 71.5295 104.403 72.7513 105.609 73.6244C106.815 74.4976 108.26 74.9803 109.749 75.0076C111.247 75.0181 112.71 74.5501 113.924 73.6717C115.138 72.7933 116.039 71.5502 116.498 70.1236C116.648 69.6762 116.97 69.307 117.392 69.0968C117.815 68.8866 118.303 68.8527 118.751 69.0029C119.198 69.153 119.568 69.475 119.778 69.8975C119.988 70.32 120.022 70.8086 119.871 71.256C119.192 73.3984 117.84 75.2651 116.017 76.5796C114.194 77.8941 111.996 78.5866 109.749 78.5547Z" fill="#9FA8BA"/>
<path d="M95.6923 101.498C96.5449 101.498 97.3783 101.245 98.0872 100.771C98.7962 100.297 99.3487 99.6241 99.675 98.8364C100.001 98.0487 100.087 97.182 99.9203 96.3458C99.754 95.5096 99.3434 94.7415 98.7405 94.1386C98.1376 93.5357 97.3695 93.1249 96.5333 92.9586C95.697 92.7922 94.8302 92.8778 94.0425 93.204C93.2548 93.5303 92.5816 94.0828 92.1079 94.7917C91.6342 95.5007 91.3813 96.3341 91.3813 97.1868C91.3808 97.753 91.492 98.3138 91.7084 98.8371C91.9249 99.3603 92.2424 99.8358 92.6428 100.236C93.0432 100.637 93.5186 100.954 94.0419 101.17C94.5652 101.387 95.126 101.498 95.6923 101.498Z" fill="#9FA8BA"/>
<path d="M17.1716 6.34344V0H41.6864V6.34344L24.9585 26.5338H41.9756V32.8776H16.3066V26.5338L33.0346 6.34344H17.1716Z" fill="#9FA8BA"/>
<path d="M37.3608 53.9274V49.8894H53.2238V53.9274L42.5516 66.901H53.5116V70.939H36.7837V66.901L47.4545 53.9274H37.3608Z" fill="#9FA8BA"/>
</svg>
