<svg width="162" height="137" viewBox="0 0 162 137" fill="none" xmlns="http://www.w3.org/2000/svg">
<path d="M56.1035 41.1871V29.7279C56.1035 27.0048 56.6399 24.3082 57.682 21.7924C58.724 19.2766 60.2515 16.9908 62.177 15.0653C64.1025 13.1398 66.3884 11.6124 68.9042 10.5703C71.42 9.52823 74.1164 8.99194 76.8395 8.99194C79.5626 8.99194 82.259 9.52823 84.7748 10.5703C87.2906 11.6124 89.5766 13.1398 91.5021 15.0653C93.4276 16.9908 94.955 19.2766 95.9971 21.7924C97.0392 24.3082 97.5755 27.0048 97.5755 29.7279V41.1871" stroke="#D6DCE8" stroke-width="1.894" stroke-miterlimit="10" stroke-linecap="round" stroke-linejoin="round"/>
<path d="M127.043 126.311C127.589 126.039 127.725 125.766 128.271 125.629" stroke="#FF78B7" stroke-width="0.612" stroke-linecap="round" stroke-linejoin="round"/>
<path d="M14.4941 136H160.874" stroke="#D6DCE8" stroke-width="2" stroke-miterlimit="10" stroke-linecap="round" stroke-linejoin="round"/>
<path d="M1.12598 136H7.12849" stroke="#D6DCE8" stroke-width="2" stroke-miterlimit="10" stroke-linecap="round" stroke-linejoin="round"/>
<path d="M137.41 19.4924H21.1797V135.996H137.41V19.4924Z" fill="#F1F3F9" stroke="#D6DCE8" stroke-width="2" stroke-miterlimit="10"/>
<path d="M137.683 19.4924H53.5117V135.996H137.547V19.4924H137.683Z" fill="white" stroke="#D6DCE8" stroke-width="2" stroke-miterlimit="10"/>
<path d="M37.2774 19.4924H21.1797V135.996H37.2774V19.4924Z" fill="#F1F3F9" stroke="#D6DCE8" stroke-width="2" stroke-miterlimit="10"/>
<path d="M53.5115 135.999H21.1797V135.726L37.5502 119.492L53.5115 135.999Z" fill="#F1F3F9" stroke="#D6DCE8" stroke-width="2" stroke-miterlimit="10"/>
<path d="M73.8375 45.4154C74.6739 45.4154 75.4916 45.1673 76.187 44.7026C76.8825 44.2379 77.4245 43.5773 77.7446 42.8045C78.0647 42.0317 78.1484 41.1815 77.9853 40.3612C77.8221 39.5408 77.4193 38.7874 76.8279 38.196C76.2364 37.6045 75.4829 37.2018 74.6625 37.0386C73.8422 36.8754 72.9918 36.959 72.2191 37.2791C71.4463 37.5991 70.7858 38.1413 70.3211 38.8368C69.8565 39.5322 69.6084 40.3497 69.6084 41.1862C69.6141 42.306 70.0616 43.3785 70.8534 44.1704C71.6453 44.9622 72.7176 45.4096 73.8375 45.4154Z" fill="#D6DCE8"/>
<path d="M115.31 45.4154C116.146 45.4154 116.964 45.1673 117.66 44.7026C118.355 44.2379 118.897 43.5773 119.217 42.8045C119.537 42.0317 119.621 41.1815 119.458 40.3612C119.295 39.5408 118.892 38.7874 118.3 38.196C117.709 37.6045 116.955 37.2018 116.135 37.0386C115.315 36.8754 114.464 36.959 113.692 37.2791C112.919 37.5991 112.258 38.1413 111.794 38.8368C111.329 39.5322 111.081 40.3497 111.081 41.1862C111.11 42.2988 111.564 43.3581 112.351 44.1451C113.138 44.932 114.197 45.3867 115.31 45.4154Z" fill="#D6DCE8"/>
<path d="M73.8379 41.1871V29.7279C73.8379 27.0048 74.3743 24.3082 75.4163 21.7924C76.4584 19.2766 77.9858 16.9908 79.9113 15.0653C81.8369 13.1398 84.1228 11.6124 86.6386 10.5703C89.1544 9.52823 91.8508 8.99194 94.5739 8.99194C97.297 8.99194 99.9934 9.52823 102.509 10.5703C105.025 11.6124 107.311 13.1398 109.236 15.0653C111.162 16.9908 112.689 19.2766 113.731 21.7924C114.774 24.3082 115.31 27.0048 115.31 29.7279V41.1871" stroke="#D6DCE8" stroke-width="1.894" stroke-miterlimit="10" stroke-linecap="round" stroke-linejoin="round"/>
<path d="M128.534 4.16116C131.554 2.22392 135.069 1.20042 138.656 1.21425C142.269 1.22908 145.796 2.31401 148.792 4.33168C151.788 6.34935 154.12 9.20932 155.492 12.5509C156.864 15.8925 157.215 19.5658 156.501 23.1069C155.787 26.648 154.041 29.8981 151.481 32.4472C148.921 34.9963 145.664 36.7298 142.12 37.4291C138.576 38.1284 134.904 37.7621 131.568 36.3763C128.233 34.9905 125.382 32.6477 123.377 29.6432C121.371 26.6386 120.301 23.1072 120.301 19.4949C120.244 16.4477 120.972 13.4372 122.414 10.7521C123.855 8.06697 125.963 5.79748 128.534 4.16116Z" fill="#D6DCE8" stroke="#AAB2C5" stroke-width="2" stroke-miterlimit="10"/>
<path d="M139.873 19.3151V19.356V19.397C139.938 20.3024 139.74 21.2074 139.302 22.0025C139.043 22.3845 138.802 22.4392 138.656 22.4392C138.51 22.4392 138.268 22.3845 138.011 22.0025C137.632 21.1929 137.437 20.31 137.439 19.4163C137.441 18.5226 137.64 17.6404 138.021 16.8324C138.315 16.3823 138.567 16.3412 138.656 16.3412C138.787 16.3412 140.035 16.7231 139.873 19.3151ZM130.468 19.397C130.468 24.9084 134.026 29.0421 138.653 29.0421C143.28 29.0421 146.838 24.9084 146.838 19.397C146.838 13.831 143.242 9.94312 138.653 9.94312C134.064 9.94312 130.468 13.831 130.468 19.397Z" fill="white" stroke="#AAB2C5" stroke-width="2"/>
<path d="M81.4463 78.5545C79.2072 78.5515 77.0257 77.8454 75.2094 76.5358C73.3932 75.2263 72.0341 73.3793 71.3239 71.2558C71.1738 70.8084 71.2075 70.3198 71.4176 69.8973C71.6278 69.4748 71.9973 69.1528 72.4446 69.0027C72.892 68.8525 73.3807 68.8864 73.8032 69.0966C74.2257 69.3068 74.5475 69.676 74.6976 70.1234C75.189 71.5294 76.0992 72.7511 77.3057 73.6242C78.5123 74.4974 79.9573 74.9802 81.4463 75.0074C82.9447 75.0179 84.4073 74.5499 85.6211 73.6715C86.835 72.7931 87.7368 71.55 88.1951 70.1234C88.3453 69.676 88.667 69.3068 89.0895 69.0966C89.512 68.8864 90.0007 68.8525 90.4481 69.0027C90.8955 69.1528 91.2649 69.4748 91.475 69.8973C91.6852 70.3198 91.7189 70.8084 91.5688 71.2558C90.8892 73.3982 89.5378 75.2649 87.7147 76.5794C85.8916 77.8939 83.6937 78.5864 81.4463 78.5545Z" fill="#9FA8BA"/>
<path d="M109.749 78.5552C107.51 78.552 105.328 77.8457 103.512 76.5362C101.696 75.2267 100.337 73.3799 99.6266 71.2565C99.4765 70.809 99.5102 70.32 99.7205 69.8973C99.9308 69.4747 100.3 69.1529 100.748 69.0027C101.196 68.8526 101.684 68.8863 102.107 69.0966C102.53 69.3069 102.852 69.6766 103.002 70.1241C103.493 71.53 104.403 72.7518 105.609 73.6249C106.815 74.4981 108.26 74.9808 109.749 75.0081C111.247 75.0186 112.71 74.5506 113.924 73.6722C115.138 72.7938 116.039 71.5507 116.498 70.1241C116.648 69.6768 116.97 69.3075 117.392 69.0973C117.815 68.8871 118.303 68.8532 118.751 69.0034C119.198 69.1535 119.568 69.4755 119.778 69.898C119.988 70.3205 120.022 70.8092 119.871 71.2565C119.192 73.3989 117.84 75.2657 116.017 76.5801C114.194 77.8946 111.996 78.5871 109.749 78.5552Z" fill="#9FA8BA"/>
<path d="M95.6918 101.498C96.5444 101.498 97.3778 101.245 98.0868 100.772C98.7957 100.298 99.3482 99.6246 99.6745 98.8368C100.001 98.0491 100.086 97.1825 99.9198 96.3462C99.7535 95.51 99.3429 94.7419 98.7401 94.139C98.1372 93.5362 97.369 93.1254 96.5328 92.959C95.6966 92.7927 94.8298 92.8782 94.042 93.2045C93.2543 93.5308 92.5811 94.0832 92.1074 94.7922C91.6337 95.5011 91.3809 96.3346 91.3809 97.1872C91.3803 97.7535 91.4915 98.3142 91.7079 98.8375C91.9244 99.3608 92.2419 99.8363 92.6423 100.237C93.0427 100.637 93.5182 100.954 94.0414 101.171C94.5647 101.387 95.1255 101.499 95.6918 101.498Z" fill="#9FA8BA"/>
<path d="M17.1716 6.34393V0.000488281H41.6864V6.34393L24.9585 26.5343H41.9756V32.8781H16.3066V26.5343L33.0346 6.34393H17.1716Z" fill="#9FA8BA"/>
<path d="M37.3603 53.9279V49.8899H53.2233V53.9279L42.5511 66.9016H53.5111V70.9396H36.7832V66.9016L47.454 53.9279H37.3603Z" fill="#9FA8BA"/>
</svg>
