<svg width="128" height="107" viewBox="0 0 128 107" fill="none" xmlns="http://www.w3.org/2000/svg">
<path d="M71.0496 105.701C81.1011 105.721 90.9326 102.759 99.2998 97.1888C107.667 91.6189 114.194 83.6919 118.054 74.4112C121.914 65.1305 122.935 54.9131 120.986 45.0523C119.037 35.1915 114.207 26.1305 107.106 19.016C100.006 11.9014 90.954 7.05329 81.097 5.08504C71.2401 3.1168 61.0208 4.11691 51.7325 7.95889C42.4442 11.8009 34.5044 18.312 28.918 26.6682C23.3316 35.0243 20.3497 44.85 20.3497 54.9015C20.3395 61.5671 21.6433 68.1693 24.1864 74.3307C26.7295 80.492 30.4621 86.0918 35.1707 90.8097C39.8793 95.5276 45.4717 99.2712 51.628 101.826C57.7844 104.382 64.384 105.698 71.0496 105.701Z" fill="#F1F3F9" stroke="#D6DCE8" stroke-width="2" stroke-miterlimit="10"/>
<path d="M118.45 21.6004C119.26 21.6004 120.053 21.3599 120.727 20.9094C121.402 20.4589 121.927 19.8186 122.237 19.0694C122.548 18.3202 122.629 17.4959 122.471 16.7005C122.313 15.9052 121.922 15.1746 121.349 14.6012C120.775 14.0278 120.045 13.6374 119.249 13.4792C118.454 13.321 117.63 13.4022 116.881 13.7125C116.131 14.0228 115.491 14.5483 115.041 15.2226C114.59 15.8968 114.35 16.6895 114.35 17.5004C114.35 18.0388 114.456 18.5719 114.662 19.0694C114.868 19.5668 115.17 20.0188 115.55 20.3995C115.931 20.7802 116.383 21.0823 116.881 21.2883C117.378 21.4944 117.911 21.6004 118.45 21.6004Z" fill="#F1F3F9"/>
<path d="M124.45 5.6C125.004 5.6 125.546 5.4358 126.006 5.12814C126.466 4.82047 126.825 4.38318 127.037 3.87154C127.249 3.35991 127.305 2.79689 127.197 2.25375C127.089 1.7106 126.822 1.21168 126.43 0.820092C126.039 0.428505 125.54 0.161834 124.997 0.0537956C124.453 -0.054243 123.89 0.001233 123.379 0.213158C122.867 0.425084 122.43 0.783951 122.122 1.24441C121.815 1.70487 121.65 2.24622 121.65 2.80001C121.65 3.54262 121.945 4.25483 122.47 4.77993C122.996 5.30503 123.708 5.6 124.45 5.6Z" fill="#F1F3F9"/>
<path d="M23.05 21.5004C23.6038 21.5004 24.1451 21.3362 24.6056 21.0285C25.066 20.7209 25.425 20.2835 25.6369 19.7719C25.8488 19.2602 25.9042 18.6973 25.7962 18.1541C25.6882 17.611 25.4215 17.1121 25.0299 16.7205C24.6383 16.3289 24.1394 16.0622 23.5963 15.9542C23.0531 15.8461 22.4901 15.9016 21.9785 16.1135C21.4669 16.3255 21.0296 16.6843 20.7219 17.1448C20.4143 17.6053 20.25 18.1466 20.25 18.7004C20.25 19.443 20.545 20.1552 21.0701 20.6803C21.5952 21.2054 22.3074 21.5004 23.05 21.5004Z" fill="#F1F3F9"/>
<path d="M5.95001 75.5016C6.97848 75.5016 7.98385 75.1966 8.83899 74.6252C9.69413 74.0539 10.3606 73.2417 10.7542 72.2916C11.1478 71.3414 11.2508 70.2958 11.0501 69.2871C10.8495 68.2784 10.3542 67.3519 9.62695 66.6246C8.89972 65.8974 7.97318 65.4021 6.96448 65.2015C5.95578 65.0008 4.91026 65.1039 3.96008 65.4974C3.00991 65.891 2.19773 66.5575 1.62634 67.4126C1.05496 68.2677 0.75 69.2731 0.75 70.3016C0.75 70.9844 0.884489 71.6607 1.14581 72.2916C1.40714 72.9224 1.79021 73.4956 2.27307 73.9785C2.75594 74.4614 3.32919 74.8444 3.96008 75.1058C4.59098 75.3671 5.26714 75.5016 5.95001 75.5016Z" fill="#F1F3F9"/>
<path d="M108.549 29.4999L109.349 93.8999C109.345 94.4195 109.239 94.9333 109.035 95.4114C108.832 95.8895 108.535 96.3226 108.163 96.6853C107.791 97.0481 107.351 97.3333 106.868 97.5247C106.385 97.716 105.868 97.8095 105.349 97.7999H42.5488C41.5044 97.8022 40.5008 97.3952 39.753 96.6661C39.0052 95.9371 38.5729 94.944 38.5488 93.8999V11.0999C38.5523 10.5802 38.6589 10.0665 38.8624 9.58833C39.0659 9.11019 39.3623 8.67722 39.7343 8.31446C40.1064 7.9517 40.5467 7.66637 41.0298 7.47505C41.513 7.28372 42.0293 7.19023 42.5488 7.1999H88.0488L108.549 29.4999Z" fill="white" stroke="#D6DCE8" stroke-width="2" stroke-miterlimit="10"/>
<path d="M69.1482 84.9012H66.8482C66.5941 84.8501 66.3655 84.7126 66.2012 84.5121C66.037 84.3116 65.9473 84.0603 65.9473 83.8011C65.9473 83.542 66.037 83.2907 66.2012 83.0902C66.3655 82.8897 66.5941 82.7522 66.8482 82.7012H69.1482C69.412 82.7309 69.6538 82.8626 69.8219 83.0681C69.99 83.2736 70.0712 83.5366 70.0482 83.8011C70.0482 84.5011 69.6482 84.9012 69.1482 84.9012Z" fill="#D6DCE8"/>
<path d="M62.1505 84.9012H48.7505C48.4964 84.8501 48.2678 84.7126 48.1036 84.5121C47.9393 84.3116 47.8496 84.0603 47.8496 83.8011C47.8496 83.542 47.9393 83.2907 48.1036 83.0902C48.2678 82.8897 48.4964 82.7522 48.7505 82.7012H62.1505C62.4144 82.7309 62.6561 82.8626 62.8242 83.0681C62.9924 83.2736 63.0735 83.5366 63.0505 83.8011C63.0505 84.5011 62.6505 84.9012 62.1505 84.9012Z" fill="#D6DCE8"/>
<path d="M79.2496 20.7016H49.1496C48.8048 20.7016 48.4741 20.5646 48.2303 20.3208C47.9865 20.077 47.8496 19.7464 47.8496 19.4016C47.8496 19.0568 47.9865 18.7262 48.2303 18.4824C48.4741 18.2386 48.8048 18.1016 49.1496 18.1016H79.2496C79.5944 18.1016 79.925 18.2386 80.1688 18.4824C80.4126 18.7262 80.5496 19.0568 80.5496 19.4016C80.5496 19.7464 80.4126 20.077 80.1688 20.3208C79.925 20.5646 79.5944 20.7016 79.2496 20.7016Z" fill="#D6DCE8"/>
<path d="M60.7496 27.9008H49.1496C48.8048 27.9008 48.4741 27.7638 48.2303 27.52C47.9865 27.2762 47.8496 26.9456 47.8496 26.6008C47.8496 26.256 47.9865 25.9254 48.2303 25.6816C48.4741 25.4378 48.8048 25.3008 49.1496 25.3008H60.6496C60.9925 25.3069 61.3195 25.4459 61.562 25.6884C61.8045 25.9308 61.9434 26.2579 61.9496 26.6008C61.9485 26.9283 61.8246 27.2435 61.6025 27.4842C61.3803 27.7249 61.076 27.8735 60.7496 27.9008Z" fill="#D6DCE8"/>
<path d="M88.5625 7.20117V25.0012C88.6029 26.2165 89.1173 27.3678 89.9957 28.2087C90.874 29.0497 92.0466 29.5136 93.2625 29.5012H109.062" fill="#D6DCE8"/>
<path d="M113.349 99.3011C112.816 99.2996 112.29 99.1825 111.806 98.9581C111.323 98.7337 110.894 98.4072 110.549 98.0012L93.8489 81.3011L93.2488 81.7012C88.029 85.6292 81.6814 87.7684 75.1488 87.8011C67.2934 87.7396 59.7533 84.7021 54.0488 79.3011C51.0852 76.5005 48.73 73.1196 47.13 69.369C45.53 65.6185 44.7195 61.5786 44.7488 57.5012C44.7605 49.4687 47.9565 41.7685 53.6363 36.0887C59.3162 30.4089 67.0163 27.2128 75.0488 27.2012C80.5811 27.2082 86.006 28.7282 90.7367 31.5964C95.4673 34.4647 99.3234 38.5721 101.888 43.4742C104.452 48.3762 105.627 53.8863 105.285 59.408C104.943 64.9297 103.098 70.2527 99.9488 74.8011L99.5488 75.4012L116.349 92.2012C116.933 92.7309 117.342 93.4264 117.521 94.1948C117.7 94.9632 117.64 95.7678 117.349 96.5012C116.992 97.282 116.433 97.9533 115.73 98.4456C115.027 98.9379 114.205 99.2333 113.349 99.3011ZM75.0488 35.5012C69.214 35.5012 63.6183 37.819 59.4925 41.9448C55.3667 46.0706 53.0488 51.6664 53.0488 57.5012C53.0488 71.3012 64.3489 79.6011 75.3489 79.6011C79.0598 79.5683 82.7022 78.5973 85.937 76.7784C89.1718 74.9595 91.8939 72.3519 93.85 69.1981C95.8061 66.0444 96.9327 62.4471 97.1248 58.7409C97.3169 55.0348 96.5684 51.3402 94.9488 48.0012C93.1431 44.257 90.3181 41.0979 86.798 38.8868C83.278 36.6758 79.2057 35.5023 75.0488 35.5012Z" fill="#F1F3F9" stroke="#D6DCE8" stroke-width="2" stroke-miterlimit="10"/>
<path d="M65.5504 61.1008C66.025 61.1008 66.4891 60.96 66.8837 60.6963C67.2784 60.4326 67.5861 60.0577 67.7677 59.6192C67.9494 59.1806 67.9968 58.6981 67.9042 58.2325C67.8116 57.767 67.5831 57.3394 67.2474 57.0037C66.9118 56.6681 66.4842 56.4395 66.0186 56.3469C65.5531 56.2543 65.0705 56.3018 64.632 56.4834C64.1934 56.6651 63.8186 56.9727 63.5549 57.3674C63.2912 57.7621 63.1504 58.2261 63.1504 58.7008C63.1589 59.3347 63.4145 59.9402 63.8628 60.3884C64.311 60.8367 64.9165 61.0922 65.5504 61.1008Z" fill="#AAB2C5"/>
<path d="M83.9491 61.1008C84.4237 61.1008 84.8878 60.96 85.2824 60.6963C85.6771 60.4326 85.9847 60.0577 86.1663 59.6192C86.348 59.1806 86.3955 58.6981 86.3029 58.2325C86.2103 57.767 85.9818 57.3394 85.6461 57.0037C85.3105 56.6681 84.8828 56.4395 84.4173 56.3469C83.9517 56.2543 83.4691 56.3018 83.0306 56.4834C82.5921 56.6651 82.2172 56.9727 81.9535 57.3674C81.6898 57.7621 81.549 58.2261 81.549 58.7008C81.5449 59.0171 81.6042 59.3311 81.7233 59.6241C81.8424 59.9172 82.019 60.1834 82.2427 60.4071C82.4664 60.6308 82.7327 60.8074 83.0257 60.9266C83.3188 61.0457 83.6327 61.1049 83.9491 61.1008Z" fill="#AAB2C5"/>
<path d="M65.4578 50.7598L60.1777 53.6097L60.8907 54.9297L66.1697 52.0798L65.4578 50.7598Z" fill="#AAB2C5"/>
<path d="M83.6241 50.7227L82.9121 52.0427L88.1921 54.8926L88.9041 53.5727L83.6241 50.7227Z" fill="#AAB2C5"/>
<path d="M74.7492 66.7C76.2962 66.7 77.5492 65.76 77.5492 64.6C77.5492 63.44 76.2962 62.5 74.7492 62.5C73.2022 62.5 71.9492 63.44 71.9492 64.6C71.9492 65.76 73.2032 66.7 74.7492 66.7Z" fill="#AAB2C5"/>
</svg>
