<svg width="14" height="14" viewBox="0 0 14 14" fill="none" xmlns="http://www.w3.org/2000/svg">
<path d="M13.6667 5.44676C13.6246 5.32482 13.548 5.21772 13.4462 5.13843C13.3445 5.05915 13.2219 5.01109 13.0933 5.0001L9.3 4.44676L7.6 1.0001C7.54541 0.887383 7.46018 0.792325 7.35406 0.725812C7.24794 0.6593 7.12524 0.624023 7 0.624023C6.87476 0.624023 6.75206 0.6593 6.64594 0.725812C6.53982 0.792325 6.45459 0.887383 6.4 1.0001L4.7 4.4401L0.906666 5.0001C0.783281 5.01763 0.667282 5.06941 0.571833 5.14954C0.476384 5.22967 0.405306 5.33495 0.366666 5.45343C0.331296 5.56921 0.328122 5.69244 0.357485 5.80989C0.386847 5.92734 0.447638 6.03458 0.533333 6.1201L3.28667 8.78676L2.62 12.5734C2.59308 12.699 2.60304 12.8298 2.64866 12.9499C2.69428 13.0699 2.77362 13.1743 2.87715 13.2504C2.98068 13.3264 3.10398 13.371 3.23222 13.3786C3.36046 13.3862 3.48817 13.3567 3.6 13.2934L7 11.5134L10.4 13.2934C10.4936 13.3462 10.5992 13.3738 10.7067 13.3734C10.8479 13.3739 10.9856 13.3296 11.1 13.2468C11.2034 13.1727 11.2835 13.0705 11.3308 12.9524C11.378 12.8343 11.3905 12.7051 11.3667 12.5801L10.7 8.79343L13.4533 6.12676C13.5496 6.04522 13.6207 5.93803 13.6585 5.81766C13.6963 5.69729 13.6991 5.56868 13.6667 5.44676Z" fill="#E0A50F"/>
</svg>
