<svg width="80" height="100" viewBox="0 0 80 100" fill="none" xmlns="http://www.w3.org/2000/svg">
<path d="M78.15 8.24959C77.5691 7.7797 76.8903 7.44596 76.1635 7.2729C75.4367 7.09985 74.6803 7.09188 73.95 7.24959C68.6072 8.36931 63.0917 8.38357 57.7432 7.29151C52.3947 6.19944 47.3262 4.02416 42.85 0.89959C42.013 0.318953 41.0187 0.0078125 40 0.0078125C38.9814 0.0078125 37.987 0.318953 37.15 0.89959C32.6738 4.02416 27.6054 6.19944 22.2569 7.29151C16.9083 8.38357 11.3928 8.36931 6.05003 7.24959C5.31972 7.09188 4.56336 7.09985 3.83653 7.2729C3.10971 7.44596 2.43091 7.7797 1.85003 8.24959C1.26993 8.72018 0.802633 9.31477 0.48249 9.98967C0.162347 10.6646 -0.00251095 11.4026 2.89074e-05 12.1496V49.3996C-0.00441627 56.5683 1.70389 63.6344 4.9827 70.0094C8.26151 76.3844 13.0159 81.8837 18.85 86.0496L37.1 99.0496C37.9468 99.6525 38.9605 99.9765 40 99.9765C41.0395 99.9765 42.0532 99.6525 42.9 99.0496L61.15 86.0496C66.9841 81.8837 71.7385 76.3844 75.0174 70.0094C78.2962 63.6344 80.0045 56.5683 80 49.3996V12.1496C80.0026 11.4026 79.8377 10.6646 79.5176 9.98967C79.1974 9.31477 78.7301 8.72018 78.15 8.24959ZM70 49.3996C70.0039 54.9734 68.6765 60.4675 66.1283 65.4247C63.5801 70.3819 59.8848 74.6588 55.35 77.8996L40 88.8496L24.65 77.8996C20.1152 74.6588 16.42 70.3819 13.8718 65.4247C11.3236 60.4675 9.99619 54.9734 10 49.3996V17.8996C20.4822 18.7968 30.9802 16.3647 40 10.9496C49.0198 16.3647 59.5179 18.7968 70 17.8996V49.3996ZM47.7 37.9496L34.25 51.4496L29.8 46.9496C28.8585 46.0081 27.5815 45.4791 26.25 45.4791C24.9185 45.4791 23.6415 46.0081 22.7 46.9496C21.7585 47.8911 21.2296 49.1681 21.2296 50.4996C21.2296 51.8311 21.7585 53.1081 22.7 54.0496L30.7 62.0496C31.1648 62.5182 31.7179 62.8902 32.3271 63.144C32.9364 63.3979 33.59 63.5286 34.25 63.5286C34.9101 63.5286 35.5636 63.3979 36.1729 63.144C36.7822 62.8902 37.3352 62.5182 37.8 62.0496L55 44.9996C55.9415 44.0581 56.4705 42.7811 56.4705 41.4496C56.4705 40.1181 55.9415 38.8411 55 37.8996C54.0585 36.9581 52.7815 36.4291 51.45 36.4291C50.1185 36.4291 48.8415 36.9581 47.9 37.8996L47.7 37.9496Z" fill="#2EBB66"/>
</svg>

