<svg width="24" height="24" viewBox="0 0 24 24" fill="none" xmlns="http://www.w3.org/2000/svg">
<path d="M17.34 5.46049C17.1027 5.46049 16.8707 5.53087 16.6733 5.66272C16.476 5.79458 16.3222 5.982 16.2313 6.20127C16.1405 6.42054 16.1168 6.66182 16.1631 6.8946C16.2094 7.12737 16.3236 7.34119 16.4915 7.50902C16.6593 7.67684 16.8731 7.79113 17.1059 7.83743C17.3387 7.88373 17.5799 7.85997 17.7992 7.76914C18.0185 7.67832 18.2059 7.52451 18.3378 7.32717C18.4696 7.12983 18.54 6.89783 18.54 6.66049C18.54 6.34223 18.4136 6.037 18.1885 5.81196C17.9635 5.58692 17.6583 5.46049 17.34 5.46049V5.46049ZM21.94 7.88049C21.9206 7.05079 21.7652 6.22989 21.48 5.45049C21.2257 4.78362 20.83 4.17977 20.32 3.68049C19.8248 3.16791 19.2196 2.77466 18.55 2.53049C17.7727 2.23665 16.9508 2.0777 16.12 2.06049C15.06 2.00049 14.72 2.00049 12 2.00049C9.28 2.00049 8.94 2.00049 7.88 2.06049C7.04915 2.0777 6.22734 2.23665 5.45 2.53049C4.78168 2.77714 4.17693 3.17005 3.68 3.68049C3.16743 4.17567 2.77418 4.78093 2.53 5.45049C2.23616 6.22783 2.07721 7.04964 2.06 7.88049C2 8.94049 2 9.28049 2 12.0005C2 14.7205 2 15.0605 2.06 16.1205C2.07721 16.9513 2.23616 17.7731 2.53 18.5505C2.77418 19.22 3.16743 19.8253 3.68 20.3205C4.17693 20.8309 4.78168 21.2238 5.45 21.4705C6.22734 21.7643 7.04915 21.9233 7.88 21.9405C8.94 22.0005 9.28 22.0005 12 22.0005C14.72 22.0005 15.06 22.0005 16.12 21.9405C16.9508 21.9233 17.7727 21.7643 18.55 21.4705C19.2196 21.2263 19.8248 20.8331 20.32 20.3205C20.8322 19.8231 21.2283 19.2187 21.48 18.5505C21.7652 17.7711 21.9206 16.9502 21.94 16.1205C21.94 15.0605 22 14.7205 22 12.0005C22 9.28049 22 8.94049 21.94 7.88049V7.88049ZM20.14 16.0005C20.1327 16.6353 20.0178 17.2642 19.8 17.8605C19.6403 18.2957 19.3839 18.6889 19.05 19.0105C18.7256 19.341 18.3332 19.5969 17.9 19.7605C17.3037 19.9782 16.6748 20.0932 16.04 20.1005C15.04 20.1505 14.67 20.1605 12.04 20.1605C9.41 20.1605 9.04 20.1605 8.04 20.1005C7.38089 20.1128 6.72459 20.0113 6.1 19.8005C5.68578 19.6286 5.31136 19.3733 5 19.0505C4.66809 18.7292 4.41484 18.3357 4.26 17.9005C4.01586 17.2956 3.88044 16.6524 3.86 16.0005C3.86 15.0005 3.8 14.6305 3.8 12.0005C3.8 9.37049 3.8 9.00049 3.86 8.00049C3.86448 7.35154 3.98295 6.70843 4.21 6.10049C4.38605 5.6784 4.65626 5.30215 5 5.00049C5.30381 4.65666 5.67929 4.38358 6.1 4.20049C6.70955 3.98053 7.352 3.86557 8 3.86049C9 3.86049 9.37 3.80049 12 3.80049C14.63 3.80049 15 3.80049 16 3.86049C16.6348 3.86777 17.2637 3.98273 17.86 4.20049C18.3144 4.36914 18.7223 4.64333 19.05 5.00049C19.3777 5.30767 19.6338 5.68322 19.8 6.10049C20.0223 6.70942 20.1373 7.35227 20.14 8.00049C20.19 9.00049 20.2 9.37049 20.2 12.0005C20.2 14.6305 20.19 15.0005 20.14 16.0005ZM12 6.87049C10.9858 6.87247 9.99496 7.17501 9.15265 7.73991C8.31035 8.3048 7.65438 9.10668 7.26763 10.0442C6.88089 10.9818 6.78072 12.013 6.97979 13.0074C7.17886 14.0019 7.66824 14.915 8.38608 15.6315C9.10392 16.3479 10.018 16.8355 11.0129 17.0326C12.0077 17.2298 13.0387 17.1276 13.9755 16.739C14.9123 16.3505 15.7129 15.6929 16.2761 14.8495C16.8394 14.0061 17.14 13.0147 17.14 12.0005C17.1413 11.3256 17.0092 10.6571 16.7512 10.0334C16.4933 9.40979 16.1146 8.8433 15.6369 8.36654C15.1592 7.88978 14.5919 7.51217 13.9678 7.25542C13.3436 6.99867 12.6749 6.86785 12 6.87049V6.87049ZM12 15.3305C11.3414 15.3305 10.6976 15.1352 10.15 14.7693C9.60234 14.4034 9.17552 13.8833 8.92348 13.2748C8.67144 12.6663 8.6055 11.9968 8.73398 11.3508C8.86247 10.7049 9.17963 10.1115 9.64533 9.64582C10.111 9.18011 10.7044 8.86296 11.3503 8.73447C11.9963 8.60598 12.6659 8.67193 13.2743 8.92397C13.8828 9.17601 14.4029 9.60282 14.7688 10.1504C15.1347 10.6981 15.33 11.3419 15.33 12.0005C15.33 12.4378 15.2439 12.8708 15.0765 13.2748C14.9092 13.6788 14.6639 14.0459 14.3547 14.3552C14.0454 14.6644 13.6784 14.9097 13.2743 15.077C12.8703 15.2444 12.4373 15.3305 12 15.3305V15.3305Z" fill="#8798A1"/>
</svg>
