<svg width="30" height="34" viewBox="0 0 30 34" fill="none" xmlns="http://www.w3.org/2000/svg">
<path d="M21.6667 20.3335H8.33333C7.89131 20.3335 7.46738 20.5091 7.15482 20.8217C6.84226 21.1342 6.66667 21.5581 6.66667 22.0002C6.66667 22.4422 6.84226 22.8661 7.15482 23.1787C7.46738 23.4912 7.89131 23.6668 8.33333 23.6668H21.6667C22.1087 23.6668 22.5326 23.4912 22.8452 23.1787C23.1577 22.8661 23.3333 22.4422 23.3333 22.0002C23.3333 21.5581 23.1577 21.1342 22.8452 20.8217C22.5326 20.5091 22.1087 20.3335 21.6667 20.3335ZM21.6667 13.6668H11.6667C11.2246 13.6668 10.8007 13.8424 10.4882 14.155C10.1756 14.4675 10 14.8915 10 15.3335C10 15.7755 10.1756 16.1994 10.4882 16.512C10.8007 16.8246 11.2246 17.0002 11.6667 17.0002H21.6667C22.1087 17.0002 22.5326 16.8246 22.8452 16.512C23.1577 16.1994 23.3333 15.7755 23.3333 15.3335C23.3333 14.8915 23.1577 14.4675 22.8452 14.155C22.5326 13.8424 22.1087 13.6668 21.6667 13.6668ZM28.3333 3.66683H23.3333V2.00016C23.3333 1.55814 23.1577 1.13421 22.8452 0.821651C22.5326 0.509091 22.1087 0.333496 21.6667 0.333496C21.2246 0.333496 20.8007 0.509091 20.4882 0.821651C20.1756 1.13421 20 1.55814 20 2.00016V3.66683H16.6667V2.00016C16.6667 1.55814 16.4911 1.13421 16.1785 0.821651C15.8659 0.509091 15.442 0.333496 15 0.333496C14.558 0.333496 14.134 0.509091 13.8215 0.821651C13.5089 1.13421 13.3333 1.55814 13.3333 2.00016V3.66683H10V2.00016C10 1.55814 9.8244 1.13421 9.51184 0.821651C9.19928 0.509091 8.77536 0.333496 8.33333 0.333496C7.89131 0.333496 7.46738 0.509091 7.15482 0.821651C6.84226 1.13421 6.66667 1.55814 6.66667 2.00016V3.66683H1.66667C1.22464 3.66683 0.800716 3.84242 0.488155 4.15499C0.175595 4.46755 0 4.89147 0 5.3335V28.6668C0 29.9929 0.526784 31.2647 1.46447 32.2024C2.40215 33.14 3.67392 33.6668 5 33.6668H25C26.3261 33.6668 27.5979 33.14 28.5355 32.2024C29.4732 31.2647 30 29.9929 30 28.6668V5.3335C30 4.89147 29.8244 4.46755 29.5118 4.15499C29.1993 3.84242 28.7754 3.66683 28.3333 3.66683ZM26.6667 28.6668C26.6667 29.1089 26.4911 29.5328 26.1785 29.8453C25.866 30.1579 25.442 30.3335 25 30.3335H5C4.55797 30.3335 4.13405 30.1579 3.82149 29.8453C3.50893 29.5328 3.33333 29.1089 3.33333 28.6668V7.00016H6.66667V8.66683C6.66667 9.10886 6.84226 9.53278 7.15482 9.84534C7.46738 10.1579 7.89131 10.3335 8.33333 10.3335C8.77536 10.3335 9.19928 10.1579 9.51184 9.84534C9.8244 9.53278 10 9.10886 10 8.66683V7.00016H13.3333V8.66683C13.3333 9.10886 13.5089 9.53278 13.8215 9.84534C14.134 10.1579 14.558 10.3335 15 10.3335C15.442 10.3335 15.8659 10.1579 16.1785 9.84534C16.4911 9.53278 16.6667 9.10886 16.6667 8.66683V7.00016H20V8.66683C20 9.10886 20.1756 9.53278 20.4882 9.84534C20.8007 10.1579 21.2246 10.3335 21.6667 10.3335C22.1087 10.3335 22.5326 10.1579 22.8452 9.84534C23.1577 9.53278 23.3333 9.10886 23.3333 8.66683V7.00016H26.6667V28.6668Z" fill="#D56C0C"/>
</svg>
