<svg width="34" height="34" viewBox="0 0 34 34" fill="none" xmlns="http://www.w3.org/2000/svg">
<path d="M22.8833 20.5503C22.7284 20.3941 22.544 20.2701 22.341 20.1855C22.1379 20.1009 21.92 20.0573 21.7 20.0573C21.48 20.0573 21.2621 20.1009 21.059 20.1855C20.8559 20.2701 20.6716 20.3941 20.5167 20.5503C20.2062 20.8626 20.032 21.285 20.032 21.7253C20.032 22.1657 20.2062 22.5881 20.5167 22.9003L30.8167 33.2003C30.9716 33.3566 31.1559 33.4805 31.359 33.5652C31.5621 33.6498 31.78 33.6933 32 33.6933C32.22 33.6933 32.4379 33.6498 32.641 33.5652C32.8441 33.4805 33.0284 33.3566 33.1833 33.2003C33.4937 32.8881 33.668 32.4657 33.668 32.0253C33.668 31.585 33.4937 31.1626 33.1833 30.8503L22.8833 20.5503ZM24.9333 16.4003C26.259 16.3992 27.5299 15.8716 28.4667 14.9337L33.1833 10.217C33.4937 9.90474 33.668 9.48232 33.668 9.04201C33.668 8.6017 33.4937 8.17928 33.1833 7.86701C33.0284 7.7108 32.8441 7.58681 32.641 7.50219C32.4379 7.41758 32.22 7.37402 32 7.37402C31.78 7.37402 31.5621 7.41758 31.359 7.50219C31.1559 7.58681 30.9716 7.7108 30.8167 7.86701L26.1 12.5837C25.7877 12.8941 25.3653 13.0683 24.925 13.0683C24.4847 13.0683 24.0623 12.8941 23.75 12.5837L29.65 6.68368C29.9604 6.37141 30.1346 5.94899 30.1346 5.50868C30.1346 5.06837 29.9604 4.64595 29.65 4.33368C29.4951 4.17747 29.3107 4.05347 29.1076 3.96886C28.9045 3.88425 28.6867 3.84068 28.4667 3.84068C28.2466 3.84068 28.0288 3.88425 27.8257 3.96886C27.6226 4.05347 27.4383 4.17747 27.2833 4.33368L21.4 10.217C21.0896 9.90474 20.9153 9.48232 20.9153 9.04201C20.9153 8.6017 21.0896 8.17928 21.4 7.86701L26.1 3.15035C26.2745 3.00093 26.4162 2.81707 26.5162 2.6103C26.6162 2.40352 26.6725 2.1783 26.6813 1.94877C26.6902 1.71924 26.6515 1.49035 26.5677 1.27647C26.4839 1.0626 26.3568 0.868353 26.1944 0.705929C26.032 0.543504 25.8377 0.416408 25.6239 0.332617C25.41 0.248826 25.1811 0.21015 24.9516 0.219015C24.722 0.227881 24.4968 0.284098 24.29 0.384137C24.0833 0.484176 23.8994 0.625877 23.75 0.800346L19.0333 5.51701C18.097 6.45452 17.5711 7.72534 17.5711 9.05035C17.5711 10.3754 18.097 11.6462 19.0333 12.5837L17 14.6503L14.4 12.0837C15.1379 10.7519 15.417 9.21434 15.194 7.70823C14.9711 6.20212 14.2587 4.81125 13.1667 3.75035C10.7667 1.35035 4.54999 -1.33299 1.61666 1.65035C-1.31668 4.63368 1.33332 10.7837 3.66666 13.2003C4.96971 14.5081 6.72163 15.2708 8.56666 15.3337H8.79999C9.92686 15.3176 11.03 15.0074 12 14.4337L14.6167 17.0003L0.816657 30.8003C0.662354 30.9557 0.540169 31.14 0.45708 31.3426C0.37399 31.5452 0.331623 31.7622 0.332397 31.9812C0.33317 32.2002 0.37707 32.4169 0.46159 32.6189C0.546109 32.821 0.669593 33.0044 0.82499 33.1587C0.980388 33.313 1.16466 33.4352 1.36727 33.5183C1.56989 33.6013 1.78689 33.6437 2.00588 33.6429C2.22487 33.6422 2.44157 33.5983 2.64359 33.5137C2.84562 33.4292 3.02902 33.3057 3.18332 33.1503L18.1833 18.1503L21.3833 14.9503C21.8505 15.4138 22.4046 15.7804 23.0138 16.0292C23.623 16.278 24.2753 16.4042 24.9333 16.4003ZM11.05 11.067C10.7378 11.3774 10.3651 11.6204 9.95515 11.7809C9.5452 11.9415 9.10664 12.0162 8.66666 12.0003C7.69233 11.9584 6.77225 11.5402 6.09999 10.8337C4.29999 9.03368 3.03332 4.95035 3.98332 4.00035C4.29887 3.76232 4.68873 3.64418 5.08332 3.66701C7.21048 3.83656 9.22388 4.69693 10.8167 6.11701C11.4971 6.74655 11.9029 7.61828 11.9466 8.54425C11.9902 9.47023 11.6682 10.3763 11.05 11.067Z" fill="#D56C0C"/>
</svg>
