<svg width="49" height="43" viewBox="0 0 49 43" fill="none" xmlns="http://www.w3.org/2000/svg">
<path d="M24.6759 42.9639C18.5593 42.9639 12.4427 42.9677 6.32418 42.9524C5.96747 42.9524 5.57509 42.8565 5.26531 42.682C4.82788 42.4365 4.77343 41.957 4.77343 41.4679C4.78094 34.6899 4.77344 27.9139 4.78846 21.1359C4.79033 20.7082 4.65704 20.503 4.2947 20.2978C1.97422 18.9782 0.78018 16.928 0.667536 14.2256C0.656271 13.9571 0.755773 13.6521 0.889069 13.4124C3.20955 9.21405 5.54505 5.02337 7.87116 0.826932C8.14526 0.332106 8.53577 0.0808599 9.08397 0.0751061C9.2398 0.0731882 9.3975 0.0731863 9.55333 0.0731863C19.6444 0.0731863 29.7355 0.0808548 39.8247 0.0578396C40.7165 0.0559216 41.2591 0.368548 41.6965 1.17024C43.8367 5.08858 46.0014 8.99157 48.213 12.8677C48.6673 13.6656 48.78 14.4327 48.6185 15.2881C48.1942 17.5417 47.0152 19.2448 45.0289 20.3323C44.6947 20.5145 44.5764 20.7063 44.5764 21.0956C44.5896 27.8563 44.5858 34.619 44.5858 41.3797C44.5858 42.5304 44.1615 42.962 43.0257 42.9639C36.9091 42.9639 30.7925 42.9639 24.6759 42.9639ZM42.1978 40.5128C42.1978 34.0378 42.1978 27.6204 42.1978 21.1589C40.9774 21.2049 39.8416 20.9729 38.7696 20.4359C37.6882 19.8931 36.8284 19.078 36.1037 18.0845C34.6581 20.0753 32.7863 21.1551 30.3963 21.157C27.997 21.1589 26.1271 20.0465 24.6872 18.0883C23.2265 20.0791 21.3547 21.1589 18.9648 21.157C16.5673 21.1532 14.6918 20.0542 13.2575 18.0864C11.7255 20.2153 9.68475 21.2241 7.15963 21.1781C7.15963 27.6569 7.15963 34.0781 7.15963 40.5128C8.54891 40.5128 9.91004 40.5128 11.305 40.5128C11.305 40.2615 11.305 40.0544 11.305 39.8492C11.305 35.8522 11.2974 31.8571 11.3087 27.8602C11.3162 25.154 13.0171 23.4393 15.6643 23.4355C16.6499 23.4336 17.6393 23.3837 18.6193 23.4528C19.2614 23.4988 19.9448 23.6024 20.5174 23.8805C22.0813 24.638 22.8022 25.9959 22.806 27.7451C22.8154 31.8054 22.8097 35.8656 22.8097 39.9259C22.8097 40.1138 22.8097 40.3018 22.8097 40.5166C29.2962 40.5128 35.7338 40.5128 42.1978 40.5128ZM45.2448 12.5014C45.1922 12.3882 45.1641 12.3173 45.1284 12.252C43.3768 9.10088 41.6176 5.95164 39.8773 2.79281C39.7177 2.5032 39.5093 2.5032 39.2559 2.50512C29.5403 2.50704 19.8228 2.50896 10.1072 2.49745C9.76172 2.49745 9.58337 2.61444 9.41628 2.91748C7.73036 5.97849 6.02755 9.03184 4.33037 12.0871C4.26278 12.2079 4.20646 12.3345 4.12198 12.5033C17.8477 12.5014 31.5228 12.5014 45.2448 12.5014ZM20.4311 40.5166C20.4423 40.3881 20.4592 40.2807 20.4592 40.1714C20.4611 35.9999 20.4648 31.8284 20.4573 27.6569C20.4555 26.5445 19.7552 25.8483 18.6531 25.8387C17.6525 25.8291 16.6518 25.8348 15.6493 25.8368C14.3201 25.8387 13.6874 26.4773 13.6855 27.8276C13.6836 31.8878 13.6855 35.9462 13.6855 40.0064C13.6855 40.1752 13.6855 40.3421 13.6855 40.5166C15.976 40.5166 18.1913 40.5166 20.4311 40.5166ZM3.12319 14.9698C3.58128 17.2828 5.47747 18.8229 7.70408 18.7385C9.8387 18.656 11.6955 17.0219 11.9545 14.9698C9.02014 14.9698 6.0895 14.9698 3.12319 14.9698ZM14.5773 14.9698C14.7932 17.1984 17.0705 18.9418 19.436 18.7212C21.8053 18.4988 23.3711 16.32 23.3316 14.9698C20.4141 14.9698 17.4966 14.9698 14.5773 14.9698ZM34.8008 14.9717C31.8551 14.9717 28.9376 14.9717 26.0201 14.9717C26.1234 16.905 28.119 18.6637 30.2574 18.7385C32.4803 18.8152 34.5304 17.1313 34.8008 14.9717ZM46.2511 14.9909C43.2885 14.9909 40.3579 14.9909 37.4216 14.9909C37.6863 17.0469 39.5581 18.6771 41.7003 18.7443C43.8968 18.8152 45.8005 17.2617 46.2511 14.9909Z" fill="#354752"/>
<path d="M45.244 12.5013C31.5202 12.5013 17.847 12.5013 4.12121 12.5013C4.20569 12.3325 4.26201 12.2059 4.3296 12.0851C6.02678 9.02981 7.7296 5.97647 9.41551 2.91545C9.5826 2.61242 9.75908 2.49542 10.1064 2.49542C19.822 2.50501 29.5395 2.50309 39.2551 2.50309C39.5085 2.50309 39.7169 2.50309 39.8765 2.79078C41.6169 5.94961 43.376 9.09886 45.1276 12.25C45.1652 12.3191 45.1933 12.39 45.244 12.5013Z" fill="#D28E27"/>
<path d="M31.4908 35.1657C30.5052 35.1657 29.5196 35.1695 28.5339 35.1657C26.3787 35.1542 25.0476 33.8078 25.0363 31.6194C25.0288 30.0697 25.0269 28.5181 25.0363 26.9685C25.0494 24.8089 26.3955 23.4395 28.5058 23.4356C30.524 23.4318 32.5422 23.4318 34.5604 23.4356C36.6744 23.4395 38.0224 24.8069 38.0355 26.9627C38.043 28.5124 38.043 30.064 38.0355 31.6137C38.0261 33.8059 36.6969 35.1542 34.5416 35.1657C33.5241 35.1695 32.5065 35.1657 31.4908 35.1657ZM31.5246 32.7529C32.5553 32.7529 33.586 32.7587 34.6167 32.751C35.3527 32.7472 35.6718 32.4211 35.6756 31.6674C35.6812 30.087 35.6812 28.5066 35.6756 26.9263C35.6718 26.1783 35.3471 25.8407 34.6167 25.8388C32.5704 25.833 30.524 25.833 28.4776 25.8388C27.721 25.8407 27.4 26.1744 27.3981 26.955C27.3924 28.5201 27.3924 30.0832 27.3981 31.6482C27.4 32.4365 27.7079 32.7491 28.4795 32.7529C29.4933 32.7568 30.5089 32.7529 31.5246 32.7529Z" fill="#354752"/>
</svg>
