<svg width="136" height="113" viewBox="0 0 136 113" fill="none" xmlns="http://www.w3.org/2000/svg">
<path d="M75.4695 112C86.1199 112.021 96.5373 108.882 105.403 102.98C114.269 97.0784 121.184 88.6791 125.275 78.8454C129.365 69.0116 130.446 58.1855 128.381 47.7371C126.316 37.2887 121.198 27.6877 113.674 20.1493C106.151 12.6108 96.5599 7.47381 86.1156 5.38828C75.6713 3.30275 64.8431 4.36245 55.0013 8.43336C45.1595 12.5043 36.7466 19.4034 30.8274 28.2575C24.9081 37.1116 21.7485 47.5227 21.7485 58.1731C21.7378 65.2359 23.1192 72.2315 25.8139 78.76C28.5085 85.2885 32.4635 91.2219 37.4527 96.221C42.4419 101.22 48.3675 105.187 54.8907 107.894C61.4139 110.602 68.4067 111.997 75.4695 112Z" fill="#F1F3F9" stroke="#D6DCE8" stroke-width="2" stroke-miterlimit="10"/>
<path d="M125.694 22.8873C126.553 22.8873 127.393 22.6325 128.107 22.1552C128.822 21.6778 129.379 20.9993 129.707 20.2055C130.036 19.4117 130.122 18.5382 129.955 17.6955C129.787 16.8528 129.373 16.0787 128.766 15.4711C128.158 14.8636 127.384 14.4498 126.541 14.2822C125.699 14.1146 124.825 14.2006 124.031 14.5294C123.238 14.8583 122.559 15.4151 122.082 16.1295C121.604 16.8439 121.35 17.6838 121.35 18.5431C121.35 19.1136 121.462 19.6784 121.68 20.2055C121.899 20.7326 122.219 21.2115 122.622 21.6149C123.025 22.0183 123.504 22.3383 124.031 22.5567C124.558 22.775 125.123 22.8873 125.694 22.8873Z" fill="#F1F3F9"/>
<path d="M132.052 5.93368C132.639 5.93368 133.213 5.75971 133.701 5.4337C134.188 5.1077 134.569 4.64436 134.793 4.10224C135.018 3.56012 135.077 2.96355 134.962 2.38804C134.848 1.81253 134.565 1.28388 134.15 0.868958C133.735 0.454038 133.207 0.171477 132.631 0.0570011C132.056 -0.0574752 131.459 0.00130647 130.917 0.22586C130.375 0.450413 129.911 0.830664 129.585 1.31856C129.259 1.80645 129.085 2.38007 129.085 2.96685C129.085 3.75371 129.398 4.50836 129.954 5.06475C130.511 5.62114 131.265 5.93368 132.052 5.93368Z" fill="#F1F3F9"/>
<path d="M24.6097 22.7813C25.1965 22.7813 25.7701 22.6074 26.258 22.2814C26.7459 21.9554 27.1262 21.4919 27.3508 20.9498C27.5753 20.4077 27.634 19.8112 27.5196 19.2357C27.4051 18.6602 27.1225 18.1315 26.7076 17.7166C26.2927 17.3017 25.764 17.0191 25.1885 16.9047C24.613 16.7902 24.0165 16.849 23.4744 17.0735C22.9323 17.2981 22.4689 17.6783 22.1429 18.1662C21.8169 18.6541 21.6429 19.2277 21.6429 19.8145C21.6429 20.6014 21.9555 21.356 22.5119 21.9123C23.0683 22.4687 23.8229 22.7813 24.6097 22.7813Z" fill="#F1F3F9"/>
<path d="M6.49082 80.0007C7.58057 80.0007 8.64585 79.6775 9.55194 79.0721C10.458 78.4667 11.1643 77.6062 11.5813 76.5994C11.9983 75.5926 12.1074 74.4847 11.8948 73.4159C11.6822 72.3471 11.1574 71.3653 10.3869 70.5948C9.61629 69.8242 8.63454 69.2994 7.56573 69.0868C6.49693 68.8742 5.38911 68.9834 4.38232 69.4004C3.37552 69.8174 2.51495 70.5236 1.90952 71.4297C1.30409 72.3358 0.980957 73.4011 0.980957 74.4908C0.980957 75.2144 1.12346 75.9309 1.40036 76.5994C1.67725 77.2679 2.08315 77.8752 2.59478 78.3868C3.10642 78.8985 3.71383 79.3044 4.38232 79.5813C5.0508 79.8582 5.76726 80.0007 6.49082 80.0007Z" fill="#F1F3F9"/>
<path d="M115.203 31.2579L116.051 99.4953C116.047 100.046 115.934 100.59 115.719 101.097C115.503 101.603 115.189 102.062 114.795 102.447C114.401 102.831 113.934 103.133 113.422 103.336C112.91 103.539 112.363 103.638 111.813 103.628H45.2705C44.1638 103.63 43.1004 103.199 42.308 102.426C41.5157 101.654 41.0576 100.602 41.0321 99.4953V11.7615C41.0358 11.2109 41.1488 10.6665 41.3644 10.1599C41.58 9.65326 41.894 9.19449 42.2882 8.81012C42.6825 8.42574 43.149 8.12341 43.661 7.92068C44.1729 7.71795 44.7199 7.61889 45.2705 7.62914H93.4816L115.203 31.2579Z" fill="white" stroke="#D6DCE8" stroke-width="2" stroke-miterlimit="10"/>
<path d="M73.4548 89.96H71.0177C70.7485 89.9059 70.5062 89.7602 70.3322 89.5477C70.1582 89.3353 70.0631 89.0691 70.0631 88.7944C70.0631 88.5198 70.1582 88.2536 70.3322 88.0411C70.5062 87.8287 70.7485 87.683 71.0177 87.6289H73.4548C73.7343 87.6605 73.9905 87.8 74.1686 88.0177C74.3468 88.2355 74.4328 88.5142 74.4084 88.7944C74.4084 89.5361 73.9846 89.96 73.4548 89.96Z" fill="#D6DCE8"/>
<path d="M66.0401 89.96H51.8416C51.5724 89.9059 51.3302 89.7602 51.1562 89.5477C50.9822 89.3353 50.8871 89.0691 50.8871 88.7944C50.8871 88.5198 50.9822 88.2536 51.1562 88.0411C51.3302 87.8287 51.5724 87.683 51.8416 87.6289H66.0401C66.3197 87.6605 66.5758 87.8 66.754 88.0177C66.9321 88.2355 67.0182 88.5142 66.9937 88.7944C66.9937 89.5361 66.5699 89.96 66.0401 89.96Z" fill="#D6DCE8"/>
<path d="M84.1581 21.9351H52.2645C51.8992 21.9351 51.5488 21.79 51.2905 21.5317C51.0322 21.2733 50.8871 20.923 50.8871 20.5577C50.8871 20.1924 51.0322 19.842 51.2905 19.5837C51.5488 19.3253 51.8992 19.1802 52.2645 19.1802H84.1581C84.5234 19.1802 84.8738 19.3253 85.1321 19.5837C85.3904 19.842 85.5355 20.1924 85.5355 20.5577C85.5355 20.923 85.3904 21.2733 85.1321 21.5317C84.8738 21.79 84.5234 21.9351 84.1581 21.9351Z" fill="#D6DCE8"/>
<path d="M64.5557 29.5636H52.2645C51.8992 29.5636 51.5488 29.4184 51.2905 29.1601C51.0322 28.9017 50.8871 28.5514 50.8871 28.186C50.8871 27.8207 51.0322 27.4704 51.2905 27.2121C51.5488 26.9538 51.8992 26.8086 52.2645 26.8086H64.4498C64.8131 26.8151 65.1596 26.9623 65.4166 27.2193C65.6735 27.4762 65.8207 27.8228 65.8272 28.186C65.826 28.5331 65.6948 28.8671 65.4594 29.1221C65.224 29.3771 64.9016 29.5347 64.5557 29.5636Z" fill="#D6DCE8"/>
<path d="M94.0259 7.63037V26.491C94.0687 27.7788 94.6138 28.9986 95.5445 29.8897C96.4752 30.7808 97.7176 31.2723 99.006 31.2591H115.747" fill="#D6DCE8"/>
<path d="M120.289 105.218C119.725 105.216 119.167 105.092 118.655 104.854C118.143 104.617 117.688 104.271 117.322 103.84L99.6273 86.1454L98.9915 86.5692C93.4607 90.7313 86.7348 92.998 79.813 93.0327C71.4894 92.9674 63.5001 89.749 57.4557 84.0262C54.3155 81.0587 51.82 77.4763 50.1246 73.5023C48.4293 69.5282 47.5704 65.2477 47.6015 60.9272C47.6139 52.4161 51.0003 44.2571 57.0186 38.2389C63.0369 32.2206 71.1959 28.8341 79.707 28.8218C85.5689 28.8293 91.3171 30.4397 96.3296 33.4789C101.342 36.5181 105.428 40.8703 108.145 46.0644C110.862 51.2586 112.107 57.0969 111.745 62.9477C111.383 68.7984 109.428 74.4386 106.091 79.2581L105.667 79.8939L123.468 97.6949C124.087 98.2562 124.521 98.9932 124.71 99.8074C124.899 100.622 124.836 101.474 124.528 102.251C124.15 103.079 123.557 103.79 122.812 104.311C122.067 104.833 121.196 105.146 120.289 105.218ZM79.707 37.6163C73.5245 37.6163 67.5953 40.0723 63.2237 44.444C58.8521 48.8156 56.3961 54.7448 56.3961 60.9272C56.3961 75.5495 68.3695 84.3441 80.0249 84.3441C83.957 84.3093 87.8164 83.2804 91.244 81.3531C94.6715 79.4258 97.5558 76.6628 99.6285 73.3212C101.701 69.9795 102.895 66.1678 103.098 62.2409C103.302 58.3139 102.509 54.3992 100.793 50.8612C98.8795 46.8939 95.8861 43.5466 92.1563 41.2038C88.4265 38.8609 84.1115 37.6175 79.707 37.6163Z" fill="#F1F3F9" stroke="#D6DCE8" stroke-width="2" stroke-miterlimit="10"/>
<path d="M69.6425 64.7417C70.1455 64.7417 70.6372 64.5926 71.0554 64.3132C71.4736 64.0337 71.7995 63.6366 71.992 63.1719C72.1845 62.7072 72.2348 62.1959 72.1367 61.7026C72.0386 61.2093 71.7964 60.7562 71.4408 60.4006C71.0851 60.0449 70.632 59.8028 70.1387 59.7046C69.6454 59.6065 69.1341 59.6568 68.6694 59.8493C68.2048 60.0418 67.8076 60.3678 67.5282 60.786C67.2487 61.2041 67.0996 61.6958 67.0996 62.1988C67.1086 62.8704 67.3795 63.512 67.8544 63.987C68.3294 64.4619 68.9709 64.7327 69.6425 64.7417Z" fill="#AAB2C5"/>
<path d="M89.1376 64.7417C89.6405 64.7417 90.1322 64.5926 90.5504 64.3132C90.9686 64.0337 91.2945 63.6366 91.487 63.1719C91.6794 62.7072 91.7298 62.1959 91.6317 61.7026C91.5336 61.2093 91.2914 60.7562 90.9358 60.4006C90.5801 60.0449 90.1269 59.8028 89.6336 59.7046C89.1404 59.6065 88.629 59.6568 88.1644 59.8493C87.6997 60.0418 87.3025 60.3678 87.0231 60.786C86.7437 61.2041 86.5945 61.6958 86.5945 62.1988C86.5901 62.534 86.6529 62.8666 86.7792 63.1771C86.9054 63.4877 87.0925 63.7697 87.3295 64.0067C87.5665 64.2438 87.8487 64.4309 88.1592 64.5572C88.4697 64.6834 88.8024 64.7462 89.1376 64.7417Z" fill="#AAB2C5"/>
<path d="M69.5444 53.7842L63.9498 56.804L64.7053 58.2026L70.2988 55.1828L69.5444 53.7842Z" fill="#AAB2C5"/>
<path d="M88.7933 53.7451L88.0388 55.1438L93.6335 58.1636L94.3879 56.765L88.7933 53.7451Z" fill="#AAB2C5"/>
<path d="M79.3895 70.6744C81.0287 70.6744 82.3564 69.6783 82.3564 68.4492C82.3564 67.2201 81.0287 66.2241 79.3895 66.2241C77.7503 66.2241 76.4227 67.2201 76.4227 68.4492C76.4227 69.6783 77.7514 70.6744 79.3895 70.6744Z" fill="#AAB2C5"/>
</svg>
