<svg width="128" height="107" viewBox="0 0 128 107" fill="none" xmlns="http://www.w3.org/2000/svg">
<path d="M71.0494 105.702C81.101 105.722 90.9325 102.759 99.2996 97.189C107.667 91.6191 114.194 83.6922 118.054 74.4115C121.914 65.1307 122.934 54.9134 120.986 45.0526C119.037 35.1918 114.206 26.1307 107.106 19.0162C100.005 11.9017 90.9538 7.05354 81.0969 5.08529C71.2399 3.11704 61.0206 4.11715 51.7323 7.95913C42.444 11.8011 34.5042 18.3122 28.9178 26.6684C23.3314 35.0246 20.3495 44.8502 20.3495 54.9018C20.3394 61.5673 21.6431 68.1695 24.1862 74.3309C26.7293 80.4923 30.4619 86.092 35.1705 90.81C39.8792 95.5279 45.4715 99.2714 51.6279 101.827C57.7842 104.382 64.3838 105.699 71.0494 105.702Z" fill="#F1F3F9" stroke="#D6DCE8" stroke-width="2" stroke-miterlimit="10"/>
<path d="M118.449 21.6006C119.26 21.6006 120.053 21.3602 120.727 20.9096C121.401 20.4591 121.927 19.8188 122.237 19.0696C122.548 18.3204 122.629 17.4961 122.471 16.7008C122.312 15.9055 121.922 15.1749 121.349 14.6015C120.775 14.0281 120.045 13.6376 119.249 13.4794C118.454 13.3212 117.63 13.4024 116.88 13.7127C116.131 14.0231 115.491 14.5486 115.04 15.2228C114.59 15.8971 114.349 16.6897 114.349 17.5007C114.349 18.0391 114.455 18.5722 114.661 19.0696C114.868 19.5671 115.17 20.019 115.55 20.3998C115.931 20.7805 116.383 21.0825 116.88 21.2886C117.378 21.4946 117.911 21.6006 118.449 21.6006Z" fill="#F1F3F9"/>
<path d="M124.45 5.60024C125.004 5.60024 125.545 5.43605 126.006 5.12838C126.466 4.82071 126.825 4.38342 127.037 3.87179C127.249 3.36016 127.304 2.79714 127.196 2.25399C127.088 1.71084 126.822 1.21192 126.43 0.820336C126.039 0.428749 125.54 0.162078 124.996 0.0540397C124.453 -0.0539989 123.89 0.00147714 123.379 0.213403C122.867 0.425328 122.43 0.784195 122.122 1.24465C121.814 1.70511 121.65 2.24647 121.65 2.80026C121.65 3.54286 121.945 4.25507 122.47 4.78017C122.995 5.30528 123.708 5.60024 124.45 5.60024Z" fill="#F1F3F9"/>
<path d="M23.0498 21.5006C23.6036 21.5006 24.145 21.3364 24.6054 21.0288C25.0659 20.7211 25.4248 20.2838 25.6367 19.7721C25.8486 19.2605 25.9041 18.6975 25.796 18.1544C25.688 17.6112 25.4213 17.1123 25.0297 16.7207C24.6381 16.3291 24.1392 16.0625 23.5961 15.9544C23.0529 15.8464 22.49 15.9019 21.9783 16.1138C21.4667 16.3257 21.0294 16.6846 20.7217 17.145C20.4141 17.6055 20.2498 18.1469 20.2498 18.7006C20.2498 19.4433 20.5448 20.1554 21.0699 20.6805C21.595 21.2056 22.3072 21.5006 23.0498 21.5006Z" fill="#F1F3F9"/>
<path d="M5.94983 75.5018C6.97829 75.5018 7.98367 75.1969 8.83881 74.6255C9.69394 74.0541 10.3605 73.242 10.754 72.2918C11.1476 71.3416 11.2506 70.296 11.0499 69.2873C10.8493 68.2786 10.354 67.3521 9.62677 66.6249C8.89954 65.8976 7.973 65.4024 6.96429 65.2017C5.95559 65.0011 4.91008 65.1041 3.9599 65.4977C3.00972 65.8912 2.19754 66.5577 1.62616 67.4128C1.05478 68.268 0.749817 69.2733 0.749817 70.3018C0.749817 70.9847 0.884305 71.6609 1.14563 72.2918C1.40695 72.9227 1.79002 73.4959 2.27289 73.9788C2.75575 74.4616 3.32901 74.8447 3.9599 75.106C4.59079 75.3673 5.26696 75.5018 5.94983 75.5018Z" fill="#F1F3F9"/>
<path d="M108.549 29.5001L109.349 93.9002C109.345 94.4198 109.239 94.9335 109.035 95.4116C108.832 95.8898 108.535 96.3228 108.163 96.6856C107.791 97.0483 107.351 97.3336 106.868 97.5249C106.385 97.7162 105.868 97.8098 105.349 97.8001H42.5486C41.5043 97.8025 40.5006 97.3955 39.7528 96.6664C39.005 95.9373 38.5727 94.9443 38.5486 93.9002V11.1001C38.5521 10.5805 38.6587 10.0667 38.8622 9.58857C39.0657 9.11044 39.3621 8.67746 39.7341 8.31471C40.1062 7.95195 40.5465 7.66662 41.0297 7.47529C41.5128 7.28396 42.0291 7.19047 42.5486 7.20014H88.0486L108.549 29.5001Z" fill="white" stroke="#D6DCE8" stroke-width="2" stroke-miterlimit="10"/>
<path d="M69.148 84.9014H66.848C66.5939 84.8504 66.3653 84.7129 66.201 84.5123C66.0368 84.3118 65.9471 84.0606 65.9471 83.8014C65.9471 83.5422 66.0368 83.291 66.201 83.0905C66.3653 82.8899 66.5939 82.7525 66.848 82.7014H69.148C69.4118 82.7312 69.6536 82.8629 69.8217 83.0684C69.9898 83.2739 70.071 83.5369 70.048 83.8014C70.048 84.5014 69.648 84.9014 69.148 84.9014Z" fill="#D6DCE8"/>
<path d="M62.1503 84.9014H48.7503C48.4962 84.8504 48.2676 84.7129 48.1034 84.5123C47.9392 84.3118 47.8494 84.0606 47.8494 83.8014C47.8494 83.5422 47.9392 83.291 48.1034 83.0905C48.2676 82.8899 48.4962 82.7525 48.7503 82.7014H62.1503C62.4142 82.7312 62.6559 82.8629 62.824 83.0684C62.9922 83.2739 63.0734 83.5369 63.0503 83.8014C63.0503 84.5014 62.6503 84.9014 62.1503 84.9014Z" fill="#D6DCE8"/>
<path d="M79.2494 20.7018H49.1494C48.8046 20.7018 48.474 20.5648 48.2302 20.321C47.9864 20.0772 47.8494 19.7466 47.8494 19.4019C47.8494 19.0571 47.9864 18.7264 48.2302 18.4826C48.474 18.2388 48.8046 18.1018 49.1494 18.1018H79.2494C79.5942 18.1018 79.9248 18.2388 80.1686 18.4826C80.4124 18.7264 80.5494 19.0571 80.5494 19.4019C80.5494 19.7466 80.4124 20.0772 80.1686 20.321C79.9248 20.5648 79.5942 20.7018 79.2494 20.7018Z" fill="#D6DCE8"/>
<path d="M60.7494 27.9011H49.1494C48.8046 27.9011 48.474 27.7641 48.2302 27.5203C47.9864 27.2765 47.8494 26.9458 47.8494 26.601C47.8494 26.2562 47.9864 25.9256 48.2302 25.6818C48.474 25.438 48.8046 25.301 49.1494 25.301H60.6494C60.9923 25.3072 61.3194 25.4461 61.5618 25.6886C61.8043 25.9311 61.9432 26.2582 61.9494 26.601C61.9483 26.9285 61.8245 27.2438 61.6023 27.4844C61.3801 27.7251 61.0758 27.8738 60.7494 27.9011Z" fill="#D6DCE8"/>
<path d="M88.5623 7.20142V25.0014C88.6027 26.2167 89.1171 27.368 89.9955 28.209C90.8738 29.0499 92.0464 29.5138 93.2623 29.5014H109.062" fill="#D6DCE8"/>
<path d="M113.349 99.3014C112.816 99.2998 112.289 99.1828 111.806 98.9584C111.323 98.734 110.894 98.4075 110.549 98.0014L93.8487 81.3014L93.2486 81.7014C88.0289 85.6294 81.6812 87.7687 75.1487 87.8014C67.2932 87.7398 59.7532 84.7024 54.0486 79.3014C51.085 76.5007 48.7299 73.1198 47.1299 69.3693C45.5299 65.6187 44.7193 61.5789 44.7486 57.5014C44.7603 49.4689 47.9563 41.7688 53.6361 36.0889C59.316 30.4091 67.0161 27.2131 75.0486 27.2014C80.5809 27.2085 86.0059 28.7284 90.7365 31.5967C95.4671 34.465 99.3232 38.5724 101.888 43.4744C104.452 48.3765 105.627 53.8865 105.285 59.4082C104.943 64.9299 103.098 70.253 99.9486 74.8014L99.5486 75.4014L116.349 92.2014C116.933 92.7312 117.342 93.4267 117.521 94.1951C117.7 94.9635 117.64 95.7681 117.349 96.5014C116.992 97.2823 116.433 97.9536 115.73 98.4459C115.026 98.9382 114.204 99.2335 113.349 99.3014ZM75.0486 35.5014C69.2139 35.5014 63.6181 37.8193 59.4923 41.9451C55.3665 46.0709 53.0486 51.6666 53.0486 57.5014C53.0486 71.3014 64.3487 79.6014 75.3487 79.6014C79.0596 79.5686 82.702 78.5975 85.9368 76.7786C89.1716 74.9597 91.8937 72.3521 93.8498 69.1984C95.8059 66.0446 96.9325 62.4473 97.1246 58.7411C97.3167 55.035 96.5682 51.3405 94.9486 48.0014C93.1429 44.2572 90.3179 41.0982 86.7978 38.8871C83.2778 36.676 79.2055 35.5025 75.0486 35.5014Z" fill="#F1F3F9" stroke="#D6DCE8" stroke-width="2" stroke-miterlimit="10"/>
<path d="M65.5502 61.101C66.0248 61.101 66.4889 60.9602 66.8835 60.6965C67.2782 60.4328 67.5859 60.058 67.7675 59.6194C67.9492 59.1809 67.9967 58.6983 67.9041 58.2328C67.8114 57.7672 67.5829 57.3396 67.2473 57.004C66.9116 56.6683 66.484 56.4398 66.0184 56.3472C65.5529 56.2545 65.0703 56.302 64.6318 56.4837C64.1932 56.6653 63.8184 56.973 63.5547 57.3677C63.291 57.7623 63.1502 58.2264 63.1502 58.701C63.1587 59.3349 63.4144 59.9404 63.8626 60.3887C64.3109 60.8369 64.9163 61.0925 65.5502 61.101Z" fill="#AAB2C5"/>
<path d="M83.9489 61.101C84.4235 61.101 84.8876 60.9602 85.2822 60.6965C85.6769 60.4328 85.9845 60.058 86.1662 59.6194C86.3478 59.1809 86.3954 58.6983 86.3028 58.2328C86.2102 57.7672 85.9816 57.3396 85.646 57.004C85.3103 56.6683 84.8826 56.4398 84.4171 56.3472C83.9515 56.2545 83.469 56.302 83.0304 56.4837C82.5919 56.6653 82.217 56.973 81.9533 57.3677C81.6896 57.7623 81.5489 58.2264 81.5489 58.701C81.5447 59.0174 81.604 59.3313 81.7231 59.6244C81.8422 59.9174 82.0188 60.1836 82.2425 60.4073C82.4662 60.631 82.7325 60.8077 83.0255 60.9268C83.3186 61.0459 83.6325 61.1052 83.9489 61.101Z" fill="#AAB2C5"/>
<path d="M65.4576 50.76L60.1776 53.61L60.8906 54.93L66.1696 52.08L65.4576 50.76Z" fill="#AAB2C5"/>
<path d="M83.624 50.7229L82.9119 52.0429L88.192 54.8929L88.9039 53.5729L83.624 50.7229Z" fill="#AAB2C5"/>
<path d="M74.749 66.7003C76.296 66.7003 77.549 65.7602 77.549 64.6002C77.549 63.4402 76.296 62.5002 74.749 62.5002C73.202 62.5002 71.949 63.4402 71.949 64.6002C71.949 65.7602 73.203 66.7003 74.749 66.7003Z" fill="#AAB2C5"/>
</svg>
