<svg width="14" height="21" viewBox="0 0 14 21" fill="none" xmlns="http://www.w3.org/2000/svg">
<path d="M11 0.000244141H3.00001C2.20436 0.000244141 1.4413 0.316315 0.878688 0.878924C0.316078 1.44153 7.88292e-06 2.20459 7.88292e-06 3.00024V19.0002C-0.000691684 19.1765 0.0451825 19.3497 0.132986 19.5025C0.220789 19.6553 0.347404 19.7821 0.500008 19.8702C0.652027 19.958 0.824471 20.0042 1.00001 20.0042C1.17554 20.0042 1.34799 19.958 1.50001 19.8702L7.00001 16.6902L12.5 19.8702C12.6524 19.9566 12.8248 20.0015 13 20.0002C13.1752 20.0015 13.3476 19.9566 13.5 19.8702C13.6526 19.7821 13.7792 19.6553 13.867 19.5025C13.9548 19.3497 14.0007 19.1765 14 19.0002V3.00024C14 2.20459 13.6839 1.44153 13.1213 0.878924C12.5587 0.316315 11.7957 0.000244141 11 0.000244141Z" fill="#D56C0C"/>
</svg>
