<svg width="184" height="137" viewBox="0 0 184 137" fill="none" xmlns="http://www.w3.org/2000/svg">
<path d="M90.9182 136C103.884 136.026 116.565 132.204 127.358 125.02C138.151 117.835 146.57 107.61 151.549 95.6386C156.529 83.6673 157.845 70.4879 155.331 57.7684C152.817 45.0488 146.587 33.3609 137.428 24.1839C128.269 15.0068 116.593 8.75316 103.878 6.2143C91.1639 3.67545 77.9819 4.96558 66.0009 9.92137C54.0198 14.8772 43.7782 23.2758 36.5723 34.0545C29.3663 44.8332 25.52 57.5073 25.52 70.4728C25.5069 79.0708 27.1886 87.587 30.469 95.5347C33.7494 103.482 38.564 110.705 44.6377 116.791C50.7114 122.877 57.925 127.706 65.8662 131.002C73.8073 134.298 82.3203 135.996 90.9182 136Z" fill="#F1F3F9" stroke="#D6DCE8" stroke-width="2" stroke-miterlimit="10"/>
<path d="M29.0033 27.391C29.7176 27.391 30.4158 27.1793 31.0098 26.7825C31.6037 26.3856 32.0667 25.8215 32.3401 25.1616C32.6134 24.5016 32.6849 23.7754 32.5456 23.0748C32.4062 22.3742 32.0622 21.7305 31.5571 21.2254C31.052 20.7203 30.4084 20.3764 29.7078 20.237C29.0072 20.0977 28.2811 20.1692 27.6211 20.4425C26.9611 20.7159 26.3971 21.1788 26.0002 21.7727C25.6034 22.3667 25.3915 23.0651 25.3915 23.7794C25.3915 24.7373 25.772 25.6559 26.4494 26.3332C27.1267 27.0106 28.0454 27.391 29.0033 27.391Z" fill="#F1F3F9"/>
<path d="M6.94581 97.045C8.27243 97.045 9.56927 96.6516 10.6723 95.9146C11.7754 95.1776 12.6351 94.1301 13.1428 92.9045C13.6505 91.6788 13.7833 90.33 13.5245 89.0289C13.2656 87.7278 12.6268 86.5326 11.6887 85.5946C10.7507 84.6565 9.55551 84.0177 8.25438 83.7589C6.95325 83.5001 5.60463 83.6329 4.37899 84.1406C3.15335 84.6483 2.10579 85.5079 1.36876 86.611C0.631729 87.714 0.238281 89.0109 0.238281 90.3376C0.238281 92.1165 0.944998 93.8225 2.2029 95.0804C3.4608 96.3383 5.16687 97.045 6.94581 97.045Z" fill="#F1F3F9"/>
<path d="M153.235 36.0599V111.958C153.224 113.037 152.79 114.068 152.027 114.83C151.264 115.592 150.232 116.025 149.153 116.034H33.8263C33.2947 116.047 32.7659 115.954 32.271 115.759C31.7762 115.565 31.3252 115.273 30.9448 114.902C30.5643 114.53 30.262 114.087 30.0557 113.596C29.8495 113.106 29.7434 112.58 29.7437 112.048V36.0599C29.7403 35.5225 29.8435 34.9898 30.0474 34.4925C30.2513 33.9953 30.5518 33.5434 30.9314 33.1631C31.3111 32.7828 31.7626 32.4816 32.2595 32.2769C32.7564 32.0723 33.2889 31.9683 33.8263 31.9708H149.158C149.695 31.9688 150.227 32.0731 150.724 32.278C151.22 32.4829 151.671 32.7843 152.05 33.1645C152.429 33.5448 152.729 33.9965 152.933 34.4935C153.136 34.9904 153.239 35.5229 153.235 36.0599Z" fill="white" stroke="#D6DCE8" stroke-width="2" stroke-miterlimit="10"/>
<path d="M153.235 36.0599V41.903H29.7437V36.0599C29.7403 35.5225 29.8435 34.9898 30.0474 34.4925C30.2513 33.9953 30.5518 33.5434 30.9314 33.1631C31.3111 32.7828 31.7626 32.4816 32.2595 32.2769C32.7564 32.0723 33.2889 31.9683 33.8263 31.9708H149.158C149.695 31.9688 150.227 32.0731 150.724 32.278C151.22 32.4829 151.671 32.7843 152.05 33.1645C152.429 33.5448 152.729 33.9965 152.933 34.4935C153.136 34.9904 153.239 35.5229 153.235 36.0599Z" fill="#F1F3F9" stroke="#D6DCE8" stroke-width="2" stroke-miterlimit="10"/>
<path d="M74.4645 71.3125C75.143 71.312 75.8061 71.1104 76.37 70.7331C76.934 70.3557 77.3733 69.8197 77.6326 69.1926C77.8919 68.5656 77.9595 67.8758 77.8269 67.2104C77.6942 66.545 77.3672 65.9338 76.8872 65.4543C76.4073 64.9747 75.7959 64.6481 75.1304 64.516C74.4649 64.3838 73.7751 64.4519 73.1483 64.7117C72.5215 64.9714 71.9858 65.4112 71.6089 65.9754C71.232 66.5396 71.0308 67.2028 71.0308 67.8813C71.0308 68.3321 71.1196 68.7786 71.2922 69.195C71.4648 69.6115 71.7177 69.9898 72.0366 70.3084C72.3555 70.6271 72.7341 70.8798 73.1506 71.0521C73.5672 71.2244 74.0137 71.3129 74.4645 71.3125Z" fill="#9FA8BA"/>
<path d="M108.608 71.3125C109.286 71.3122 109.95 71.1107 110.514 70.7335C111.078 70.3563 111.517 69.8204 111.777 69.1934C112.036 68.5664 112.104 67.8766 111.972 67.2111C111.839 66.5457 111.512 65.9344 111.032 65.4547C110.552 64.975 109.941 64.6484 109.275 64.5161C108.61 64.3838 107.92 64.4517 107.293 64.7115C106.666 64.9712 106.13 65.411 105.754 65.9752C105.377 66.5395 105.175 67.2027 105.175 67.8813C105.176 68.7914 105.538 69.6642 106.181 70.3076C106.825 70.951 107.698 71.3125 108.608 71.3125Z" fill="#9FA8BA"/>
<path d="M97.1025 93.8611H86.3395C85.527 93.8611 84.7478 93.5384 84.1733 92.9639C83.5988 92.3894 83.276 91.6101 83.276 90.7976C83.276 89.9851 83.5988 89.2059 84.1733 88.6314C84.7478 88.0569 85.527 87.734 86.3395 87.734H97.0083C97.8191 87.7428 98.5941 88.0693 99.1667 88.6434C99.7393 89.2174 100.064 89.9932 100.071 90.804C100.085 91.2018 100.019 91.5984 99.8756 91.9698C99.7326 92.3413 99.5159 92.68 99.2387 92.9656C98.9614 93.2512 98.6292 93.4778 98.2621 93.6317C97.895 93.7855 97.5005 93.8636 97.1025 93.8611Z" fill="#9FA8BA"/>
<path d="M35.2182 38.6519C35.4937 38.6521 35.7632 38.5706 35.9925 38.4177C36.2217 38.2648 36.4005 38.0473 36.5061 37.7928C36.6117 37.5382 36.6395 37.2582 36.5859 36.9878C36.5323 36.7175 36.3997 36.4692 36.205 36.2742C36.0102 36.0793 35.7619 35.9464 35.4917 35.8926C35.2214 35.8387 34.9412 35.8662 34.6866 35.9716C34.4319 36.077 34.2144 36.2556 34.0612 36.4848C33.9081 36.7139 33.8263 36.9832 33.8263 37.2588C33.8258 37.4418 33.8615 37.6231 33.9312 37.7923C34.001 37.9615 34.1035 38.1151 34.2328 38.2445C34.3621 38.374 34.5157 38.4766 34.6848 38.5465C34.8539 38.6164 35.0352 38.6522 35.2182 38.6519Z" fill="#9FA8BA"/>
<path d="M39.5778 38.6518C39.8534 38.6523 40.123 38.571 40.3524 38.4183C40.5818 38.2655 40.7608 38.0481 40.8667 37.7936C40.9725 37.5391 41.0004 37.259 40.947 36.9886C40.8935 36.7181 40.761 36.4697 40.5663 36.2746C40.3716 36.0795 40.1234 35.9466 39.8531 35.8926C39.5828 35.8387 39.3026 35.8662 39.0479 35.9715C38.7931 36.0769 38.5754 36.2554 38.4222 36.4845C38.269 36.7137 38.1873 36.9831 38.1873 37.2588C38.1868 37.4416 38.2223 37.6228 38.292 37.7919C38.3616 37.961 38.464 38.1147 38.5932 38.2441C38.7224 38.3736 38.8759 38.4762 39.0449 38.5461C39.2138 38.6161 39.3949 38.652 39.5778 38.6518Z" fill="#9FA8BA"/>
<path d="M44.0307 38.6519C44.3063 38.6521 44.5757 38.5706 44.805 38.4177C45.0343 38.2648 45.2131 38.0473 45.3187 37.7928C45.4244 37.5382 45.4521 37.2582 45.3985 36.9878C45.3449 36.7175 45.2123 36.4692 45.0175 36.2742C44.8227 36.0793 44.5746 35.9464 44.3043 35.8926C44.034 35.8387 43.7538 35.8662 43.4992 35.9716C43.2446 36.077 43.0269 36.2556 42.8738 36.4848C42.7206 36.7139 42.6389 36.9832 42.6389 37.2588C42.6384 37.4418 42.674 37.6231 42.7438 37.7923C42.8135 37.9615 42.916 38.1151 43.0453 38.2445C43.1746 38.374 43.3283 38.4766 43.4974 38.5465C43.6665 38.6164 43.8477 38.6522 44.0307 38.6519Z" fill="#9FA8BA"/>
<path d="M148.225 22.1401C148.005 22.1411 147.786 22.0984 147.582 22.0145C147.378 21.9306 147.193 21.8071 147.037 21.6512C146.881 21.4953 146.758 21.31 146.674 21.1061C146.59 20.9022 146.547 20.6837 146.548 20.4632V1.82409C146.528 1.59239 146.556 1.35895 146.631 1.13867C146.705 0.918396 146.825 0.716106 146.982 0.544581C147.139 0.373056 147.33 0.236132 147.543 0.14243C147.756 0.0487275 147.986 0.000244141 148.219 0.000244141C148.451 0.000244141 148.681 0.0487275 148.894 0.14243C149.107 0.236132 149.298 0.373056 149.455 0.544581C149.612 0.716106 149.732 0.918396 149.807 1.13867C149.882 1.35895 149.91 1.59239 149.889 1.82409V20.4632C149.89 20.6826 149.848 20.9 149.765 21.1031C149.682 21.3062 149.559 21.4909 149.405 21.6466C149.25 21.8024 149.067 21.9262 148.864 22.0108C148.662 22.0955 148.445 22.1394 148.225 22.1401Z" fill="#9FA8BA"/>
<path d="M161.773 36.434C161.771 36.2141 161.814 35.9961 161.897 35.7926C161.98 35.5891 162.103 35.4041 162.258 35.2483C162.413 35.0924 162.598 34.9689 162.801 34.8846C163.004 34.8003 163.222 34.757 163.442 34.7572H182.091C182.311 34.7572 182.528 34.8003 182.731 34.8842C182.933 34.9682 183.117 35.0913 183.272 35.2464C183.428 35.4015 183.551 35.5856 183.634 35.7882C183.718 35.9909 183.762 36.2081 183.762 36.4275C183.762 36.6469 183.718 36.8641 183.634 37.0668C183.551 37.2695 183.428 37.4536 183.272 37.6088C183.117 37.7639 182.933 37.8868 182.731 37.9708C182.528 38.0547 182.311 38.098 182.091 38.098H163.442C163.223 38.0985 163.006 38.0559 162.804 37.9725C162.601 37.8891 162.417 37.7666 162.262 37.6121C162.107 37.4575 161.984 37.274 161.9 37.0718C161.816 36.8697 161.773 36.6529 161.773 36.434Z" fill="#9FA8BA"/>
<path d="M160.288 24.3585C159.975 24.035 159.8 23.6026 159.8 23.1525C159.8 22.7025 159.975 22.2699 160.288 21.9464L173.554 8.7765C173.877 8.46863 174.307 8.29907 174.752 8.30413C175.198 8.30918 175.624 8.48848 175.939 8.80359C176.255 9.11869 176.434 9.54465 176.44 9.99036C176.445 10.4361 176.275 10.8661 175.968 11.1886L162.793 24.3585C162.453 24.6758 162.005 24.8523 161.54 24.8523C161.075 24.8523 160.628 24.6758 160.288 24.3585Z" fill="#9FA8BA"/>
</svg>
