<svg width="32" height="34" viewBox="0 0 32 34" fill="none" xmlns="http://www.w3.org/2000/svg">
<path d="M16 7.00016H11.4301C11.0261 7.00016 10.6387 7.17576 10.353 7.48832C10.0673 7.80088 9.90681 8.2248 9.90681 8.66683V25.3335C9.90681 25.7755 10.0673 26.1994 10.353 26.512C10.6387 26.8246 11.0261 27.0002 11.4301 27.0002C11.8341 27.0002 12.2216 26.8246 12.5072 26.512C12.7929 26.1994 12.9534 25.7755 12.9534 25.3335V20.3335H16C17.616 20.3335 19.1658 19.6311 20.3085 18.3809C21.4512 17.1306 22.0932 15.4349 22.0932 13.6668C22.0932 11.8987 21.4512 10.203 20.3085 8.95278C19.1658 7.70254 17.616 7.00016 16 7.00016ZM16 17.0002H12.9534V10.3335H16C16.808 10.3335 17.5829 10.6847 18.1543 11.3098C18.7256 11.9349 19.0466 12.7828 19.0466 13.6668C19.0466 14.5509 18.7256 15.3987 18.1543 16.0239C17.5829 16.649 16.808 17.0002 16 17.0002ZM26.6631 0.333496H5.33692C4.12491 0.333496 2.96254 0.86028 2.10552 1.79796C1.2485 2.73564 0.767029 4.00741 0.767029 5.3335V28.6668C0.767029 29.9929 1.2485 31.2647 2.10552 32.2024C2.96254 33.14 4.12491 33.6668 5.33692 33.6668H26.6631C27.8751 33.6668 29.0375 33.14 29.8945 32.2024C30.7515 31.2647 31.233 29.9929 31.233 28.6668V5.3335C31.233 4.00741 30.7515 2.73564 29.8945 1.79796C29.0375 0.86028 27.8751 0.333496 26.6631 0.333496ZM28.1864 28.6668C28.1864 29.1089 28.0259 29.5328 27.7402 29.8453C27.4545 30.1579 27.0671 30.3335 26.6631 30.3335H5.33692C4.93292 30.3335 4.54546 30.1579 4.25979 29.8453C3.97411 29.5328 3.81362 29.1089 3.81362 28.6668V5.3335C3.81362 4.89147 3.97411 4.46755 4.25979 4.15499C4.54546 3.84242 4.93292 3.66683 5.33692 3.66683H26.6631C27.0671 3.66683 27.4545 3.84242 27.7402 4.15499C28.0259 4.46755 28.1864 4.89147 28.1864 5.3335V28.6668Z" fill="#2780D2"/>
</svg>
