<svg width="17" height="17" viewBox="0 0 17 17" fill="none" xmlns="http://www.w3.org/2000/svg">
<path d="M16.0585 12.5248L14.3335 10.7582C13.9624 10.4055 13.4944 10.1718 12.9895 10.0871C12.4846 10.0025 11.9659 10.0707 11.5002 10.2832L10.7502 9.53316C11.634 8.35226 12.0376 6.88039 11.8798 5.41386C11.722 3.94732 11.0145 2.59502 9.89968 1.62916C8.78489 0.663308 7.3456 0.155627 5.87154 0.208316C4.39748 0.261006 2.99811 0.870154 1.95513 1.91314C0.912147 2.95612 0.302998 4.35549 0.250308 5.82955C0.197619 7.30361 0.705301 8.7429 1.67115 9.85769C2.63701 10.9725 3.98932 11.68 5.45585 11.8378C6.92239 11.9956 8.39425 11.592 9.57516 10.7082L10.3168 11.4498C10.0794 11.9162 9.99431 12.4453 10.0735 12.9626C10.1528 13.4799 10.3924 13.9593 10.7585 14.3332L12.5252 16.0998C12.9939 16.568 13.6293 16.831 14.2918 16.831C14.9543 16.831 15.5897 16.568 16.0585 16.0998C16.2966 15.867 16.4858 15.5889 16.615 15.282C16.7441 14.975 16.8107 14.6454 16.8107 14.3123C16.8107 13.9793 16.7441 13.6496 16.615 13.3427C16.4858 13.0357 16.2966 12.7577 16.0585 12.5248ZM8.99182 8.9915C8.40868 9.57316 7.66624 9.96895 6.85827 10.1289C6.05031 10.2888 5.21307 10.2057 4.45232 9.88999C3.69158 9.57431 3.04146 9.04025 2.58408 8.35528C2.12671 7.6703 1.8826 6.86514 1.8826 6.0415C1.8826 5.21786 2.12671 4.41269 2.58408 3.72771C3.04146 3.04274 3.69158 2.50868 4.45232 2.19301C5.21307 1.87733 6.05031 1.7942 6.85827 1.95412C7.66624 2.11404 8.40868 2.50983 8.99182 3.0915C9.37985 3.47854 9.68771 3.93834 9.89776 4.44455C10.1078 4.95076 10.2159 5.49343 10.2159 6.0415C10.2159 6.58956 10.1078 7.13223 9.89776 7.63844C9.68771 8.14465 9.37985 8.60445 8.99182 8.9915ZM14.8835 14.8832C14.806 14.9613 14.7139 15.0233 14.6123 15.0656C14.5108 15.1079 14.4018 15.1297 14.2918 15.1297C14.1818 15.1297 14.0729 15.1079 13.9713 15.0656C13.8698 15.0233 13.7776 14.9613 13.7002 14.8832L11.9335 13.1165C11.8554 13.039 11.7934 12.9469 11.7511 12.8453C11.7088 12.7438 11.687 12.6348 11.687 12.5248C11.687 12.4148 11.7088 12.3059 11.7511 12.2043C11.7934 12.1028 11.8554 12.0106 11.9335 11.9332C12.011 11.8551 12.1031 11.7931 12.2047 11.7508C12.3062 11.7084 12.4151 11.6867 12.5252 11.6867C12.6352 11.6867 12.7441 11.7084 12.8456 11.7508C12.9472 11.7931 13.0394 11.8551 13.1168 11.9332L14.8835 13.6998C14.9616 13.7773 15.0236 13.8695 15.0659 13.971C15.1082 14.0726 15.13 14.1815 15.13 14.2915C15.13 14.4015 15.1082 14.5104 15.0659 14.612C15.0236 14.7135 14.9616 14.8057 14.8835 14.8832Z" fill="#C8D3D9"/>
</svg>
