<svg width="34" height="34" viewBox="0 0 34 34" fill="none" xmlns="http://www.w3.org/2000/svg">
<path d="M25.0667 16.3832C25.7343 16.3915 26.3967 16.2659 27.015 16.014C27.6333 15.7621 28.1949 15.389 28.6667 14.9165L33.3833 10.1999C33.6938 9.88758 33.868 9.46516 33.868 9.02485C33.868 8.58455 33.6938 8.16213 33.3833 7.84985C33.2284 7.69364 33.0441 7.56965 32.841 7.48503C32.6379 7.40042 32.42 7.35686 32.2 7.35686C31.98 7.35686 31.7621 7.40042 31.559 7.48503C31.356 7.56965 31.1716 7.69364 31.0167 7.84985L26.25 12.5499C26.0951 12.7061 25.9107 12.8301 25.7076 12.9147C25.5045 12.9993 25.2867 13.0429 25.0667 13.0429C24.8467 13.0429 24.6288 12.9993 24.4257 12.9147C24.2226 12.8301 24.0383 12.7061 23.8833 12.5499L29.7833 6.66652C29.9387 6.51112 30.062 6.32664 30.1461 6.1236C30.2302 5.92057 30.2735 5.70295 30.2735 5.48319C30.2735 5.26342 30.2302 5.04581 30.1461 4.84277C30.062 4.63974 29.9387 4.45525 29.7833 4.29985C29.6279 4.14446 29.4435 4.02119 29.2404 3.93709C29.0374 3.85299 28.8198 3.8097 28.6 3.8097C28.3802 3.8097 28.1626 3.85299 27.9596 3.93709C27.7566 4.02119 27.5721 4.14446 27.4167 4.29985L21.5333 10.1999C21.2229 9.88758 21.0487 9.46516 21.0487 9.02485C21.0487 8.58455 21.2229 8.16213 21.5333 7.84985L26.25 3.13319C26.4054 2.97779 26.5287 2.79331 26.6128 2.59027C26.6969 2.38723 26.7402 2.16962 26.7402 1.94985C26.7402 1.73009 26.6969 1.51247 26.6128 1.30944C26.5287 1.1064 26.4054 0.921918 26.25 0.76652C26.0946 0.611122 25.9101 0.487854 25.7071 0.403754C25.5041 0.319653 25.2864 0.276367 25.0667 0.276367C24.8469 0.276367 24.6293 0.319653 24.4263 0.403754C24.2232 0.487854 24.0387 0.611122 23.8833 0.76652L19.1667 5.48319C18.2303 6.42069 17.7044 7.69152 17.7044 9.01652C17.7044 10.3415 18.2303 11.6124 19.1667 12.5499L17 14.6999L3.21668 0.86652L3.05001 0.76652C2.96481 0.692186 2.86939 0.630448 2.76668 0.583187L2.46668 0.46652L2.26668 0.333187H2.15001H1.81668C1.71731 0.317298 1.61605 0.317298 1.51668 0.333187C1.41578 0.36991 1.32043 0.420387 1.23334 0.483187L0.966676 0.649853H0.85001L0.75001 0.81652C0.67947 0.904518 0.618044 0.999449 0.566676 1.09985C0.517865 1.20148 0.478801 1.30751 0.450009 1.41652C0.450009 1.41652 0.450009 1.53319 0.450009 1.59985C0.0455685 4.41887 0.303426 7.29335 1.20314 9.99538C2.10285 12.6974 3.61967 15.1527 5.63334 17.1665L10.0333 21.5499L1.01668 30.5499C0.860462 30.7048 0.736472 30.8891 0.651857 31.0922C0.567243 31.2953 0.523679 31.5132 0.523679 31.7332C0.523679 31.9532 0.567243 32.1711 0.651857 32.3741C0.736472 32.5772 0.860462 32.7616 1.01668 32.9165C1.17241 33.071 1.3571 33.1932 1.56017 33.2761C1.76323 33.3591 1.98067 33.4011 2.20001 33.3999C2.41935 33.4011 2.63679 33.3591 2.83985 33.2761C3.04292 33.1932 3.22761 33.071 3.38334 32.9165L13.5 22.9499L18.2167 18.2332L21.55 14.8999C22.48 15.8399 23.7444 16.3732 25.0667 16.3832ZM12.3167 19.4165L7.93334 15.0165C5.53077 12.5811 4.02642 9.40196 3.66668 5.99985L14.6833 16.9999L12.3167 19.4165ZM22.7167 20.3665C22.4028 20.0505 21.9763 19.872 21.5309 19.8705C21.0855 19.8689 20.6577 20.0443 20.3417 20.3582C20.0256 20.672 19.8472 21.0986 19.8456 21.544C19.8441 21.9894 20.0195 22.4171 20.3333 22.7332L30.8333 33.2332C31.1517 33.5229 31.5698 33.6781 32 33.6665C32.2194 33.6678 32.4368 33.6257 32.6399 33.5428C32.8429 33.4599 33.0276 33.3377 33.1833 33.1832C33.3396 33.0282 33.4636 32.8439 33.5482 32.6408C33.6328 32.4377 33.6763 32.2199 33.6763 31.9999C33.6763 31.7798 33.6328 31.562 33.5482 31.3589C33.4636 31.1558 33.3396 30.9715 33.1833 30.8165L22.7167 20.3665Z" fill="#D56C0C"/>
</svg>
