<svg width="144" height="144" viewBox="0 0 144 144" fill="none" xmlns="http://www.w3.org/2000/svg">
<rect y="0.000671387" width="144" height="144" rx="16" fill="white"/>
<rect y="0.000671387" width="144" height="144" rx="16" fill="white"/>
<path d="M72.6759 91.9639C66.5593 91.9639 60.4427 91.9677 54.3242 91.9524C53.9675 91.9524 53.5751 91.8565 53.2653 91.682C52.8279 91.4365 52.7734 90.957 52.7734 90.4679C52.7809 83.6899 52.7734 76.9139 52.7885 70.1359C52.7903 69.7082 52.657 69.503 52.2947 69.2978C49.9742 67.9782 48.7802 65.928 48.6675 63.2256C48.6563 62.9571 48.7558 62.6521 48.8891 62.4124C51.2095 58.2141 53.545 54.0234 55.8712 49.8269C56.1453 49.3321 56.5358 49.0809 57.084 49.0751C57.2398 49.0732 57.3975 49.0732 57.5533 49.0732C67.6444 49.0732 77.7355 49.0809 87.8247 49.0578C88.7165 49.0559 89.2591 49.3685 89.6965 50.1702C91.8367 54.0886 94.0014 57.9916 96.213 61.8677C96.6673 62.6656 96.78 63.4327 96.6185 64.2881C96.1942 66.5417 95.0152 68.2448 93.0289 69.3323C92.6947 69.5145 92.5764 69.7063 92.5764 70.0956C92.5896 76.8563 92.5858 83.619 92.5858 90.3797C92.5858 91.5304 92.1615 91.962 91.0257 91.9639C84.9091 91.9639 78.7925 91.9639 72.6759 91.9639ZM90.1978 89.5128C90.1978 83.0378 90.1978 76.6204 90.1978 70.1589C88.9774 70.205 87.8416 69.9729 86.7696 69.4359C85.6882 68.8931 84.8284 68.078 84.1037 67.0845C82.6581 69.0753 80.7863 70.1551 78.3963 70.157C75.997 70.1589 74.1271 69.0465 72.6872 67.0883C71.2265 69.0791 69.3547 70.1589 66.9648 70.157C64.5673 70.1532 62.6918 69.0542 61.2575 67.0864C59.7255 69.2153 57.6847 70.2241 55.1596 70.1781C55.1596 76.6569 55.1596 83.0781 55.1596 89.5128C56.5489 89.5128 57.91 89.5128 59.305 89.5128C59.305 89.2615 59.305 89.0544 59.305 88.8492C59.305 84.8522 59.2974 80.8571 59.3087 76.8602C59.3162 74.154 61.0171 72.4393 63.6643 72.4355C64.6499 72.4336 65.6393 72.3837 66.6193 72.4528C67.2614 72.4988 67.9448 72.6024 68.5174 72.8805C70.0813 73.638 70.8022 74.9959 70.806 76.7451C70.8154 80.8054 70.8097 84.8656 70.8097 88.9259C70.8097 89.1138 70.8097 89.3018 70.8097 89.5166C77.2962 89.5128 83.7338 89.5128 90.1978 89.5128ZM93.2448 61.5014C93.1922 61.3882 93.1641 61.3173 93.1284 61.252C91.3768 58.1009 89.6176 54.9516 87.8773 51.7928C87.7177 51.5032 87.5093 51.5032 87.2559 51.5051C77.5403 51.507 67.8228 51.509 58.1072 51.4974C57.7617 51.4974 57.5834 51.6144 57.4163 51.9175C55.7304 54.9785 54.0275 58.0318 52.3304 61.0871C52.2628 61.2079 52.2065 61.3345 52.122 61.5033C65.8477 61.5014 79.5228 61.5014 93.2448 61.5014ZM68.4311 89.5166C68.4423 89.3881 68.4592 89.2807 68.4592 89.1714C68.4611 84.9999 68.4648 80.8284 68.4573 76.6569C68.4555 75.5445 67.7552 74.8483 66.6531 74.8387C65.6525 74.8291 64.6518 74.8348 63.6493 74.8368C62.3201 74.8387 61.6874 75.4773 61.6855 76.8276C61.6836 80.8878 61.6855 84.9462 61.6855 89.0064C61.6855 89.1752 61.6855 89.3421 61.6855 89.5166C63.976 89.5166 66.1913 89.5166 68.4311 89.5166ZM51.1232 63.9698C51.5813 66.2828 53.4775 67.8229 55.7041 67.7385C57.8387 67.656 59.6955 66.0219 59.9545 63.9698C57.0201 63.9698 54.0895 63.9698 51.1232 63.9698ZM62.5773 63.9698C62.7932 66.1984 65.0705 67.9418 67.436 67.7212C69.8053 67.4988 71.3711 65.32 71.3316 63.9698C68.4141 63.9698 65.4966 63.9698 62.5773 63.9698ZM82.8008 63.9717C79.8551 63.9717 76.9376 63.9717 74.0201 63.9717C74.1234 65.905 76.119 67.6637 78.2574 67.7385C80.4803 67.8152 82.5304 66.1313 82.8008 63.9717ZM94.2511 63.9909C91.2885 63.9909 88.3579 63.9909 85.4216 63.9909C85.6863 66.0469 87.5581 67.6771 89.7003 67.7442C91.8968 67.8152 93.8005 66.2617 94.2511 63.9909Z" fill="#354752"/>
<path d="M93.244 61.5013C79.5202 61.5013 65.847 61.5013 52.1212 61.5013C52.2057 61.3325 52.262 61.2059 52.3296 61.0851C54.0268 58.0298 55.7296 54.9765 57.4155 51.9154C57.5826 51.6124 57.7591 51.4954 58.1064 51.4954C67.822 51.505 77.5395 51.5031 87.2551 51.5031C87.5085 51.5031 87.7169 51.5031 87.8765 51.7908C89.6169 54.9496 91.376 58.0989 93.1276 61.25C93.1652 61.3191 93.1933 61.39 93.244 61.5013Z" fill="#D28E27"/>
<path d="M79.4908 84.1657C78.5052 84.1657 77.5196 84.1695 76.5339 84.1657C74.3787 84.1542 73.0476 82.8078 73.0363 80.6194C73.0288 79.0697 73.0269 77.5181 73.0363 75.9685C73.0494 73.8089 74.3955 72.4395 76.5058 72.4356C78.524 72.4318 80.5422 72.4318 82.5604 72.4356C84.6744 72.4395 86.0224 73.8069 86.0355 75.9627C86.043 77.5124 86.043 79.064 86.0355 80.6137C86.0261 82.8059 84.6969 84.1542 82.5416 84.1657C81.5241 84.1695 80.5065 84.1657 79.4908 84.1657ZM79.5246 81.7529C80.5553 81.7529 81.586 81.7587 82.6167 81.751C83.3527 81.7472 83.6718 81.4211 83.6756 80.6674C83.6812 79.087 83.6812 77.5066 83.6756 75.9263C83.6718 75.1783 83.3471 74.8407 82.6167 74.8388C80.5704 74.833 78.524 74.833 76.4776 74.8388C75.721 74.8407 75.4 75.1744 75.3981 75.955C75.3924 77.5201 75.3924 79.0832 75.3981 80.6482C75.4 81.4365 75.7079 81.7491 76.4795 81.7529C77.4933 81.7568 78.5089 81.7529 79.5246 81.7529Z" fill="#354752"/>
</svg>
