<svg width="30" height="36" viewBox="0 0 30 36" fill="none" xmlns="http://www.w3.org/2000/svg">
<path d="M20.1836 24.1406C20.1547 24.1004 20.1165 24.0677 20.0724 24.0452C20.0282 24.0228 19.9792 24.0113 19.9297 24.0117H18.2031C17.9492 24.0117 17.8008 24.3008 17.9492 24.5078L20.832 28.4961C20.957 28.668 21.2109 28.668 21.3359 28.4961L25.7969 22.3242C25.9453 22.1172 25.7969 21.8281 25.543 21.8281H23.8125C23.7109 21.8281 23.6172 21.875 23.5586 21.957L21.0781 25.3867L20.1836 24.1406ZM21.875 9.95312V8.07812C21.875 7.90625 21.7344 7.76562 21.5625 7.76562H6.5625C6.39062 7.76562 6.25 7.90625 6.25 8.07812V9.95312C6.25 10.125 6.39062 10.2656 6.5625 10.2656H21.5625C21.7344 10.2656 21.875 10.125 21.875 9.95312ZM6.5625 13.3906C6.39062 13.3906 6.25 13.5312 6.25 13.7031V15.5781C6.25 15.75 6.39062 15.8906 6.5625 15.8906H13.75C13.9219 15.8906 14.0625 15.75 14.0625 15.5781V13.7031C14.0625 13.5312 13.9219 13.3906 13.75 13.3906H6.5625ZM13.75 31.2812H3.125V3.78125H25V15.3438C25 15.5156 25.1406 15.6562 25.3125 15.6562H27.5C27.6719 15.6562 27.8125 15.5156 27.8125 15.3438V2.21875C27.8125 1.52734 27.2539 0.96875 26.5625 0.96875H1.5625C0.871094 0.96875 0.3125 1.52734 0.3125 2.21875V32.8438C0.3125 33.5352 0.871094 34.0938 1.5625 34.0938H13.75C13.9219 34.0938 14.0625 33.9531 14.0625 33.7812V31.5938C14.0625 31.4219 13.9219 31.2812 13.75 31.2812ZM29.4766 18.75L21.9766 16.1445C21.9414 16.1328 21.9102 16.1289 21.875 16.1289C21.8398 16.1289 21.8047 16.1328 21.7734 16.1445L14.2734 18.75C14.2122 18.7708 14.1589 18.8102 14.1211 18.8627C14.0833 18.9153 14.0628 18.9783 14.0625 19.043V28.8516C14.0625 28.9492 14.1055 29.0391 14.1836 29.0977L21.6836 34.9648C21.7383 35.0078 21.8086 35.0312 21.875 35.0312C21.9414 35.0312 22.0117 35.0078 22.0664 34.9648L29.5664 29.0977C29.6406 29.0391 29.6875 28.9492 29.6875 28.8516V19.043C29.6875 18.9102 29.6016 18.793 29.4766 18.75ZM27.2656 27.832L21.875 32.0469L16.4844 27.832V20.5391L21.875 18.6641L27.2656 20.5391V27.832Z" fill="#D56C0C"/>
</svg>
