<svg width="24" height="24" viewBox="0 0 24 24" fill="none" xmlns="http://www.w3.org/2000/svg">
<path d="M22.2647 2.42827C21.98 2.1914 21.6364 2.03616 21.2704 1.97907C20.9045 1.92198 20.5299 1.96518 20.1866 2.10406L2.26566 9.33941C1.88241 9.49709 1.55618 9.7676 1.33026 10.115C1.10434 10.4625 0.989427 10.8704 1.00076 11.2846C1.0121 11.6989 1.14916 12.0999 1.39374 12.4345C1.63832 12.769 1.97886 13.0213 2.37016 13.1578L5.99516 14.4185L8.01566 21.1001C8.04312 21.1894 8.08297 21.2744 8.13404 21.3525C8.14179 21.3645 8.15272 21.3735 8.16096 21.3851C8.21996 21.4675 8.29127 21.5402 8.37239 21.6009C8.39546 21.6185 8.41755 21.6349 8.44221 21.6506C8.53714 21.7136 8.64228 21.7596 8.75294 21.7867L8.76478 21.7877L8.77149 21.7905C8.83802 21.8041 8.90574 21.811 8.97364 21.8111C8.98017 21.8111 8.98597 21.8079 8.99244 21.8078C9.0949 21.806 9.19647 21.7884 9.29353 21.7555C9.31611 21.7478 9.33546 21.7349 9.35737 21.7257C9.42975 21.6957 9.49832 21.6572 9.56166 21.6111C9.61238 21.5684 9.66312 21.5256 9.71388 21.4829L12.416 18.4995L16.4463 21.6216C16.8011 21.8978 17.2379 22.048 17.6875 22.0484C18.1587 22.0478 18.6154 21.8852 18.9809 21.5879C19.3465 21.2906 19.5987 20.8767 19.6954 20.4155L22.958 4.39898C23.032 4.0385 23.0065 3.66469 22.8844 3.31757C22.7623 2.97044 22.5481 2.66304 22.2647 2.42827V2.42827ZM9.37016 14.7369C9.2315 14.875 9.13672 15.051 9.0977 15.2427L8.78819 16.7467L8.00413 14.1537L12.0694 12.0367L9.37016 14.7369ZM17.6719 20.0405L12.9092 16.3511C12.71 16.1971 12.46 16.1239 12.2092 16.146C11.9583 16.168 11.725 16.2838 11.5557 16.4702L10.6903 17.4254L10.9961 15.939L18.0791 8.85598C18.2482 8.68714 18.3512 8.46333 18.3695 8.2251C18.3878 7.98687 18.3201 7.74996 18.1788 7.55729C18.0375 7.36463 17.8319 7.22894 17.5992 7.17481C17.3664 7.12069 17.122 7.1517 16.9102 7.26223L6.74491 12.5549L3.02055 11.1919L20.999 3.99954L17.6719 20.0405Z" fill="#8798A1"/>
</svg>
