<svg width="24" height="24" viewBox="0 0 24 24" fill="none" xmlns="http://www.w3.org/2000/svg">
<path d="M22.9914 3.95069C22.9915 3.77406 22.9448 3.60055 22.8561 3.44784C22.7673 3.29512 22.6397 3.16866 22.4862 3.08133C22.3326 2.99399 22.1587 2.9489 21.9821 2.95066C21.8054 2.95241 21.6324 3.00095 21.4807 3.09131C20.8954 3.4397 20.2652 3.7065 19.6077 3.88431C18.6686 3.07855 17.471 2.63762 16.2337 2.64212C14.8762 2.64369 13.5726 3.17272 12.5979 4.11751C11.6232 5.06229 11.0539 6.34888 11.01 7.7056C8.33402 7.27887 5.90867 5.88213 4.19649 3.78174C4.09333 3.65658 3.96158 3.55806 3.81235 3.49449C3.66313 3.43092 3.5008 3.40417 3.33907 3.41649C3.17743 3.4298 3.02147 3.48229 2.88467 3.5694C2.74786 3.65652 2.63434 3.77565 2.55391 3.91649C2.14144 4.63631 1.90454 5.44325 1.86246 6.2718C1.82038 7.10035 1.9743 7.92715 2.31172 8.68504L2.30977 8.68699C2.15812 8.7804 2.03296 8.91115 1.94628 9.06674C1.85959 9.22233 1.81427 9.39756 1.81465 9.57567C1.81282 9.7226 1.82163 9.86947 1.84102 10.0151C1.94316 11.2734 2.50081 12.4512 3.40938 13.3276C3.34775 13.445 3.31013 13.5736 3.29873 13.7057C3.28732 13.8378 3.30237 13.9709 3.34297 14.0972C3.73909 15.3313 4.58147 16.3732 5.70528 17.019C4.56352 17.4605 3.3307 17.6145 2.11543 17.4673C1.89051 17.439 1.66266 17.4881 1.46928 17.6064C1.2759 17.7247 1.12846 17.9052 1.05115 18.1183C0.973837 18.3314 0.971244 18.5644 1.04379 18.7792C1.11634 18.994 1.25973 19.1777 1.45043 19.3003C3.54053 20.6464 5.97411 21.3621 8.4602 21.3618C11.2795 21.3935 14.0302 20.4926 16.2844 18.7993C18.5387 17.1059 20.1702 14.715 20.925 11.9985C21.2781 10.8151 21.4583 9.58696 21.4602 8.35205C21.4602 8.28662 21.4602 8.21924 21.4592 8.15186C21.9813 7.58879 22.3858 6.92717 22.6489 6.20576C22.912 5.48436 23.0284 4.71769 22.9914 3.95069V3.95069ZM19.6848 7.1626C19.5196 7.35795 19.436 7.6094 19.4514 7.86475C19.4611 8.02975 19.4602 8.19575 19.4602 8.35205C19.4581 9.39559 19.3052 10.4334 19.0061 11.4331C18.3896 13.7445 17.0152 15.7821 15.1031 17.2197C13.1911 18.6573 10.8519 19.4116 8.4602 19.3618C7.60108 19.3621 6.74492 19.2611 5.90942 19.061C6.97483 18.7177 7.97101 18.1884 8.8518 17.4976C9.01403 17.3698 9.13275 17.195 9.19169 16.9971C9.25063 16.7993 9.24688 16.588 9.18098 16.3923C9.11507 16.1966 8.99023 16.0262 8.82358 15.9042C8.65694 15.7823 8.45665 15.715 8.2502 15.7114C7.41903 15.6985 6.62533 15.3635 6.03633 14.7769C6.18575 14.7485 6.33419 14.7134 6.48165 14.6714C6.69766 14.6099 6.8867 14.4775 7.01831 14.2955C7.14993 14.1135 7.21647 13.8926 7.20723 13.6682C7.19798 13.4438 7.11348 13.229 6.96734 13.0585C6.82119 12.8879 6.62191 12.7715 6.40157 12.728C5.91911 12.6328 5.46512 12.4275 5.07489 12.1282C4.68466 11.8289 4.3687 11.4437 4.15157 11.0024C4.3323 11.0271 4.51418 11.0424 4.69649 11.0483C4.91308 11.0516 5.12509 10.9859 5.30187 10.8607C5.47865 10.7356 5.61104 10.5574 5.67989 10.3521C5.74587 10.1448 5.74248 9.92172 5.67022 9.71659C5.59797 9.51145 5.46079 9.33547 5.2795 9.21533C4.83965 8.92231 4.47935 8.52476 4.23086 8.05829C3.98237 7.59183 3.85346 7.07101 3.85567 6.54249C3.85567 6.47609 3.85762 6.40968 3.86153 6.34425C6.10279 8.43451 9.00985 9.6667 12.0705 9.82374C12.225 9.82983 12.3789 9.80073 12.5205 9.73864C12.6621 9.67656 12.7877 9.5831 12.8879 9.46534C12.9871 9.34645 13.0573 9.20615 13.0931 9.0555C13.1288 8.90485 13.1291 8.74796 13.0939 8.59718C13.0367 8.35855 13.0076 8.11406 13.007 7.86866C13.0079 7.0132 13.3482 6.19303 13.9531 5.58813C14.558 4.98323 15.3781 4.643 16.2336 4.64209C16.6737 4.64092 17.1093 4.73099 17.5129 4.90664C17.9165 5.08229 18.2792 5.33969 18.5783 5.6626C18.6937 5.78669 18.8388 5.8792 19 5.93134C19.1612 5.98348 19.333 5.99352 19.4992 5.96049C19.91 5.88055 20.3149 5.77288 20.7111 5.63823C20.4409 6.19121 20.0955 6.70418 19.6848 7.1626V7.1626Z" fill="#8798A1"/>
</svg>
