<svg width="49" height="43" viewBox="0 0 49 43" fill="none" xmlns="http://www.w3.org/2000/svg">
<path d="M24.6758 42.9639C18.5592 42.9639 12.4426 42.9678 6.32414 42.9524C5.96743 42.9524 5.57505 42.8565 5.26527 42.682C4.82784 42.4365 4.77339 41.957 4.77339 41.4679C4.7809 34.69 4.7734 27.9139 4.78842 21.1359C4.79029 20.7082 4.657 20.503 4.29466 20.2978C1.97418 18.9783 0.78014 16.928 0.667496 14.2256C0.656231 13.9571 0.755733 13.6522 0.889029 13.4124C3.20951 9.21408 5.54501 5.0234 7.87112 0.826962C8.14523 0.332136 8.53573 0.0808904 9.08393 0.0751366C9.23976 0.0732187 9.39746 0.0732168 9.55329 0.0732168C19.6444 0.0732168 29.7355 0.0808853 39.8247 0.0578701C40.7165 0.0559522 41.259 0.368579 41.6965 1.17027C43.8367 5.08861 46.0014 8.9916 48.2129 12.8677C48.6673 13.6656 48.7799 14.4328 48.6185 15.2882C48.1942 17.5417 47.0152 19.2449 45.0289 20.3323C44.6947 20.5145 44.5764 20.7063 44.5764 21.0957C44.5895 27.8564 44.5858 34.619 44.5858 41.3797C44.5858 42.5305 44.1615 42.962 43.0257 42.9639C36.909 42.9639 30.7924 42.9639 24.6758 42.9639ZM42.1977 40.5128C42.1977 34.0379 42.1977 27.6205 42.1977 21.1589C40.9774 21.205 39.8416 20.9729 38.7696 20.4359C37.6882 19.8931 36.8283 19.078 36.1036 18.0845C34.658 20.0753 32.7863 21.1551 30.3963 21.157C27.997 21.159 26.1271 20.0466 24.6871 18.0884C23.2265 20.0792 21.3547 21.159 18.9647 21.157C16.5673 21.1532 14.6918 20.0542 13.2574 18.0864C11.7254 20.2153 9.68471 21.2242 7.15959 21.1781C7.15959 27.6569 7.15959 34.0781 7.15959 40.5128C8.54887 40.5128 9.91 40.5128 11.3049 40.5128C11.3049 40.2616 11.3049 40.0544 11.3049 39.8492C11.3049 35.8522 11.2974 31.8572 11.3087 27.8602C11.3162 25.154 13.0171 23.4394 15.6643 23.4355C16.6499 23.4336 17.6393 23.3838 18.6193 23.4528C19.2614 23.4988 19.9448 23.6024 20.5174 23.8805C22.0812 24.6381 22.8022 25.996 22.8059 27.7451C22.8153 31.8054 22.8097 35.8657 22.8097 39.9259C22.8097 40.1139 22.8097 40.3018 22.8097 40.5166C29.2962 40.5128 35.7338 40.5128 42.1977 40.5128ZM45.2448 12.5014C45.1922 12.3883 45.164 12.3173 45.1284 12.2521C43.3767 9.10091 41.6176 5.95167 39.8772 2.79284C39.7177 2.50323 39.5093 2.50323 39.2558 2.50515C29.5402 2.50707 19.8227 2.50899 10.1071 2.49748C9.76168 2.49748 9.58333 2.61447 9.41624 2.91751C7.73032 5.97853 6.02751 9.03187 4.33033 12.0871C4.26274 12.208 4.20642 12.3345 4.12194 12.5033C17.8477 12.5014 31.5228 12.5014 45.2448 12.5014ZM20.431 40.5166C20.4423 40.3881 20.4592 40.2807 20.4592 40.1714C20.4611 35.9999 20.4648 31.8284 20.4573 27.6569C20.4554 26.5445 19.7551 25.8483 18.6531 25.8387C17.6524 25.8291 16.6518 25.8349 15.6492 25.8368C14.32 25.8387 13.6874 26.4774 13.6855 27.8276C13.6836 31.8879 13.6855 35.9462 13.6855 40.0065C13.6855 40.1752 13.6855 40.3421 13.6855 40.5166C15.9759 40.5166 18.1913 40.5166 20.431 40.5166ZM3.12315 14.9698C3.58124 17.2828 5.47743 18.8229 7.70404 18.7385C9.83866 18.656 11.6954 17.022 11.9545 14.9698C9.0201 14.9698 6.08946 14.9698 3.12315 14.9698ZM14.5772 14.9698C14.7931 17.1984 17.0704 18.9418 19.436 18.7213C21.8053 18.4988 23.371 16.32 23.3316 14.9698C20.4141 14.9698 17.4966 14.9698 14.5772 14.9698ZM34.8007 14.9717C31.8551 14.9717 28.9376 14.9717 26.0201 14.9717C26.1233 16.905 28.119 18.6637 30.2574 18.7385C32.4802 18.8152 34.5304 17.1313 34.8007 14.9717ZM46.2511 14.9909C43.2885 14.9909 40.3579 14.9909 37.4216 14.9909C37.6863 17.0469 39.5581 18.6772 41.7002 18.7443C43.8968 18.8152 45.8005 17.2617 46.2511 14.9909Z" fill="#354752"/>
<path d="M45.244 12.5012C31.5202 12.5012 17.847 12.5012 4.12122 12.5012C4.2057 12.3324 4.26202 12.2058 4.32961 12.085C6.02679 9.02975 7.7296 5.97641 9.41552 2.91539C9.58261 2.61236 9.75908 2.49536 10.1064 2.49536C19.822 2.50495 29.5395 2.50303 39.2551 2.50303C39.5085 2.50303 39.7169 2.50303 39.8765 2.79072C41.6169 5.94955 43.376 9.0988 45.1276 12.25C45.1652 12.319 45.1934 12.39 45.244 12.5012Z" fill="#D28E27"/>
<path d="M31.4908 35.1658C30.5052 35.1658 29.5195 35.1696 28.5339 35.1658C26.3786 35.1543 25.0475 33.8079 25.0363 31.6196C25.0288 30.0699 25.0269 28.5183 25.0363 26.9686C25.0494 24.809 26.3955 23.4396 28.5057 23.4357C30.5239 23.4319 32.5422 23.4319 34.5604 23.4357C36.6743 23.4396 38.0223 24.8071 38.0355 26.9628C38.043 28.5125 38.043 30.0641 38.0355 31.6138C38.0261 33.806 36.6969 35.1543 34.5416 35.1658C33.524 35.1696 32.5065 35.1658 31.4908 35.1658ZM31.5246 32.753C32.5553 32.753 33.586 32.7588 34.6167 32.7511C35.3526 32.7473 35.6718 32.4213 35.6755 31.6675C35.6812 30.0871 35.6812 28.5068 35.6755 26.9264C35.6718 26.1784 35.347 25.8408 34.6167 25.8389C32.5703 25.8332 30.5239 25.8332 28.4775 25.8389C27.721 25.8408 27.3999 26.1746 27.398 26.9551C27.3924 28.5202 27.3924 30.0833 27.398 31.6483C27.3999 32.4366 27.7078 32.7492 28.4794 32.753C29.4932 32.7569 30.5089 32.753 31.5246 32.753Z" fill="#354752"/>
</svg>
